<?xml version="1.0" encoding="utf-8"?>
<!-- Generator: Adobe Illustrator 21.1.0, SVG Export Plug-In . SVG Version: 6.00 Build 0)  -->
<svg version="1.1" id="Layer_1" xmlns="http://www.w3.org/2000/svg" xmlns:xlink="http://www.w3.org/1999/xlink" x="0px" y="0px"
	 viewBox="0 0 612 792" style="enable-background:new 0 0 612 792;" xml:space="preserve">
<style type="text/css">
	.st0{fill:#FEFEFE;}
	.st1{fill:#010100;}
	.st2{fill:#FCFBFB;}
	.st3{fill:#3C3C3C;}
	.st4{fill:#5A5A5A;}
	.st5{fill:#161616;}
	.st6{fill:#FFFFFF;}
	.st7{fill:#FBFBFA;}
	.st8{fill:#FEFDFD;}
	.st9{fill:#FDFDFD;}
	.st10{fill:#FBFBFB;}
	.st11{fill:#F9F8F8;}
	.st12{fill:#EEEDEC;}
	.st13{fill:#F7F7F6;}
	.st14{fill:#F7F6F6;}
	.st15{fill:#F1EFEF;}
	.st16{fill:#EFEEEE;}
	.st17{fill:#F8F8F8;}
	.st18{fill:#F9F9F9;}
	.st19{fill:#F2F1F0;}
	.st20{fill:#F0EFEF;}
	.st21{fill:#F1F0F0;}
	.st22{fill:#DAD8D8;}
	.st23{fill:#E9E8E7;}
	.st24{fill:#71706F;}
	.st25{fill:#B5B4B4;}
	.st26{fill:#696968;}
	.st27{fill:#797979;}
	.st28{fill:#010101;}
	.st29{fill:#020202;}
	.st30{fill:#020302;}
	.st31{fill:#030303;}
	.st32{fill:#010201;}
	.st33{fill:#020303;}
	.st34{fill:#040404;}
	.st35{fill:#050605;}
	.st36{fill:#050505;}
	.st37{fill:#FAFAF9;}
</style>
<g>
	<g>
		<g>
			<path class="st0" d="M328,318.7c6.5,0,13,0,19.4,0c0.2,0,0.2,0,0.2,0.2c0,31.4,0,62.8,0,94.2c0,0.2,0,0.2-0.2,0.2
				c-37.7,0-75.4,0-113.1,0c-0.2,0-0.2,0-0.2-0.2c0-27.7,0-55.5,0-83.2c0.2,0,0.1,0.2,0.1,0.3c0.1,0.5,0.2,1,0.3,1.5
				c0.3,1.2,0.9,2.2,1.7,3.1c0.2,0.2,0.5,0.4,0.7,0.6c0.1,0.1,0.2,0.1,0.4,0.1c0.5,0,1.1,0,1.6,0c0.8,0,1.6-0.1,2.3-0.6
				c0.6-0.4,1.3-0.4,1.9-0.3c0.6,0,1.1,0.2,1.7,0.3c0.7,0.1,1.4,0,2,0c1-0.1,2.1-0.1,3.1,0.1c0.3,0.1,0.6,0.1,0.9,0.1
				c0.2,0,0.3,0,0.4,0.2c0.8,0.8,1,1.7,0.8,2.7c-0.2,0.8-0.5,1.5-0.9,2.1c-0.2,0.4-0.4,0.8-0.6,1.1c-0.1,0.2-0.2,0.3-0.5,0.4
				c-1.3,0.3-2.4,0.9-3.5,1.6c-0.2,0.1-0.3,0.2-0.4,0.4c-0.9,1.5-1.6,3-2.2,4.6c-0.6,1.6-1.2,3.1-1.8,4.7c-0.7,1.7-1.5,3.4-2.3,5
				c-0.4,0.8-0.9,1.5-1.3,2.3c-0.4,0.8-0.7,1.6-0.9,2.4c-0.2,0.9-0.4,1.8-0.6,2.8c0,0.2,0,0.4,0,0.7c0,0.6,0.2,1.3,0.1,1.9
				c0,0.1,0,0.3,0,0.4c-0.1,0.8,0.5,0.9,1,0.8c0.1,0,0.2,0,0.3-0.1c0.8-0.4,1.7-0.6,2.6-0.6c1.1-0.1,2.3-0.2,3.4-0.1
				c1.2,0.1,2.4,0,3.6,0c3.4,0,6.7-0.5,10-1.4c1.9-0.6,3.7-1.3,5.4-2.3c0.2-0.1,0.5-0.2,0.7-0.3c0.4-0.1,0.7-0.3,1.1-0.4
				c0.3-0.1,0.5-0.2,0.8-0.3c0.4-0.1,0.7-0.1,1,0.2c0.4,0.3,1,0.5,1.5,0.5c1,0,1.9,0.4,2.9,0.7c1,0.3,2,0.7,3,1
				c0.2,0.1,0.5,0.1,0.7,0.1c0.4,0,0.8,0,1.1,0.2c0.8,0.4,1.7,0.6,2.6,0.7c1,0.1,1.9,0.1,2.8,0.4c0.2,0.1,0.5,0.2,0.7,0.3
				c0.2,0.1,0.3,0,0.3-0.1c0.1-0.2,0.2-0.3,0.4-0.2c1.7,0.6,3.4,1.1,5,2.1c0.7,0.4,1.3,0.9,1.8,1.5c0,0.1,0.1,0.1,0.1,0.2
				c0,0.1,0,0.2-0.1,0.2c-0.1,0-0.2,0-0.3-0.1c-2.8-0.6-5.6-1.1-8.4-1.6c-1.9-0.3-3.9-0.6-5.8-0.9c-1.5-0.2-3-0.4-4.6-0.5
				c-1.2-0.1-2.3-0.2-3.5-0.2c-0.1,0-0.2,0-0.2,0c-0.4-0.1-0.9,0-1.2,0.2c-0.2,0.1-0.4,0.2-0.7,0.2c-0.2,0-0.2,0.1-0.2,0.2
				c0.1,0.7,0,1.3,0,2c0,0.2,0,0.4-0.1,0.6c0,0.2-0.1,0.2-0.3,0.2c-0.5-0.1-1-0.1-1.5,0c-0.8,0.1-1.4,0.5-1.8,1.2
				c-0.3,0.6-0.6,1.2-0.9,1.8c-0.2,0.5-0.3,1-0.2,1.6c0.1,0.9,0.4,1.8,0.8,2.7c0,0.1,0.1,0.2,0.1,0.3c0.8,1.6,1.7,3.2,2.5,4.9
				c0.6,1.2,1.1,2.5,1.7,3.8c0.5,1.2,1.1,2.4,1.8,3.6c0.4,0.7,0.8,1.4,1.3,2.1c0.3,0.5,0.5,1,0.7,1.6c0.4,1,0.7,2,1.1,3
				c0.1,0.3,0.2,0.6,0.4,0.8c0.3,0.5,0.6,1,0.6,1.6c0,0.3,0.2,0.6,0.4,0.9c0.1,0.3,0.3,0.6,0.3,1c0,0.2,0.2,0.3,0.4,0.3
				c0.1,0,0.2,0,0.4,0c0.1,0,0.1,0,0.1,0.1c0,0.1,0,0.1-0.1,0.1c-0.1,0.1-0.3,0.1-0.4,0.1c-1.2,0.4-2.5,0.5-3.8,0.7
				c-1.4,0.2-2.8,0.4-4.2,0.9c-0.7,0.3-1.4,0.6-1.9,1.2c-0.6,0.6-0.9,1.3-1.1,2.1c-0.1,0.3-0.2,0.6-0.5,0.7
				c-0.3,0.1-0.7,0.3-0.9,0.6c-0.4,0.4-0.6,0.8-0.7,1.4c0,0.2-0.1,0.3-0.3,0.3c-0.4,0-0.6,0.2-0.9,0.4c-0.1,0.1-0.1,0.2-0.1,0.3
				c0,0.4,0,0.8,0.2,1.2c0.1,0.2,0.2,0.3,0.4,0.3c0.5,0,1.1,0,1.6-0.1c0.1,0,0.3,0,0.4,0c1.7,0,3.3,0,5,0c1.2,0,2.5,0.1,3.7,0.1
				c0.5,0,1.1,0.1,1.7,0.1c0.7,0,1.4,0.1,2.1,0.1c0.5,0.1,1,0.1,1.5-0.2c0.4-0.2,0.8-0.2,1.2-0.2c0.6,0.1,1.1,0.1,1.6,0
				c0.2,0,0.3,0,0.4,0.2c0,0.1,0.1,0.1,0.1,0.2c0.1,0.2,0.3,0.3,0.6,0.2c0.6-0.1,1.1-0.2,1.7-0.3c0.1,0,0.2,0,0.4,0
				c0.1,0,0.3,0,0.4,0c0.2,0,0.4,0,0.7,0c0.2,0,0.5,0,0.7,0c0.2,0,0.4,0,0.6,0c0.2,0,0.3,0,0.5,0c0.2,0,0.3,0,0.5,0
				c0.1,0,0.2,0,0.4,0c0.1,0,0.2,0,0.3,0c1.3-0.2,2.5-0.4,3.8-0.7c0.6-0.1,1.2-0.2,1.7-0.2c0.1,0,0.3,0,0.4,0c0.3,0,0.6,0,0.9,0
				c0.3,0,0.6,0,0.9,0c0.3,0,0.7,0,1,0c0.1,0,0.3,0,0.4,0c0.1,0,0.2,0,0.4,0c0.1,0,0.2,0,0.3,0c0.3,0,0.6-0.1,0.9-0.2
				c0.2,0,0.3-0.1,0.3-0.3c0-0.2-0.2-0.2-0.3-0.3c-0.2,0-0.3,0-0.5,0c-0.1,0-0.2,0-0.3,0c-0.2,0-0.3,0-0.5,0c-0.2,0-0.4,0-0.6-0.2
				c-0.2-0.2-0.4-0.3-0.7-0.3c-0.2,0-0.3,0-0.5,0c-0.3-0.1-0.6,0-0.9,0c-1.4,0-2.8,0-4.2,0c-0.3,0-0.7,0-1,0c-0.2,0-0.4,0-0.6,0
				c-0.2,0-0.3,0-0.5,0c-0.2,0-0.4,0-0.6,0c-0.2,0-0.3,0-0.5,0c-0.1,0-0.2,0-0.3,0c-0.1,0-0.2,0-0.3,0c-0.1,0-0.2,0-0.3,0
				c-0.1,0-0.2,0-0.3,0c-0.1,0-0.2,0-0.3,0c-0.1,0-0.2,0-0.3,0c-1.5,0.2-3,0.4-4.4,0.7c-0.4,0.1-0.8,0.2-1.2,0.3
				c-0.1,0-0.3,0.1-0.3,0c-0.1-0.1,0-0.2,0.1-0.3c0.4-0.4,0.7-0.8,1.1-1.3c0.3-0.4,0.7-0.7,1.1-1c0.7-0.6,1.5-0.8,2.3-0.9
				c0.2,0,0.3,0.1,0.4,0.2c0.2,0.4,0.2,0.4,0.6,0.2c1-0.3,2-0.8,3-1.2c0.8-0.3,1.7-0.6,2.6-0.8c0.1,0,0.2,0,0.2-0.1
				c0.2-0.2,0.5-0.3,0.8-0.5c0.1,0,0.2-0.1,0.4-0.2c0.2-0.1,0.3-0.3,0.3-0.6c0-0.3-0.1-0.6-0.1-0.9c0-0.3,0.1-0.6,0.3-0.8
				c0.2-0.2,0.1-0.4-0.1-0.6c-0.1-0.1-0.3-0.2-0.4-0.2c-0.2-0.1-0.3-0.3-0.3-0.6c0-0.3,0.2-0.3,0.4-0.4c0.2-0.1,0.4-0.1,0.7-0.2
				c0.5-0.1,0.6-0.3,0.4-0.8c-0.1-0.1-0.1-0.2-0.2-0.3c-0.2-0.4-0.4-0.7-0.2-1.2c0-0.1,0-0.2-0.1-0.3c-0.3-0.2-0.6-0.3-1-0.3
				c-0.3,0-0.3-0.1-0.2-0.3c0.1-0.2,0.1-0.3,0-0.5c0-0.1-0.1-0.2-0.1-0.3c-0.1-0.2-0.2-0.2-0.3-0.2c-0.5,0.1-1,0.1-1.4,0
				c-0.3-0.1-0.7-0.1-1-0.2c-0.2,0-0.2-0.1-0.3-0.2c-0.1-0.5-0.4-0.9-0.7-1.2c-0.6-0.5-0.9-1.2-1.2-2c-0.2-0.7-0.4-1.4-0.6-2.1
				c-0.3-0.9-0.7-1.6-1.3-2.2c-0.4-0.4-0.9-0.8-1.4-1.3c-0.3-0.3-0.7-0.6-1-1c-0.1-0.1-0.1-0.2-0.1-0.3c0-0.4,0-0.9,0-1.3
				c-0.1-0.3-0.3-0.5-0.6-0.6c-0.2-0.1-0.4-0.3-0.6-0.4c-0.2-0.2-0.2-0.4-0.1-0.7c0.1-0.1,0.2-0.3,0.3-0.4c0.2-0.2,0.1-0.4,0-0.6
				c-0.1-0.1-0.4,0-0.6,0.1c-0.1,0.2-0.2,0.3-0.3,0.5c-0.1,0.2-0.2,0.4-0.4,0.5c-0.1,0.1-0.2,0.1-0.3,0c0-0.1,0-0.1,0-0.2
				c0-0.5,0-1-0.4-1.4c0-0.1-0.1-0.1-0.1-0.2c0-0.1,0.1-0.1,0.2-0.1c0.1,0,0.2,0,0.2,0c0.2,0,0.4,0,0.6,0c0.6-0.1,1.2-0.3,1.8-0.2
				c0.2,0,0.4,0,0.7,0.1c0.2,0,0.3,0,0.4-0.2c0.1-0.2,0.3-0.2,0.4,0c0.4,0.5,0.9,0.8,1.4,1.1c0.6,0.3,1.2,0.5,1.7,0.9
				c0.7,0.4,1.6,0.6,2.4,0.8c0.5,0.1,1.1,0.2,1.6,0.3c0.2,0,0.4,0.1,0.6,0.2c0.6,0.4,1.3,0.5,2,0.6c0.3,0,0.6,0,0.9,0.1
				c0.3,0.1,0.6,0,0.8,0c0.1,0,0.1,0,0.2,0c0.4,0,0.8,0,1.2,0c0.3,0,0.6,0,0.9,0c0.3,0,0.5,0,0.8,0c0.1,0,0.3,0,0.4,0
				c0.3,0.1,0.6,0,0.8,0c0.1,0,0.2,0,0.3,0c0.1,0,0.2,0,0.3,0c0.2,0,0.4,0,0.6-0.1c0.6-0.3,1.2-0.5,1.8-0.4c0.1,0,0.2,0,0.3,0
				c0.7,0.1,1.4,0.3,2,0.6c0.8,0.3,1.5,0.5,2.3,0.6c0.1,0,0.2,0,0.3,0c0.2,0,0.4,0,0.7,0c0.2,0.1,0.4,0,0.5,0c0.6,0,1.1,0.3,1.7,0.4
				c0.3,0.1,0.6,0.2,0.8,0.2c0.1,0,0.2,0.1,0.3,0c0.1,0,0.3,0,0.5-0.1c0.3-0.1,0.3,0,0.4,0.2c0.2,0.6,0.5,1.2,1,1.6
				c0.2,0.2,0.5,0.4,0.7,0.6c0.1,0.1,0.3,0,0.4,0c0,0,0.1,0,0.1,0c0.1,0,0.3,0,0.4,0c0.6-0.1,1.2-0.2,1.8-0.2c0.1,0,0.2,0,0.3,0
				c0.1,0.1,0.2,0.2,0.2,0.3c0.8,2.2,1.5,4.5,2.3,6.7c0.9,2.5,1.9,4.9,3.3,7.1c0.1,0.1,0.1,0.2,0.1,0.3c0.3,1.4,0.9,2.6,1.5,3.9
				c0.3,0.7,0.6,1.4,0.8,2.1c0.1,0.5,0.1,0.5-0.4,0.6c-0.1,0-0.2,0-0.3,0c-0.5,0-1,0-1.5,0c-0.5,0-0.9,0-1.4,0
				c-0.9,0-1.8,0.1-2.6,0.5c-0.3,0.1-0.4,0.1-0.4-0.2c0-0.3-0.1-0.4-0.4-0.2c-0.7,0.3-1.3,0.7-2.1,0.9c-0.8,0.3-1.6,0.4-2.4,0.4
				c-0.7,0-1.3,0-2,0c-0.5,0-1.1,0.2-1.6,0.4c-0.1,0-0.2,0-0.4,0c-0.2,0-0.4,0-0.7,0c-0.1,0-0.2,0-0.4,0c-0.5,0.1-1.1,0.2-1.6,0.3
				c-0.5,0.1-0.9,0.1-1.4,0.1c-0.2,0-0.3,0-0.4,0.1c-0.1,0.1-0.1,0.1-0.1,0.2c0,0.1,0.1,0.1,0.2,0.1c0.1,0,0.2,0,0.3,0
				c0.1,0,0.2,0,0.3,0c0.3,0,0.6,0,0.9,0c0.1,0,0.3,0,0.4,0c0.6-0.1,1.1-0.1,1.7-0.2c0.2,0,0.3,0,0.5,0.1c0.1,0.1,0.3,0.1,0.4,0.2
				c0.2,0.1,0.4,0.1,0.6,0c0.5-0.1,0.9-0.3,1.4-0.3c0.2,0,0.5,0,0.7,0c0.3,0,0.5,0.1,0.8,0.1c0.1,0,0.2,0,0.3,0c0.5,0,1,0,1.6-0.2
				c0.3-0.1,0.5-0.1,0.8-0.1c0.2,0,0.4,0,0.6,0c0.3,0,0.5,0,0.8,0c0.6,0,1.2,0,1.8,0c0.5,0,1,0,1.6,0c0.4,0.1,0.8,0,1.3,0
				c0.4,0,0.8,0,1.2,0c0.4,0.1,0.8,0,1.2,0c0.5,0,1,0,1.5,0c0.3,0,0.6,0,1,0c0.5,0,1.1,0,1.6,0c0.2,0.1,0.5,0,0.7,0
				c0.2,0,0.5,0,0.7,0c0.1,0,0.3,0,0.4,0c0.2,0,0.4-0.1,0.6-0.2c0.3-0.1,0.5-0.1,0.8-0.1c0.2,0,0.4,0,0.7,0c0.2,0,0.4,0,0.6,0
				c0.8,0,1.5,0,2.3,0c0.1,0,0.2,0,0.3,0c0.5,0,1,0,1.4,0c0.2,0,0.5,0,0.7,0c0.5-0.1,1-0.2,1.4-0.4c0.5-0.2,1.1-0.4,1.7-0.4
				c0.3,0,0.6,0,0.9,0c0.2,0,0.5,0,0.7,0c0.3,0.1,0.6,0.1,1,0c0.8,0,1.5,0,2.3,0c0.1,0,0.3,0.1,0.4,0c1.1,0.1,2.2,0.3,3.3,0.6
				c0.2,0.1,0.4,0.1,0.5,0c0.1-0.2-0.1-0.3-0.2-0.4c-0.1-0.1-0.3-0.2-0.4-0.2c-1.2-0.2-2.4-0.6-3.6-0.8c-0.1,0-0.2,0-0.3,0
				c-0.4,0-0.9,0-1.3,0c-0.2,0-0.5,0-0.7,0c-0.6,0-1.1,0-1.7,0c-0.1,0-0.1,0-0.2,0c-0.4-0.2-0.8-0.2-1.2-0.3c-0.1,0-0.3,0-0.4,0
				c-0.2,0-0.4,0-0.6,0c-0.6-0.1-1.2-0.1-1.8,0c-0.2,0-0.5,0-0.7,0c-0.1,0-0.3,0-0.4,0c-0.1,0-0.3,0-0.4,0c-0.1,0-0.2,0-0.3,0
				c-0.1,0-0.2,0-0.3,0c-0.1,0-0.2,0-0.3,0c-0.1,0-0.2,0-0.3,0c-0.1,0-0.2,0-0.3,0c-0.1,0-0.2,0-0.3,0c-0.1,0-0.2,0-0.3,0
				c-0.1,0-0.2,0-0.3,0c-0.1,0-0.2,0-0.3,0c-0.1,0-0.2,0-0.3,0c-0.1,0-0.2,0-0.3,0c-0.1,0-0.2,0-0.3,0c-0.1,0-0.2,0-0.3,0
				c-0.1,0-0.2,0-0.3,0c-0.1,0-0.3,0-0.4,0c-0.2,0-0.3,0-0.5,0c-0.2,0-0.3,0-0.5,0c-0.1-0.1-0.2-0.2-0.2-0.3c-1.2-3-2.5-6-3.6-9
				c-0.6-1.5-1-3.1-1.5-4.6c-0.1-0.3-0.1-0.4,0.2-0.5c0.5-0.3,1-0.5,1.6-0.6c1-0.3,1.9-0.6,2.8-1.1c0.6-0.4,1.3-0.8,2-1.1
				c1.3-0.6,2.7-1.3,4-1.9c1-0.4,1.9-1,2.9-1.5c0.5-0.3,1.1-0.5,1.7-0.8c0.2-0.1,0.4,0,0.4,0.2c0.4,1,1,1.9,1.1,3
				c0,0.1,0.1,0.3,0.2,0.4c0.6,0.6,0.9,1.4,1.1,2.2c0.2,0.7,0.5,1.3,0.8,2c0.7,1.4,1.3,2.8,2,4.1c0.5,0.9,1,1.7,1.6,2.5
				c0.2,0.2,0.3,0.3,0.6,0.3c0.6,0,1.2-0.1,1.8-0.3c0.5-0.2,0.9-0.6,1.1-1c0.1-0.1,0-0.2,0-0.3c0-0.1,0-0.3,0-0.4c0-0.1,0-0.2,0-0.3
				c-0.1-0.6-0.3-1.2-0.4-1.8c0-0.1-0.1-0.2-0.2-0.3c-0.1-0.1-0.2-0.3-0.3-0.5c-0.3-0.9-0.7-1.7-1.1-2.5c-0.5-1.1-1-2.3-1.5-3.4
				c-0.5-1.3-1-2.5-1.5-3.8c-0.1-0.2-0.1-0.3-0.2-0.5c0-0.3,0-0.5,0-0.8c-0.4-0.4-0.7-1-0.9-1.5c-0.3-0.8-0.5-1.6-0.8-2.4
				c-0.1-0.4-0.3-0.8-0.5-1.1c-0.1-0.2-0.2-0.3-0.1-0.5c0.1-0.2,0-0.4-0.2-0.6c-0.4-0.3-0.5-0.8-0.7-1.3c-0.2-0.6-0.3-1.1-0.4-1.7
				c0-0.1,0-0.2-0.1-0.3c-0.1-0.1-0.3,0-0.4-0.1c-0.1-0.1,0-0.2,0.1-0.2c0.1,0,0.1-0.1,0.2-0.1c0.9-0.4,1.5-1,2-1.9
				c0.1-0.1,0.1-0.3,0.1-0.4c-0.2-0.6-0.3-1.2-0.5-1.8c-0.2-0.6-0.5-1-1-1.3c-0.3-0.2-0.5-0.3-0.8-0.4c-0.2-0.1-0.4,0-0.6,0
				c-1.3,0.2-2.5,0.7-3.7,1.1c-1,0.4-2,0.9-3,1.3c-0.4,0.2-0.8,0.3-1.2,0.5c-0.2,0.1-0.4,0.2-0.5,0.4c0,0.1-0.1,0.2-0.2,0.2
				c-1.1,0.6-2.2,1.1-3.4,1.5c-0.3,0.1-0.4,0.1-0.6-0.2c-0.9-1.2-1.9-2.5-2.9-3.6c-0.9-1-1.8-1.9-2.8-2.8c-1.2-1.1-2.5-2-3.9-2.9
				c-0.1-0.1-0.2-0.1-0.2-0.2c-0.2-0.4-0.5-0.6-0.9-0.8c-0.4-0.2-0.7-0.4-0.9-0.8c-0.1-0.1-0.2-0.2-0.4-0.3c-1.2-0.6-2.4-1-3.6-1.5
				c-0.6-0.2-1.1-0.4-1.6-0.7c-0.7-0.4-1.4-0.7-2.2-1c-0.7-0.3-1.5-0.4-2.2-0.5c-0.1,0-0.2,0-0.3,0c-0.3,0-0.5-0.1-0.7-0.2
				c-0.2-0.1-0.3-0.3-0.4-0.5c-0.1-0.4-0.3-0.7-0.8-0.8c-0.2,0-0.3,0-0.5,0c-0.1,0-0.3,0-0.4,0c-0.1,0-0.2-0.1-0.2-0.2
				c0-0.6-0.2-1.3-0.3-1.9c0-0.2-0.1-0.4-0.1-0.6c0-0.3,0-0.5,0-0.8c-0.6-1.5-1.4-2.8-2.4-4.1c-0.3-0.4-0.8-0.8-1.2-1.1
				c-0.1-0.1-0.2-0.1-0.3-0.3c0-0.1,0-0.2,0.1-0.3c0.1-0.1,0.1-0.1,0.2-0.2c10.7-10.7,21.3-21.3,32-32
				C327.7,318.9,327.8,318.8,328,318.7z"/>
			<path class="st1" d="M300.2,360.3c0.4,0,0.8,0.1,1.1,0.3c0.1,0.1,0.1,0.2,0.2,0.3c0.1,0.6,0.4,0.9,1,0.9c0.1,0,0.2,0,0.3,0
				c1.1,0.1,2.1,0.4,3.1,0.9c1.7,0.9,3.5,1.6,5.3,2.3c0.5,0.2,1,0.4,1.4,0.7c0.1,0.1,0.2,0.1,0.3,0.2c0.2,0.4,0.5,0.5,0.8,0.7
				c0.4,0.2,0.8,0.5,1,0.9c0.1,0.2,0.5,0.3,0.7,0.5c0.9,0.6,1.8,1.2,2.6,1.9c0.7,0.6,1.4,1.2,2.1,1.9c0.8,0.8,1.5,1.6,2.2,2.4
				c0.8,0.9,1.5,1.9,2.2,2.9c0.1,0.2,0.2,0.2,0.4,0.1c0.8-0.2,1.5-0.6,2.3-0.9c0.3-0.2,0.7-0.3,1-0.5c0.2-0.1,0.4-0.2,0.5-0.5
				c0.1-0.2,0.3-0.2,0.4-0.2c1-0.3,1.9-0.8,2.9-1.2c1.5-0.6,3-1.2,4.5-1.6c0.2,0,0.4-0.1,0.6-0.1c0.2,0,0.4,0,0.6,0
				c0.3,0.1,0.6,0.3,0.9,0.5c0.5,0.3,0.8,0.7,0.9,1.3c0.2,0.6,0.3,1.2,0.5,1.8c0,0.1,0,0.2,0,0.2c-0.4,1-1.1,1.8-2.2,2.1
				c-0.1,0-0.3,0-0.2,0.2c0.2,0.1,0.4,0,0.5,0.1c0.1,0.6,0.3,1.2,0.5,1.9c0.1,0.5,0.3,0.9,0.6,1.3c0,0,0.1,0.1,0.1,0.1
				c0.3,0.3,0.3,0.3,0.2,0.7c0,0.1-0.1,0.1,0,0.2c0.6,0.9,0.8,1.9,1.1,2.8c0.2,0.7,0.4,1.3,0.8,1.9c0.1,0.2,0.2,0.3,0.4,0.4
				c0.1,0.3,0,0.6,0.1,0.9c0.2,0.7,0.5,1.3,0.7,2c0.6,1.7,1.3,3.3,2.1,5c0.4,0.9,0.9,1.9,1.3,2.8c0.1,0.2,0.1,0.6,0.3,0.7
				c0.4,0.3,0.4,0.8,0.5,1.2c0.1,0.4,0.2,0.7,0.3,1.1c0,0.1,0,0.2,0,0.3c0,0.1,0,0.3,0,0.4c-0.1,0.1,0,0.2,0,0.3
				c-0.6,1-1.5,1.4-2.6,1.4c-0.2,0-0.3,0-0.5,0c-0.2,0-0.3-0.1-0.4-0.2c-0.4-0.5-0.8-1-1.1-1.6c-0.5-0.8-0.9-1.6-1.3-2.4
				c-0.5-1-0.9-2-1.4-3c-0.3-0.6-0.5-1.2-0.7-1.8c-0.3-0.8-0.6-1.5-1.1-2.1c-0.2-0.2-0.2-0.4-0.2-0.5c-0.1-0.6-0.3-1.2-0.5-1.7
				c-0.2-0.4-0.4-0.8-0.5-1.2c-0.1-0.2-0.2-0.2-0.4-0.1c-1.4,0.5-2.6,1.3-4,2c-1.6,0.8-3.3,1.5-4.9,2.3c-0.8,0.4-1.6,0.9-2.4,1.3
				c-0.7,0.4-1.5,0.6-2.2,0.8c-0.5,0.2-1,0.3-1.5,0.6c-0.2,0.1-0.2,0.2-0.1,0.4c0.4,1.4,0.9,2.9,1.4,4.3c0.9,2.5,1.9,4.9,2.8,7.3
				c0.3,0.8,0.6,1.5,0.9,2.3c0,0,0,0.1,0.1,0.1c0.2,0.1,0.3,0,0.5,0c0.2,0,0.3,0,0.5,0c0.1,0,0.3,0,0.4,0c0.1,0,0.2,0,0.3,0
				c0.1,0,0.2,0,0.3,0c0.1,0,0.2,0,0.3,0c0.1,0,0.2,0,0.3,0c0.1,0,0.2,0,0.3,0c0.1,0,0.2,0,0.3,0c0.1,0,0.2,0,0.3,0
				c0.1,0,0.2,0,0.3,0c0.1,0,0.2,0,0.3,0c0.1,0,0.2,0,0.3,0c0.1,0,0.2,0,0.3,0c0.1,0,0.2,0,0.3,0c0.1,0,0.2,0,0.3,0
				c0.1,0,0.2,0,0.4,0c0.1,0,0.3,0,0.4,0c0.1,0,0.3,0,0.4,0c0.2,0,0.5,0,0.7,0c0.6,0,1.2,0,1.8,0c0.2,0,0.4,0,0.6,0
				c0.1,0.1,0.3,0,0.4,0c0.4,0.1,0.8,0.1,1.2,0.3c0.4,0.2,0.8,0.1,1.3,0.1c0.2,0,0.4,0,0.6,0c0.2-0.1,0.5,0,0.7,0c0.4,0,0.9,0,1.3,0
				c0.1,0,0.2,0,0.3,0c0.8,0.1,1.6,0.4,2.4,0.6c0.4,0.1,0.8,0.2,1.2,0.3c0.3,0.1,0.5,0.2,0.6,0.4c0.1,0.2,0.1,0.4-0.2,0.4
				c-0.1,0-0.3,0-0.4-0.1c-0.4-0.2-0.9-0.2-1.4-0.4c-0.4-0.1-0.8-0.1-1.1-0.2c-0.2,0-0.4,0-0.6-0.1c-0.1-0.1-0.3,0-0.4,0
				c-0.8-0.1-1.6,0-2.3,0c-0.3,0-0.6,0-0.9,0c-0.3,0-0.5,0-0.8,0c-0.3,0.1-0.6,0-0.9,0c-0.7,0-1.4,0.2-2,0.5
				c-0.3,0.2-0.7,0.2-1.1,0.2c-0.2,0.1-0.5,0-0.7,0c-0.5,0-1,0-1.4,0c-0.8,0-1.5,0-2.3,0c-0.1,0-0.2,0-0.3,0c-0.2,0-0.4,0-0.6,0
				c-0.2,0.1-0.5,0-0.7,0c-0.2,0-0.5,0-0.7,0.1c-0.2,0.1-0.4,0.2-0.7,0.2c-0.1,0-0.3,0-0.4,0c-0.2,0-0.5,0-0.7,0
				c-0.2-0.1-0.5,0-0.7,0c-0.5,0-1.1,0-1.6,0c-0.3,0.1-0.6,0-0.9,0c-0.5,0-1,0-1.5,0c-0.4-0.1-0.8,0-1.2,0c-0.4,0-0.8,0-1.2,0
				c-0.3-0.1-0.7,0-1,0c-0.1,0-0.2,0-0.3,0c-0.5,0-1,0-1.5,0c-0.6,0-1.2,0-1.8,0c-0.3,0-0.5,0-0.8,0c-0.2,0-0.4,0-0.6,0
				c-0.5,0-0.9,0.2-1.4,0.2c-0.3,0.1-0.6,0-1,0c-0.1,0-0.2,0-0.3,0c-0.3,0-0.5,0-0.8-0.1c-0.3,0-0.5,0-0.8,0c-0.4,0-0.7,0.1-1.1,0.2
				c-0.1,0-0.2,0-0.3,0.1c-0.2,0-0.4,0-0.5,0c-0.2-0.1-0.4-0.1-0.5-0.2c-0.1-0.1-0.2-0.1-0.4-0.1c-0.6,0.1-1.2,0.2-1.7,0.2
				c-0.1,0-0.3,0-0.4,0c-0.3,0-0.6,0-0.9,0c-0.1,0-0.2,0-0.3,0c-0.2,0-0.3-0.1-0.5-0.1c-0.1,0-0.1,0-0.1-0.2
				c0.1-0.3,0.2-0.4,0.5-0.4c1.1,0.1,2.1-0.3,3.2-0.5c0.1,0,0.2,0,0.3,0c0.2,0,0.4,0,0.7,0c0.1,0,0.2,0,0.3,0c0.5-0.3,1-0.4,1.5-0.4
				c0.6,0,1.2,0,1.8,0c0.1,0,0.2,0,0.3,0c1,0,1.9-0.2,2.8-0.6c0.6-0.2,1.1-0.5,1.6-0.7c0.1,0,0.2,0,0.2-0.1c0.1,0,0.2,0,0.2,0.2
				c0,0,0,0.1,0,0.1c0,0.5,0,0.5,0.4,0.3c0.7-0.3,1.4-0.4,2.1-0.5c0.6,0,1.2,0,1.7,0c0.6,0,1.1,0,1.7,0c0.7,0,0.7,0,0.5-0.6
				c-0.4-1.1-0.9-2.2-1.4-3.3c-0.4-0.8-0.7-1.7-0.9-2.6c-0.1-0.3-0.3-0.5-0.4-0.8c-0.6-1-1-2-1.5-3c-0.5-1-0.9-2-1.3-3
				c-0.3-0.7-0.5-1.4-0.8-2.1c-0.4-1.2-0.8-2.4-1.3-3.6c-0.2-0.6-0.4-1.2-0.6-1.7c-0.1,0-0.2,0-0.3,0c-0.6,0-1.2,0.2-1.8,0.2
				c-0.2,0-0.3,0-0.5,0c0,0,0,0-0.1,0c-0.1-0.1-0.3,0-0.5,0c-0.5-0.3-1-0.8-1.4-1.3c-0.2-0.3-0.3-0.6-0.4-1c0-0.1-0.1-0.2-0.2-0.1
				c-0.2,0.1-0.4,0.1-0.6,0.1c-0.1,0-0.2,0-0.3,0c-0.6,0-1.2-0.3-1.8-0.5c-0.2-0.1-0.5-0.1-0.7-0.1c-0.2-0.1-0.4,0-0.6,0
				c-0.2,0-0.5,0-0.7,0c-0.1,0-0.2,0-0.3,0c-0.6-0.1-1.1-0.2-1.6-0.4c-0.8-0.2-1.5-0.5-2.3-0.7c-0.1,0-0.3-0.1-0.4-0.1
				c-0.1,0-0.2,0-0.3,0c-0.6-0.1-1.3,0.1-1.8,0.4c-0.2,0.1-0.4,0.2-0.6,0.1c-0.1,0-0.2,0-0.3,0c-0.1,0-0.2,0-0.3,0
				c-0.3-0.1-0.6,0-0.9,0c-0.1,0-0.3,0-0.4,0c-0.3,0.1-0.6,0-0.8,0c-0.3,0-0.6,0-0.9,0c-0.4,0.1-0.8,0-1.2,0c0,0-0.1,0-0.1,0
				c-0.3-0.1-0.6,0-0.9,0c-0.8,0-1.5-0.1-2.3-0.3c-0.2-0.1-0.3-0.2-0.5-0.3c-0.4-0.2-0.9-0.3-1.4-0.4c-1.1-0.2-2.2-0.4-3.2-0.9
				c-0.8-0.5-1.7-0.8-2.5-1.3c-0.3-0.2-0.6-0.4-0.8-0.7c-0.1-0.2-0.2-0.2-0.3,0c-0.1,0.3-0.3,0.3-0.5,0.2c-0.4-0.1-0.9-0.1-1.3,0
				c-0.4,0.1-0.8,0.1-1.2,0.2c-0.2,0-0.4,0-0.6,0c-0.1,0-0.3,0-0.4-0.1c0.4,0.5,0.6,1,0.5,1.6c0,0.1-0.1,0.2,0,0.2
				c0.3-0.1,0.4-0.3,0.5-0.6c0.1-0.2,0.2-0.4,0.3-0.6c0.1-0.2,0.4-0.2,0.6-0.2c0.1,0,0.2,0.2,0.3,0.3c0,0.1,0,0.2-0.1,0.3
				c-0.1,0.2-0.2,0.3-0.3,0.5c-0.1,0.2-0.1,0.4,0.1,0.5c0.2,0.1,0.3,0.3,0.5,0.4c0.3,0.2,0.5,0.4,0.7,0.7c0,0.4,0,0.8,0,1.1
				c0,0.1,0,0.2,0,0.3c0.3,0.4,0.7,0.8,1,1.1c0.8,0.7,1.7,1.4,2.3,2.3c0.4,0.6,0.6,1.3,0.8,2c0.2,0.7,0.4,1.4,0.6,2
				c0.2,0.3,0.3,0.7,0.6,0.9c0.3,0.3,0.6,0.5,0.8,0.9c0.1,0.1,0.2,0.3,0.2,0.4c0,0.3,0.1,0.4,0.4,0.4c0.7,0.1,1.4,0.3,2.1,0.2
				c0.1,0,0.1,0,0.2,0c0.4-0.1,0.4-0.1,0.6,0.3c0,0,0,0.1,0.1,0.1c0,0.2,0,0.4,0,0.5c-0.1,0.2-0.1,0.3,0.2,0.3
				c0.4,0,0.8,0.3,1.2,0.4c0.1,0,0,0.1,0,0.2c-0.2,0.4-0.1,0.8,0.2,1.2c0.1,0.2,0.2,0.3,0.3,0.5c0.2,0.6,0.1,0.5-0.4,0.7
				c-0.2,0.1-0.5,0.1-0.8,0.2c-0.2,0.1-0.4,0.1-0.4,0.3c0,0.2,0.1,0.4,0.3,0.6c0.2,0.1,0.4,0.2,0.5,0.4c0.1,0.2,0.1,0.3,0,0.5
				c-0.4,0.3-0.3,0.8-0.3,1.2c0,0.2,0.1,0.3,0.1,0.4c0.1,0.4,0,0.6-0.4,0.8c-0.2,0.1-0.3,0.1-0.5,0.2c-0.2,0.1-0.4,0.2-0.6,0.4
				c-0.1,0.1-0.2,0.1-0.2,0.1c-1.2,0.1-2.2,0.6-3.3,1c-0.8,0.4-1.6,0.7-2.5,1c-0.2,0.1-0.4,0-0.5-0.3c-0.1-0.2-0.2-0.3-0.4-0.3
				c-1.3,0.2-2.3,0.8-3.2,1.8c-0.4,0.5-0.9,1-1.3,1.5c0,0.1-0.1,0.1-0.1,0.2c0.1,0.1,0.1,0,0.2,0c1.1-0.2,2.2-0.5,3.3-0.6
				c0.8-0.1,1.6-0.2,2.4-0.3c0.1,0,0.2,0,0.3,0c0.1,0,0.2,0,0.3,0c0.1,0,0.2,0,0.3,0c0.1,0,0.2,0,0.3,0c0.1,0,0.2,0,0.3,0
				c0.1,0,0.2,0,0.3,0c0.2,0,0.3,0,0.5,0c0.2,0,0.4,0,0.6,0c0.2,0,0.3,0,0.5,0c0.2,0,0.4,0,0.6,0c0.3-0.1,0.7,0,1,0c0.7,0,1.3,0,2,0
				c0.7,0,1.5,0,2.2,0c0.3,0.1,0.6,0,1,0c0.2,0,0.5,0,0.7,0c0.2,0,0.3,0,0.5,0.2c0.2,0.3,0.5,0.3,0.8,0.3c0.1,0,0.2,0,0.4,0
				c0.1,0,0.2,0,0.3,0c0.2,0,0.4,0,0.6,0.1c0.2,0,0.3,0.1,0.3,0.3c0,0.2-0.1,0.3-0.3,0.3c-0.4,0.1-0.7,0.1-1.1,0.2
				c-0.1,0-0.2,0-0.3,0c-0.1,0-0.2,0-0.4,0c-0.1,0-0.3,0-0.4,0c-0.4,0-0.7,0-1.1,0c-0.3,0.1-0.6,0-1,0c-0.3,0-0.6,0-0.9,0
				c-0.1,0-0.2,0-0.3,0c-0.7,0-1.4,0.2-2.1,0.3c-1,0.2-2.1,0.4-3.1,0.5c-0.1,0-0.2,0-0.4,0.1c-0.1,0-0.2,0-0.3,0c-0.1,0-0.2,0-0.4,0
				c-0.2,0-0.3,0-0.5,0c-0.2,0-0.3,0-0.5,0c-0.2,0.1-0.4,0-0.6,0c-0.2,0-0.5,0-0.7,0c-0.2,0.1-0.4,0-0.7,0c-0.1,0-0.3,0-0.4,0
				c-0.1,0-0.2,0-0.3,0c-0.6,0-1.3,0.1-1.9,0.3c-0.2,0.1-0.4,0-0.4-0.2c-0.2-0.4-0.5-0.4-0.9-0.3c-0.4,0.1-0.8,0-1.2,0
				c-0.5-0.1-1,0-1.5,0.3c-0.4,0.2-0.8,0.2-1.2,0.1c-1.1-0.2-2.1-0.2-3.2-0.2c-2.6-0.1-5.2-0.2-7.8-0.2c-1.2,0-2.4,0.1-3.6,0.1
				c-0.2,0-0.2,0-0.3-0.2c-0.3-0.5-0.3-1-0.3-1.5c0-0.1,0-0.1,0.1-0.1c0.3-0.3,0.7-0.5,1.1-0.5c0.1,0,0.2,0,0.2-0.2
				c0-0.9,0.6-1.6,1.3-2c0.1-0.1,0.3-0.1,0.4-0.2c0.3-0.1,0.4-0.3,0.4-0.5c0.2-1.4,0.9-2.3,2.1-3c1.1-0.6,2.2-0.8,3.4-1
				c1.7-0.3,3.4-0.4,5.1-0.9c0.3-0.1,0.6-0.2,0.9-0.3c-0.2,0-0.3,0-0.5,0c-0.3,0.1-0.5,0-0.5-0.4c-0.1-0.4-0.2-0.7-0.4-1.1
				c-0.2-0.4-0.3-0.8-0.4-1.3c0-0.1,0-0.2-0.1-0.3c-0.8-1.3-1.2-2.8-1.8-4.2c-0.1-0.4-0.3-0.8-0.5-1.2c-0.2-0.5-0.5-0.9-0.8-1.4
				c-0.9-1.4-1.7-2.9-2.4-4.4c-0.7-1.6-1.3-3.2-2.1-4.7c-0.6-1.1-1.2-2.2-1.8-3.4c-0.5-1.1-1.1-2.1-1.4-3.3
				c-0.1-0.7-0.3-1.4-0.1-2.1c0.3-1.1,0.8-2,1.5-2.9c0.4-0.4,0.9-0.6,1.5-0.7c0.5-0.1,1.1,0,1.6,0c0.1-0.9,0.1-1.7,0-2.6
				c0-0.1,0-0.2,0-0.3c0-0.1,0-0.2,0.2-0.1c0.3,0.1,0.5,0,0.8-0.2c0.3-0.2,0.6-0.3,1-0.3c1.7,0.1,3.5,0.2,5.2,0.4
				c2.3,0.2,4.5,0.5,6.8,0.8c2.9,0.5,5.8,1,8.7,1.6c0.9,0.2,1.7,0.3,2.6,0.5c-0.4-0.6-0.9-1-1.5-1.4c-1.2-0.9-2.7-1.4-4.1-1.9
				c-0.5-0.2-1-0.3-1.5-0.5c-0.2-0.1-0.3,0-0.3,0.2c0,0.3-0.1,0.3-0.3,0.2c-0.9-0.6-2-0.6-3-0.7c-0.8-0.1-1.6-0.1-2.4-0.3
				c-0.5-0.1-0.9-0.4-1.3-0.5c-0.1,0-0.2-0.1-0.3-0.1c-0.8,0.1-1.5-0.2-2.3-0.5c-1.1-0.4-2.2-0.8-3.4-1.2c-0.5-0.1-1-0.1-1.5-0.2
				c-0.4,0-0.7-0.1-1-0.4c-0.5-0.4-1-0.4-1.5-0.2c-0.3,0.1-0.7,0.3-1,0.5c-0.1,0.1-0.2,0.1-0.4,0.1c-0.4,0-0.7,0.3-1.1,0.4
				c-2.2,1.2-4.5,2.1-6.9,2.7c-1.9,0.5-3.8,0.7-5.7,0.9c-2.4,0.2-4.7,0.1-7.1,0.1c-1.3,0-2.6,0-3.9,0.3c-0.4,0.1-0.7,0.3-1.1,0.4
				c-0.3,0.1-0.6,0.2-0.9,0.2c-0.4-0.1-0.5-0.2-0.5-0.6c0-0.1,0-0.3,0-0.4c0-0.6,0-1.3-0.1-1.9c-0.1-0.6,0-1.3,0.2-1.9
				c0.3-1.1,0.5-2.2,0.9-3.3c0.2-0.4,0.4-0.9,0.6-1.3c1.8-2.9,3.1-6,4.3-9.1c0.6-1.6,1.2-3.3,2-4.9c0.4-0.9,0.9-1.7,1.4-2.6
				c0-0.1,0.1-0.1,0.2-0.2c1-0.6,2.1-1.3,3.3-1.6c0.5-0.1,0.8-0.4,1-0.8c0.4-0.8,0.9-1.5,1.1-2.4c0.3-0.8,0.4-1.7-0.1-2.5
				c-0.2-0.3-0.4-0.5-0.6-0.8c0,0-0.1-0.1-0.1-0.1c-0.5,0.1-1.1-0.1-1.6-0.2c-0.8-0.2-1.6-0.1-2.4,0c-1.2,0.1-2.3,0.1-3.4-0.2
				c-0.5-0.1-0.9-0.1-1.4-0.1c-0.3,0-0.6,0.1-0.9,0.3c-0.8,0.6-1.6,0.7-2.5,0.6c-0.5,0-1,0-1.5,0c-0.1,0-0.3,0-0.4-0.1
				c-1.2-0.9-2-2.2-2.4-3.6c-0.2-0.6-0.3-1.1-0.3-1.7c0,0,0-0.1-0.1-0.1c0-0.1,0-0.2,0-0.3c0-0.1,0-0.3,0-0.4c0-0.2,0-0.5,0-0.7
				c0-0.1,0-0.3,0-0.4c0-0.1,0-0.1,0-0.2c0.1-0.1,0-0.2,0-0.4c0-0.7,0.3-1.3,0.7-1.9c0.8-1.2,1.7-2.1,3-2.7c1.1-0.5,2.2-0.7,3.3-0.4
				c0.6,0.1,1,0.4,1.5,0.7c0.4,0.2,0.7,0.4,1.1,0.6c0.2,0.1,0.4,0.2,0.5,0.4c0.2,0.3,0.5,0.6,1,0.6c0.3,0,0.4-0.1,0.5-0.4
				c0.1-0.3,0.1-0.5,0.2-0.8c0.1-0.2,0.2-0.4,0.3-0.5c0.4-0.3,0.7-0.7,1.1-1.1c0.6-0.7,1.4-1,2.3-1.1c1.7-0.2,3.2,0.5,4.6,1.4
				c0.2,0.1,0.3,0.3,0.3,0.5c0,0.2,0.1,0.3,0.3,0.3c1.1,0.1,2.2,0.2,3.3,0.3c0.3,0,0.6,0.1,1,0.2c0.1,0,0.2,0,0.2,0.1
				c0,0.1-0.1,0.1-0.1,0.2c-0.2,0.1-0.4,0.1-0.5,0.1c-0.3,0-0.6,0-1-0.1c-0.2,0-0.4,0-0.6,0c-0.1,0-0.2,0-0.3,0.1
				c-0.2,0.1-0.1,0.2,0,0.3c0.1,0.1,0.3,0.1,0.4,0.1c0.2,0,0.4-0.1,0.6-0.2c0.4-0.2,0.9-0.2,1.3,0.1c0.3,0.2,0.6,0.4,0.9,0.5
				c0.3,0.1,0.5,0.1,0.8,0.1c0.1,0,0.3,0,0.4,0.1c0.7,0.6,1.5,1.1,2.2,1.8c0.5,0.5,0.8,1.1,0.9,1.8c0,0.1,0,0.2-0.1,0.2
				c-0.1,0.1-0.2,0-0.3,0c-0.3-0.2-0.6-0.5-0.8-0.7c-0.4-0.5-0.7-1-1.1-1.4c-0.2-0.2-0.4-0.4-0.6-0.6c-0.7-0.5-1.4-0.4-2,0.3
				c-0.4,0.4-0.6,0.9-1,1.4c-0.3,0.4-0.7,0.7-1.2,0.9c0,0-0.1,0-0.1,0c-0.1,0-0.2,0-0.3,0c-0.1-0.1,0-0.2,0-0.3
				c0.2-0.6,0.6-1,1.1-1.4c0.4-0.3,0.7-0.7,1-1.1c0.1-0.1,0.2-0.3,0-0.5c-0.2-0.2-0.4-0.3-0.6-0.2c-0.1,0.1-0.3,0.2-0.3,0.3
				c-0.5,0.7-1,1.3-1.6,1.8c-0.4,0.3-0.7,0.6-1.2,0.8c-0.3,0.2-0.6,0.3-0.8,0.6c-0.1,0.1-0.1,0.1-0.2,0.2c-0.2,0.1-0.3,0-0.4-0.1
				c-0.1-0.1,0-0.2,0-0.3c0.3-0.5,0.6-0.8,1-1.1c0.5-0.4,1-0.8,1.4-1.3c0.1-0.2,0.3-0.3,0.4-0.5c-0.2,0.1-0.4,0.2-0.5,0.3
				c-0.2,0.2-0.5,0.4-0.6,0.7c-0.4,0.6-1.1,0.9-1.6,1.4c-0.3,0.2-0.5,0.4-0.7,0.7c-0.1,0.1-0.2,0.2-0.4,0.2
				c-0.9,0.1-1.6,0.6-2.2,1.2c-0.3,0.3-0.4,0.6-0.4,1.1c0,0.9,0.4,1.7,0.9,2.5c0.5,0.7,1,1.3,1.5,2c0.2,0.4,0.5,0.8,0.6,1.2
				c0.3,0.8,0.3,1.5-0.1,2.2c-0.2,0.5-0.5,0.9-0.8,1.3c-0.1,0.2-0.3,0.4-0.4,0.7c-0.1,0.2-0.1,0.2,0.2,0.2c0.3,0,0.7-0.1,1-0.1
				c0.6-0.1,1.2-0.3,1.8-0.3c0.1,0,0.3,0,0.4,0c0.2,0.1,0.4-0.1,0.5-0.2c0.3-0.4,0.5-0.9,0.6-1.4c0.1-0.5,0.2-0.9,0.4-1.4
				c0.1-0.3,0.3-0.6,0.6-0.7c0.4-0.2,0.9-0.4,1.4-0.5c0.4-0.1,0.8-0.3,1.2-0.4c0.4-0.2,0.8-0.5,1-0.8c0.1-0.2,0.1-0.2-0.1-0.2
				c-0.6,0-1.1,0-1.7-0.1c-0.4-0.1-0.7-0.2-1-0.4c-0.3-0.2-0.6-0.5-0.6-0.9c-0.1-0.9-0.1-1.7,0.2-2.6c0.4-1,1-1.7,1.9-2.3
				c0.4-0.3,0.8-0.5,1.2-0.8c0.2-0.1,0.4-0.1,0.6,0c0.9,0.6,1.9,1,2.8,1.7c0.1,0.1,0.2,0.1,0.4,0.1c1.5,0,2.9,0.2,4.4,0.4
				c0.9,0.1,1.7,0.2,2.6,0.2c0.3,0,0.3,0,0.4-0.4c0.1-0.2,0-0.3-0.2-0.4c-0.3-0.1-0.6-0.2-0.9-0.2c-0.6-0.1-1.3-0.2-1.9-0.1
				c-0.1,0-0.3,0-0.4,0c-0.3-0.1-0.5-0.3-0.4-0.5c0-0.2,0.2-0.4,0.5-0.5c0.2,0,0.3,0,0.5,0c0.2,0.1,0.5,0.1,0.7,0.2
				c0.4,0.1,0.8,0.2,1.2,0.2c0.4,0,0.8-0.1,1.2,0.1c0.1,0.1,0.2,0,0.2-0.1c0.1-0.2,0.3-0.5,0.4-0.7c0.8-1.2,1.8-2.1,3-2.9
				c1.5-1,3.1-1.5,4.9-1.7c2.6-0.3,5.2,0.1,7.6,1.1c1.5,0.6,2.9,1.5,4,2.8c1,1.2,1.7,2.5,2,4c0.2,1,0.2,2.1-0.1,3.1
				c-0.2,0.7-0.5,1.4-0.9,2c-0.5,0.8-1,1.7-1.7,2.3c-0.3,0.3-0.6,0.4-0.9,0.6c-0.4,0.3-0.8,0.5-1.1,0.8c-0.1,0.1-0.2,0.3-0.2,0.5
				c0.2,1.2,0.2,2.5-0.3,3.7c-0.3,0.7-0.8,1.4-1.5,1.8c-0.2,0.2-0.2,0.2,0,0.3c0.4,0.3,0.7,0.5,1.1,0.8c0.3,0.3,0.6,0.7,0.7,1.2
				c0.1,0.8,0.6,1.2,1.3,1.4c0.6,0.2,1.1,0.3,1.7,0.4c0.8,0.1,1.5,0.4,2.1,0.9c0.3,0.2,0.6,0.4,0.9,0.6c0.1,0.1,0.2,0.1,0.2,0.2
				c0.2,0.2,0.5,0.4,0.7,0.6c0.9,0.7,1.5,1.8,2.1,2.8c0.4,0.7,0.7,1.4,1,2.1c0.1,0.3,0,0.6,0,0.9c0,0.6,0.2,1.1,0.3,1.7
				c0,0.3,0.1,0.5,0.1,0.8c0,0.1-0.1,0.2,0.1,0.2C299.9,360.4,300,360.4,300.2,360.3z"/>
			<path class="st2" d="M295.3,351.4c-0.3-0.2-0.7-0.5-1-0.7c-0.7-0.5-1.4-0.8-2.3-1c-0.7-0.1-1.3-0.2-2-0.5
				c-0.5-0.2-0.8-0.5-0.9-1.1c-0.1-0.9-0.6-1.5-1.4-1.9c-0.2-0.1-0.5-0.3-0.7-0.5c1.8-1.1,2.2-2.7,2.2-4.6c0-0.4,0-0.8-0.1-1.2
				c0-0.1,0-0.2,0.1-0.3c0.3-0.3,0.6-0.5,0.9-0.7c1.4-0.7,2.2-1.9,2.9-3.2c0.4-0.8,0.8-1.6,1-2.6c0.3-2.3-0.2-4.4-1.7-6.3
				c-0.9-1.1-2-1.9-3.2-2.6c-1.7-0.9-3.4-1.4-5.3-1.6c-2.6-0.3-5.1,0.1-7.4,1.3c-1.8,0.9-3.2,2.3-4.2,4.1c-0.1,0.2-0.2,0.3-0.3,0.1
				c-0.1-0.1-0.3-0.1-0.5-0.1c-0.8,0.1-1.6-0.1-2.3-0.4c-0.2-0.1-0.4-0.1-0.6-0.1c-0.2,0-0.4,0.2-0.4,0.4c0,0.2,0.2,0.4,0.4,0.4
				c0.1,0,0.3,0,0.5,0c0.9-0.1,1.7,0,2.5,0.3c0.1,0,0.2,0.1,0.3,0.2c0.2,0.1,0.2,0.2,0.1,0.4c-0.1,0.1-0.2,0.3-0.1,0.4
				c0,0.1-0.1,0.1-0.1,0.1c-0.8,0-1.6-0.1-2.4-0.1c-1.6-0.2-3.2-0.4-4.9-0.4c-0.2,0-0.3,0-0.4-0.2c-0.4-0.4-0.9-0.6-1.4-0.9
				c-0.5-0.3-1-0.5-1.4-0.8c-0.1,0-0.2-0.1-0.3,0c-1,0.6-1.9,1.2-2.6,2.1c-0.7,0.9-0.9,1.9-0.9,3.1c0,0.1,0,0.2,0,0.4
				c0,0.9,0.6,1.2,1.2,1.3c0.6,0.2,1.3,0.2,2,0.2c0.2,0,0.3,0,0.5,0c-0.1,0.4-0.4,0.7-0.7,1c-0.4,0.3-0.9,0.4-1.4,0.6
				c-0.5,0.1-0.9,0.3-1.4,0.5c-0.4,0.2-0.7,0.5-0.8,0.9c-0.2,0.7-0.3,1.4-0.6,2.1c-0.1,0.2-0.2,0.4-0.3,0.5
				c-0.2,0.3-0.3,0.4-0.7,0.4c-0.7-0.1-1.4,0.2-2.1,0.3c-0.4,0.1-0.8,0.2-1.2,0.1c-0.2,0-0.2-0.1-0.1-0.2c0.3-0.6,0.8-1.2,1.1-1.8
				c0.6-1,0.6-1.9,0-2.9c-0.5-0.9-1.1-1.7-1.8-2.6c-0.6-0.8-1-1.7-1.1-2.8c0-0.4,0.1-0.7,0.4-0.9c0.6-0.6,1.2-1.1,2-1.2
				c0.4-0.1,0.7-0.2,1-0.6c0.3-0.3,0.8-0.6,1.1-0.9c0.4-0.3,0.7-0.6,1-1c0.3-0.3,0.5-0.6,0.9-0.8c0.1-0.1,0.2-0.1,0.4-0.1
				c-0.2,0.4-0.5,0.7-0.8,1c-0.5,0.4-1,0.9-1.5,1.3c-0.3,0.2-0.5,0.5-0.7,0.8c0,0.1-0.1,0.1,0,0.2c0.1,0.1,0.2,0.2,0.3,0.1
				c0.1,0,0.2-0.1,0.3-0.2c0.1-0.2,0.3-0.3,0.5-0.5c1.1-0.6,2.1-1.5,2.8-2.6c0.1-0.1,0.1-0.2,0.2-0.3c0.4-0.4,0.7-0.4,1.1,0
				c0.1,0.1,0.1,0.2,0,0.3c-0.2,0.5-0.6,0.9-1,1.3c-0.4,0.3-0.7,0.7-1,1.1c-0.1,0.2-0.2,0.4-0.2,0.6c0.5,0,0.9-0.2,1.2-0.5
				c0.4-0.4,0.7-0.8,1-1.3c0.1-0.2,0.2-0.3,0.3-0.5c0.7-0.8,1.6-0.9,2.3-0.1c0.6,0.6,1,1.2,1.5,1.8c0.4,0.4,0.6,0.7,1,0.8
				c0-0.6-0.2-1.1-0.6-1.6c-0.5-0.6-1.1-1.1-1.8-1.6c-0.1-0.1-0.2-0.2-0.3-0.3c-0.3-0.2-0.5-0.5-0.9-0.3c-0.2,0.1-0.5-0.1-0.7-0.2
				c-0.2-0.1-0.4-0.2-0.7-0.4c-0.4-0.2-0.9-0.3-1.3-0.1c-0.3,0.1-0.6,0.3-1,0.2c-0.1,0-0.3-0.1-0.3-0.2c0-0.2,0.2-0.3,0.3-0.3
				c0.3-0.1,0.6-0.1,0.9,0c0.4,0,0.8,0.1,1.2,0.1c0.2,0,0.3-0.1,0.4-0.3c-0.8-0.2-1.6-0.3-2.4-0.4c-0.7-0.1-1.5-0.1-2.2-0.2
				c-0.2,0-0.2-0.1-0.2-0.2c0-0.3-0.1-0.5-0.3-0.6c-1-0.7-2-1.1-3.2-1.3c-1.3-0.2-2.5,0-3.4,0.9c-0.3,0.3-0.5,0.6-0.8,0.9
				c-0.1,0.1-0.2,0.2-0.3,0.3c-0.4,0.2-0.4,0.5-0.5,0.9c0,0.1,0,0.2-0.1,0.3c-0.2,0.6-0.8,0.8-1.3,0.4c-0.1-0.1-0.2-0.1-0.2-0.2
				c-0.2-0.4-0.5-0.5-0.9-0.7c-0.5-0.3-1-0.6-1.4-0.8c-1.4-0.7-2.7-0.6-4.1,0.1c-1.7,0.8-2.8,2.1-3.6,3.7c-0.2,0.3-0.1,0.7-0.2,1.1
				c0,0.1,0,0.1-0.1,0.2c0-3,0-6,0-9c0-0.2,0-0.2,0.2-0.2c31.2,0,62.5,0,93.7,0c-0.1,0.1-0.2,0.2-0.2,0.3
				c-10.7,10.7-21.5,21.5-32.2,32.2C295.4,351.2,295.3,351.3,295.3,351.4z"/>
			<path class="st3" d="M234,329.2c0.1,0.1,0.1,0.3,0,0.4C234,329.5,234,329.3,234,329.2z"/>
			<path class="st4" d="M234,328.1c0.1,0.1,0.1,0.3,0,0.4C234,328.4,234,328.2,234,328.1z"/>
			<path class="st2" d="M329,412.4c0.5-0.1,1,0,1.5,0c0.4,0,0.8,0,1.2,0c0,0.1-0.1,0-0.2,0C330.6,412.4,329.8,412.4,329,412.4z"/>
			<path class="st5" d="M346.4,403.8c0-0.1,0.1-0.1,0.1-0.2c0-0.1-0.1-0.2,0.1-0.2c0.1,0,0.2,0,0.2,0.1c0,0.1,0.1,0.2,0,0.3
				C346.6,403.9,346.5,403.9,346.4,403.8z"/>
			<path class="st2" d="M309.7,411.6c-0.7,0.1-1.4,0-2.1,0c0.1-0.1,0.2,0,0.3,0C308.5,411.6,309.1,411.6,309.7,411.6z"/>
			<path class="st2" d="M335.3,410.2c-0.6,0-1.2,0-1.8,0c0.2-0.1,0.4,0,0.7,0C334.5,410.2,334.9,410.1,335.3,410.2z"/>
			<path class="st2" d="M313.3,412.7c0.6-0.1,1.2-0.1,1.8,0C314.6,412.7,314,412.7,313.3,412.7z"/>
			<path class="st2" d="M320.6,410.2c-0.6,0.1-1.1,0.1-1.7,0C319.4,410.2,320,410.2,320.6,410.2z"/>
			<path class="st2" d="M278.3,386.8c-0.1-0.5,0-0.9,0-1.4C278.4,385.9,278.3,386.3,278.3,386.8z"/>
			<path class="st2" d="M316.7,412.7c0.4,0,0.9,0,1.3,0C317.6,412.7,317.2,412.8,316.7,412.7z"/>
			<path class="st2" d="M291.2,385.8c0.4-0.1,0.8,0,1.2,0C292,385.9,291.6,385.8,291.2,385.8z"/>
			<path class="st2" d="M319.2,412.7c0.4,0,0.8,0,1.2,0C320,412.8,319.6,412.8,319.2,412.7z"/>
			<path class="st2" d="M286.9,410.3c-0.3,0.1-0.7,0-1,0C286.2,410.2,286.5,410.3,286.9,410.3z"/>
			<path class="st2" d="M292,410.3c-0.3,0-0.6,0-1,0C291.4,410.3,291.7,410.2,292,410.3z"/>
			<path class="st2" d="M291,411.7c0.3-0.1,0.6,0,1,0C291.7,411.8,291.4,411.7,291,411.7z"/>
			<path class="st2" d="M338.5,411.5c0.3,0,0.6,0,0.9,0C339.1,411.6,338.8,411.6,338.5,411.5z"/>
			<path class="st2" d="M321.9,412.8c0.3-0.1,0.6,0,0.9,0C322.5,412.8,322.2,412.8,321.9,412.8z"/>
			<path class="st2" d="M336.9,411.5c0.3-0.1,0.6,0,0.9,0C337.5,411.6,337.2,411.5,336.9,411.5z"/>
			<path class="st2" d="M294.5,385.7c0.3,0,0.6,0,0.9,0C295.1,385.7,294.8,385.8,294.5,385.7z"/>
			<path class="st2" d="M290.2,385.8c0.3,0,0.6,0,0.9,0C290.8,385.8,290.4,385.9,290.2,385.8z"/>
			<path class="st2" d="M299.3,357.7c-0.1-0.3,0-0.6,0-0.9C299.3,357.1,299.2,357.4,299.3,357.7z"/>
			<path class="st2" d="M341.9,388.8c-0.1-0.3,0-0.6-0.1-0.9C342,388.2,341.9,388.5,341.9,388.8z"/>
			<path class="st2" d="M293.3,385.8c0.3-0.1,0.6,0,0.8,0C293.8,385.8,293.6,385.7,293.3,385.8z"/>
			<path class="st2" d="M307.8,412.9c0.3-0.1,0.5-0.1,0.8,0C308.3,412.9,308,412.9,307.8,412.9z"/>
			<path class="st2" d="M324.5,412.7c0.2,0,0.5,0,0.7,0C325,412.8,324.7,412.8,324.5,412.7z"/>
			<path class="st2" d="M333.1,412.3c0.2-0.1,0.5,0,0.7,0C333.6,412.4,333.3,412.3,333.1,412.3z"/>
			<path class="st2" d="M340.1,410.6c-0.2,0.1-0.5,0-0.7,0C339.6,410.5,339.8,410.6,340.1,410.6z"/>
			<path class="st2" d="M337.8,372.3c-0.2,0-0.4,0-0.6,0C337.4,372.2,337.6,372.2,337.8,372.3z"/>
			<path class="st2" d="M327.7,412.4c0.2-0.1,0.4,0,0.7,0C328.2,412.5,327.9,412.4,327.7,412.4z"/>
			<path class="st2" d="M280.5,412.9c0.2-0.1,0.4,0,0.7,0C281,412.9,280.8,412.9,280.5,412.9z"/>
			<path class="st2" d="M281.9,412.8c0.2-0.1,0.4,0,0.6,0C282.4,412.9,282.1,412.8,281.9,412.8z"/>
			<path class="st2" d="M275.6,382.2c0.2,0,0.4,0,0.6,0C276,382.3,275.8,382.3,275.6,382.2z"/>
			<path class="st2" d="M312,412.7c0.2-0.1,0.4,0,0.6,0C312.4,412.8,312.2,412.7,312,412.7z"/>
			<path class="st2" d="M338.3,378.5c-0.2-0.1-0.4,0.1-0.5-0.1C338,378.5,338.1,378.4,338.3,378.5z"/>
			<path class="st2" d="M305.8,413.2c0.2,0,0.4,0,0.5,0C306.2,413.2,306,413.2,305.8,413.2z"/>
			<path class="st2" d="M287.8,398.1c0-0.2,0-0.4,0-0.5C287.9,397.8,287.9,398,287.8,398.1z"/>
			<path class="st2" d="M304,386.6c0.2,0,0.4,0,0.6,0C304.4,386.6,304.2,386.7,304,386.6z"/>
			<path class="st2" d="M326.9,410.7c-0.2,0-0.3,0.1-0.5,0C326.6,410.7,326.7,410.7,326.9,410.7z"/>
			<path class="st2" d="M346.4,403.8c0.1,0.1,0.3,0,0.4,0C346.6,403.9,346.5,404,346.4,403.8z"/>
			<path class="st2" d="M283.1,412.8c0.2-0.1,0.3,0,0.5,0C283.4,412.8,283.2,412.8,283.1,412.8z"/>
			<path class="st2" d="M285.3,410.3c-0.2,0.1-0.3,0-0.5,0C284.9,410.3,285.1,410.4,285.3,410.3z"/>
			<path class="st2" d="M310.4,389.6c0.2-0.1,0.3,0,0.5,0C310.7,389.7,310.6,389.6,310.4,389.6z"/>
			<path class="st2" d="M309.9,389.6c0.2,0,0.3,0,0.5,0C310.2,389.6,310,389.7,309.9,389.6z"/>
			<path class="st2" d="M284.2,410.4c-0.1,0.1-0.3,0-0.5,0C283.9,410.3,284.1,410.4,284.2,410.4z"/>
			<path class="st2" d="M300.2,360.3c-0.2,0-0.3,0.1-0.5,0C299.9,360.3,300,360.3,300.2,360.3z"/>
			<path class="st2" d="M293.1,411.7c0.1-0.1,0.3,0,0.4,0C293.3,411.7,293.2,411.7,293.1,411.7z"/>
			<path class="st2" d="M341.8,411.5c0.1,0,0.3,0,0.4,0C342,411.5,341.9,411.6,341.8,411.5z"/>
			<path class="st2" d="M332.7,410.2c-0.1,0.1-0.3,0-0.4,0C332.5,410.2,332.6,410.2,332.7,410.2z"/>
			<path class="st2" d="M336.3,410.3c-0.1,0-0.3,0-0.4,0C336,410.2,336.1,410.2,336.3,410.3z"/>
			<path class="st2" d="M302.8,413.2c0.1-0.1,0.3,0,0.4,0C303.1,413.2,303,413.1,302.8,413.2z"/>
			<path class="st2" d="M327.7,410.7c-0.1,0.1-0.3,0-0.4,0C327.5,410.6,327.6,410.7,327.7,410.7z"/>
			<path class="st2" d="M325.9,412.8c0.1-0.1,0.3,0,0.4,0C326.2,412.8,326.1,412.8,325.9,412.8z"/>
			<path class="st2" d="M306.1,412c-0.1,0-0.2,0-0.3,0C305.9,412,306,411.9,306.1,412z"/>
			<path class="st2" d="M305.1,412c-0.1,0.1-0.2,0-0.3,0C304.8,411.9,305,412,305.1,412z"/>
			<path class="st2" d="M279.8,412.9c0.1-0.1,0.2,0,0.3,0C280,413,279.9,412.9,279.8,412.9z"/>
			<path class="st2" d="M289.8,411.8c0.1-0.1,0.2,0,0.3,0C290,411.8,289.9,411.8,289.8,411.8z"/>
			<path class="st2" d="M347.1,402.6c0-0.1,0-0.2,0-0.3C347.1,402.4,347.1,402.5,347.1,402.6z"/>
			<path class="st2" d="M331.9,410.3c-0.1,0.1-0.2,0-0.4,0C331.7,410.2,331.8,410.3,331.9,410.3z"/>
			<path class="st2" d="M328.4,410.6c-0.1,0.1-0.2,0-0.3,0C328.1,410.6,328.2,410.6,328.4,410.6z"/>
			<path class="st2" d="M283.4,410.4c-0.1,0.1-0.2,0-0.3,0C283.2,410.4,283.3,410.5,283.4,410.4z"/>
			<path class="st2" d="M282.8,410.5c-0.1,0.1-0.2,0-0.3,0C282.6,410.5,282.7,410.5,282.8,410.5z"/>
			<path class="st2" d="M282.1,410.6c-0.1,0.1-0.2,0-0.3,0C281.9,410.5,282,410.6,282.1,410.6z"/>
			<path class="st2" d="M331.3,410.3c-0.1,0-0.2,0-0.3,0C331.1,410.3,331.2,410.3,331.3,410.3z"/>
			<path class="st2" d="M301.7,413.1c0.1,0,0.2,0,0.3,0C301.8,413.1,301.7,413.2,301.7,413.1z"/>
			<path class="st2" d="M309.4,412.9c0.1,0,0.2,0,0.3,0C309.5,413,309.4,413,309.4,412.9z"/>
			<path class="st2" d="M330.7,410.4c-0.1,0.1-0.2,0-0.3,0C330.5,410.4,330.6,410.4,330.7,410.4z"/>
			<path class="st2" d="M347.1,401.8c0-0.1,0-0.2,0-0.3C347.1,401.6,347.1,401.7,347.1,401.8z"/>
			<path class="st2" d="M330.1,410.4c-0.1,0.1-0.2,0-0.3,0C329.9,410.4,330,410.5,330.1,410.4z"/>
			<path class="st2" d="M329.5,410.5c-0.1,0-0.2,0-0.3,0C329.3,410.5,329.4,410.5,329.5,410.5z"/>
			<path class="st2" d="M329,410.6c-0.1,0.1-0.2,0-0.3,0C328.7,410.5,328.9,410.6,329,410.6z"/>
			<path class="st2" d="M298.4,385.3c0.1,0,0.2,0,0.3,0C298.6,385.3,298.5,385.4,298.4,385.3z"/>
			<path class="st2" d="M312.6,389.3c0.1,0,0.2-0.1,0.3,0C312.8,389.3,312.7,389.3,312.6,389.3z"/>
			<path class="st2" d="M284,412.7c0.1-0.1,0.2,0,0.3,0C284.2,412.8,284.1,412.7,284,412.7z"/>
			<path class="st2" d="M341.7,410.6c-0.1,0-0.2,0-0.3,0C341.5,410.6,341.6,410.5,341.7,410.6z"/>
			<path class="st2" d="M307.1,387.2c0.1,0,0.2,0,0.3,0C307.3,387.3,307.2,387.3,307.1,387.2z"/>
			<path class="st2" d="M294.6,410.7c-0.1,0.1-0.2,0-0.3,0C294.4,410.7,294.5,410.7,294.6,410.7z"/>
			<path class="st2" d="M275.7,384c-0.1-0.1,0-0.2,0-0.2C275.7,383.8,275.7,383.9,275.7,384z"/>
			<path class="st2" d="M295.7,385.8c0.1,0,0.2,0,0.3,0C295.9,385.8,295.8,385.9,295.7,385.8z"/>
			<path class="st2" d="M302.8,361.9c-0.1,0-0.2,0-0.3,0C302.6,361.9,302.7,361.8,302.8,361.9z"/>
			<path class="st2" d="M293.8,411.6c0.1,0,0.2,0,0.3,0C294,411.7,293.9,411.6,293.8,411.6z"/>
			<path class="st2" d="M303,386.5c0.1,0,0.2,0,0.3,0C303.2,386.6,303.1,386.6,303,386.5z"/>
			<path class="st6" d="M290.1,330.3c0.4,0.3,0.6,0.8,0.6,1.3c0.1,0.8-0.2,1.5-0.5,2.3c-0.2,0.6-0.5,1.2-0.7,1.8c0,0,0,0.1,0,0.1
				c0.1,0,0.2-0.1,0.2-0.2c0.9-1,1.5-2.1,1.7-3.5c0.1-0.8,0-1.6-0.6-2.2c-0.1-0.1-0.2-0.1-0.3-0.2c-0.4-0.2-0.5-0.2-0.5,0.2
				c-0.1-0.1-0.2-0.2-0.2-0.3c-0.1-0.1-0.1-0.2-0.2-0.2c-0.2-0.1-0.3,0-0.3,0.2c0,0.5,0.2,0.9,0.3,1.4c0.2,0.7,0.3,1.4,0.2,2.1
				c0,0.2-0.1,0.3-0.2,0.6c-0.1-0.4-0.1-0.7-0.2-1c-0.1-0.6-0.2-1.2-0.5-1.8c-0.3-0.6-0.8-1.1-1.5-1.2c-0.2,0-0.2,0-0.2,0.2
				c0,0.3,0.1,0.5,0.4,0.6c0.8,0.3,1,0.9,1.1,1.6c0.1,0.7,0.2,1.5,0,2.2c-0.1,0.2-0.1,0.4-0.2,0.7c-0.3-0.1-0.3-0.3-0.2-0.7
				c0-0.2,0.1-0.4,0.2-0.6c0.1-0.4,0.1-0.8-0.2-1.1c-0.4-0.4-0.6-0.9-0.8-1.4c-0.1-0.4-0.4-0.4-0.7-0.2c-0.1,0-0.1,0.1-0.1,0.1
				c0.4,0.6,0.3,1.2,0.4,1.9c0,0.2,0,0.3,0.1,0.5c0,0.1,0,0.2,0.1,0.2c0.1,0,0.2,0,0.2-0.1c0.1-0.1,0.1-0.3,0.1-0.4
				c0-0.1,0-0.3,0.1-0.4c0.3,0.1,0.3,0.4,0.3,0.6c0,0.2-0.1,0.5-0.1,0.7c0,0.2-0.1,0.2-0.3,0.2c-0.4-0.1-0.6-0.4-0.8-0.7
				c-0.2-0.3-0.3-0.6-0.5-0.8c-0.2-0.2-0.4-0.3-0.7-0.4c-0.2,0-0.2,0-0.2,0.2c0.1,0.2,0.2,0.4,0.4,0.6c0.2,0.2,0.4,0.4,0.5,0.7
				c0,0.1,0.1,0.3,0,0.4c-0.1,0.1-0.3,0.1-0.4,0c-0.1-0.1-0.2-0.2-0.3-0.3c-0.1-0.2-0.2-0.3-0.4-0.5c-0.1-0.1-0.3-0.1-0.4-0.1
				c-0.2,0.1-0.3,0.2-0.1,0.4c0.1,0.1,0.1,0.1,0.2,0.2c0.4,0.2,0.4,0.5,0.1,0.8c-0.2,0.2-0.3,0.3-0.5,0.4c-0.2,0.2-0.3,0.3-0.3,0.6
				c0,0.2,0.1,0.2,0.2,0.2c0.2-0.1,0.4-0.2,0.6-0.4c0.4-0.3,0.8-0.6,1.2-0.8c0.4-0.1,0.7-0.1,1.1,0.1c0.2,0.1,0.3,0.2,0.5,0.3
				c0.1,0,0.1,0.1,0.1,0.2c0.4,1.6,0.2,3.1-1,4.4c-0.4,0.5-1,0.7-1.7,0.9c-0.2,0-0.3,0.1-0.4,0.3c-0.1,0.3-0.4,0.6-0.7,0.7
				c-0.3,0.2-0.5,0.2-0.8-0.1c-0.2-0.3-0.4-0.3-0.7-0.1c-0.1,0.1-0.1,0.1-0.1,0.2c-0.2,0.8,0.2,1.3,1.1,1.3c0.7,0,1.2-0.3,1.6-0.8
				c0.1-0.1,0.2-0.2,0.2-0.3c0-0.3,0.2-0.3,0.4-0.4c1.6-0.5,2.5-1.6,2.9-3.3c0.1-0.2,0.1-0.4,0.4-0.5c0.6-0.2,1-0.6,1.4-1
				c0.4-0.4,0.8-0.8,1.2-1.3c0.1-0.1,0.1-0.1,0.2-0.2c0,0.5-0.2,0.8-0.4,1.1c-0.4,0.4-0.9,0.7-1.3,1.1c-0.3,0.2-0.5,0.4-0.8,0.7
				c-0.1,0.1-0.1,0.2,0.1,0.2c0.4,0.1,0.6-0.1,0.9-0.3c0,0.2-0.2,0.4-0.3,0.5c-0.3,0.3-0.6,0.5-0.9,0.7c-0.1,0.1-0.3,0.2-0.4,0.3
				c-0.2,0.2-0.3,0.4-0.3,0.7c0.1,1.2,0,2.3-0.4,3.4c-0.2,0.6-0.5,1.1-1,1.5c-0.3,0.3-0.6,0.3-1,0.3c-2.4-0.3-4.8-0.1-7.2,0.6
				c-0.2,0.1-0.4,0.1-0.6,0.2c-0.6,0.3-1.1,0.2-1.6-0.1c-0.5-0.3-0.8-0.6-1.2-1c-0.8-0.8-1.5-1.5-2.2-2.4c-0.2-0.2-0.3-0.4-0.4-0.6
				c0.1-0.1,0.2,0,0.3,0.1c0.8,0.3,1.5,0.7,2.3,0.8c0.4,0.1,0.8,0.1,1.2,0c0.9-0.3,1.3-1.1,0.9-2c-0.1-0.2-0.3-0.4-0.6-0.4
				c-0.7-0.1-1.4-0.3-2.2-0.3c-0.5,0-0.9,0-1.4,0.2c-0.5,0.2-0.8,0.6-0.8,1.1c0,0.1,0,0.2,0,0.3c-0.2-0.1-0.4-0.3-0.6-0.5
				c-0.2-0.3-0.1-0.5,0.1-0.8c0.2-0.4,0.5-0.7,0.8-1c0.3-0.3,0.5-0.6,0.5-1c0-0.2,0-0.2-0.2-0.2c-0.2,0-0.3,0.1-0.4,0.2
				c-1,1.1-2.4,1.5-3.8,1.8c-0.7,0.1-1.4,0.1-2.1-0.1c-0.2-0.1-0.3-0.2-0.3-0.4c-0.1-1.2,0.4-2.1,1.4-2.8c0.6-0.5,1.3-0.9,2-1.4
				c0,0,0,0,0.1,0c0.3-0.4,0.7-0.3,1.2-0.2c0.5,0.2,1,0.4,1.5,0.3c0.2,0,0.2-0.1,0.3-0.2c0-0.1,0.1-0.2,0.1-0.3
				c0.1-0.1,0.1-0.3,0.1-0.4c0-0.2-0.2-0.1-0.3-0.2c-0.3-0.3-0.4-0.7-0.5-1.1c0-0.5,0-1,0.2-1.4c0.1-0.2,0.2-0.4,0.5-0.4
				c0.2,0,0.3-0.1,0.5-0.1c0.2-0.1,0.2-0.2,0.2-0.4c0-0.2-0.2-0.1-0.3-0.2c-0.5-0.1-1,0.1-1.3,0.5c-0.5,0.7-0.5,1.5-0.5,2.3
				c0,0.4,0.1,0.8,0.3,1.2c-0.6-0.3-0.8-0.7-0.9-1.2c-0.2-1.1,0.4-2.4,1.3-3c0.3-0.2,0.7-0.3,1.1-0.2c0.1,0,0.2,0.1,0.2,0
				c0-0.1,0-0.2-0.1-0.2c-0.1-0.1-0.3-0.2-0.4-0.2c-0.4-0.1-0.7,0-1.1,0c0.6-1.2,1.1-2.4,2-3.3c0.3-0.3,0.6-0.5,1-0.7
				c0.8-0.3,1.6-0.7,2.3-1.2c0.9-0.5,1.9-0.8,2.9-0.9c1.2-0.1,2.3-0.1,3.5,0c2.7,0.4,5.1,1.3,7,3.2c0.8,0.8,1.3,1.8,1.5,2.9
				c-0.2-0.1-0.2-0.2-0.3-0.3c-0.1-0.1-0.2-0.2-0.3-0.2c-0.3-0.1-0.4,0-0.3,0.2c0,0.6,0.2,1.2,0.2,1.8c0.1,0.6,0.1,1.1-0.1,1.7
				c-0.1,0.4-0.3,0.7-0.7,0.8c-0.1,0-0.2,0.1-0.2,0.2c0,0.7-0.4,1.2-0.9,1.6c-0.4,0.4-0.9,0.7-1.2,1.2c-0.1,0.2-0.1,0-0.2,0
				c-0.1-0.2-0.1-0.5,0-0.7c0-0.3,0.2-0.6,0.3-0.9c0.3-0.7,0.7-1.3,1-2C290.4,332.4,290.6,331.4,290.1,330.3z"/>
			<path class="st6" d="M276.2,346.9c-0.2,0.3-0.5,0.5-0.8,0.6c-0.9,0.3-1.6,0.9-2.3,1.5c0,0,0,0,0,0c-0.4,0.5-1,0.7-1.7,0.7
				c-1.2,0-2.4,0.2-3.4,1c-0.5,0.4-0.9,0.8-1.2,1.3c-0.1,0.1-0.1,0.2-0.3,0.1c-0.8-0.3-1.1-0.2-1.6,0.5c-0.1,0.2-0.2,0.2-0.5,0.2
				c-0.6-0.1-1.2-0.4-1.8-0.6c-1-0.4-2-0.7-3.2-0.6c-0.5,0-1.1,0-1.6-0.1c-0.2,0-0.2-0.1-0.2-0.3c0.3-1.4,1-2.8,1.7-4
				c1-1.7,2.1-3.3,3.1-5c0.7-1.2,1.4-2.4,1.8-3.7c0.1-0.4,0.2-0.8,0.1-1.3c0-0.5-0.2-0.9-0.7-1.1c-0.2-0.1-0.1-0.2,0-0.2
				c0.1-0.1,0.2-0.1,0.3-0.2c0.1-0.1,0.2-0.1,0.3-0.2c0.2-0.1,0.3-0.5,0.2-0.6c-0.1-0.2-0.4-0.2-0.5-0.1c-0.6,0.1-0.9,0.5-1.2,1
				c-0.1,0.2-0.2,0.2-0.4,0.2c-0.3,0-0.7,0.1-1,0.1c-0.2,0-0.5,0.1-0.6-0.1c-0.1-0.2,0.1-0.4,0.3-0.5c0.3-0.3,0.6-0.6,0.8-0.9
				c0,0,0-0.1,0-0.1c0-0.4,0.3-0.4,0.6-0.3c1.8,0.2,3.6,0.4,5.3,0.7c0.5,0.1,1,0.1,1.7,0.2c-0.4,0.3-0.8,0.5-1.1,0.7
				c-0.8,0.5-1.6,1-2.2,1.7c-0.6,0.7-0.9,1.5-0.7,2.4c0.1,0.8,0.8,1.4,1.6,1.5c1,0.2,2,0,3-0.4c0.3-0.1,0.4-0.1,0.6,0.2
				c0.7,0.9,1.4,1.8,2.1,2.7C273.8,345.1,274.8,346.2,276.2,346.9z"/>
			<path class="st6" d="M314.7,383.7c2,0.1,3.8-0.5,5.6-1.1c1.2-0.4,2.4-0.8,3.6-1c0.6-0.1,1.2-0.1,1.8-0.1c0.5,0,0.9-0.1,1.4-0.3
				c0.6-0.3,0.7-0.4,0.2-0.9c-0.4-0.5-0.9-0.9-1.4-1.3c-0.2-0.2-0.3-0.4-0.5-0.7c-0.1-0.2-0.1-0.2,0.1-0.3c1-0.4,2.1-0.9,3.1-1.3
				c1.3-0.6,2.6-1.3,3.8-2.1c0.1-0.1,0.2-0.1,0.4-0.2c0.7-0.1,1.4-0.4,2-0.7c0.6-0.3,1.3-0.5,2-0.6c0.3,0,0.6,0,1,0
				c0.2,0,0.3,0.1,0.4,0.3c0.1,0.2,0.2,0.5,0.4,0.7c0.2,0.4,0.4,0.7,0.8,1c0.2,0.1,0.1,0.2,0.1,0.4c0,0.1-0.1,0.3-0.2,0.4
				c-0.2,0.2-0.3,0.4-0.3,0.6c0,0.2-0.1,0.2-0.2,0.2c-1.7,1-3.6,1.9-5.4,2.7c-3.4,1.5-6.9,2.9-10.4,4.3c-0.8,0.4-1.6,0.7-2.4,1.1
				c-0.2,0.1-0.3,0.2-0.4,0.4c-0.2,0.2-0.3,0.3-0.6,0.4c-1.7,0.5-3.3,1.2-5,1.7c-1.1,0.4-2.1,0.7-3.2,1c-0.6,0.1-1,0-1.4-0.5
				c-0.2-0.3-0.4-0.6-0.5-1c-0.2-0.5-0.1-0.9,0.3-1.3c0.7-0.7,1.4-1.2,2.2-1.6c0.4-0.2,0.8-0.2,1.2-0.2
				C313.7,383.7,314.2,383.7,314.7,383.7z"/>
			<path class="st6" d="M330.4,381.7c0.4-0.2,0.9-0.1,1.2-0.4c0.3-0.2,0.6-0.4,0.9-0.5c0.2-0.1,0.5,0,0.5,0.2
				c0.5,1.5,1.4,2.9,1.9,4.4c0.1,0.3,0.3,0.6,0.2,0.9c-0.1,0.3-0.5,0.3-0.8,0.4c-3.6,1.4-7.1,2.8-10.6,4.4c-0.8,0.4-1.5,0.8-2.2,1.2
				c-0.5,0.2-1,0.4-1.5,0.5c-0.1,0-0.1,0-0.2-0.1c-0.5-1.8-1.3-3.4-2-5c-0.1-0.2,0-0.3,0.1-0.3c4.1-1.8,8.1-3.5,12.1-5.5
				C330.2,381.7,330.3,381.7,330.4,381.7z"/>
			<path class="st6" d="M249.1,334c-2.4-0.2-4.7-0.2-7-0.2c-1,0-1.9-0.1-2.8-0.4c-0.3-0.1-0.5-0.2-0.6-0.5c-0.1-0.2-0.2-0.4-0.4-0.7
				c-0.6-0.9-0.8-1.9-0.6-3c0.2-1,0.5-1.9,1-2.7c0.5-0.9,1.4-1.2,2.3-1.2c0.7,0,1.4,0.1,2,0.2c1,0.1,1.9,0.2,2.9,0.3
				c1,0.1,2.1,0.3,3.1,0.4c1.1,0.1,2.1,0.3,3.2,0.4c0.4,0,0.4,0,0.2,0.3c-0.4,0.6-1,1.1-1.6,1.5c-0.5,0.4-0.9,0.7-1.3,1.2
				c-0.1,0.2-0.2,0.4-0.2,0.6c0,0.5,0.1,1,0,1.6c0,0.1-0.1,0.3-0.2,0.3c-0.2,0.1-0.2,0.2-0.1,0.4c0.2,0.3,0.3,0.7,0.4,1.1
				c0,0.2,0.1,0.2,0.3,0.2c0.2,0,0.3-0.1,0.5-0.1c0.2,0,0.3,0.1,0.3,0.2c0,0.2-0.2,0.1-0.2,0.1C249.8,334,249.4,334,249.1,334z"/>
			<path class="st6" d="M295.2,375.7c-1.3-0.1-2.6-0.2-3.9-0.3c-0.9-0.1-1.8-0.1-2.7-0.2c-1.6-0.1-3.2-0.2-4.8-0.3
				c-1.1-0.1-2.2-0.1-3.3-0.2c-1.2-0.1-2.3-0.2-3.5-0.3c-1.1-0.1-2.2-0.2-3.3-0.3c-1-0.1-2-0.3-3-0.4c-1.5-0.2-3.1-0.3-4.6,0.2
				c-1.1,0.3-2,0.9-2.3,2.1c-0.2,1-0.2,2,0.1,3c0.2,0.6,0.5,1.2,0.8,1.8c0.7,1.2,1.2,2.6,1.7,3.9c0.3,0.7,0.6,1.3,1.2,1.9
				c0.4,0.4,0.7,0.9,0.9,1.5c0.3,1.1,0.8,2,1.3,3c0.9,1.8,1.7,3.7,2.2,5.7c0.4,1.4,1,2.7,1.7,4c0.1,0.2,0.2,0.5,0.3,0.8
				c0,0.1,0,0.2-0.1,0.2c-0.2,0.1-0.3,0.1-0.5,0c-0.1,0-0.3-0.1-0.4-0.1c-0.4,0.1-0.5-0.2-0.7-0.5c-0.5-1.5-1-3-1.5-4.6
				c-0.6-1.8-1.4-3.6-2.3-5.3c-1.4-2.6-2.7-5.3-4-8c-0.8-1.7-1.8-3.2-2.6-4.9c-0.4-0.9-0.8-1.8-1-2.7c0-0.1-0.1-0.1,0-0.2
				c0.5-0.7,0.9-1.5,1.4-2.2c0.4-0.5,0.9-0.8,1.6-0.8c2.8,0.1,5.7,0.2,8.5,0.3c1,0,1.9,0,2.9,0.2c0.7,0.1,1.5,0.3,2.2,0.3
				c1,0.1,2,0.2,3.1,0.2c1.2,0.1,2.4,0.2,3.5,0.3c1.1,0.1,2.2,0.2,3.3,0.3c1.2,0.1,2.4,0.2,3.6,0.3c0.8,0.1,1.6,0.1,2.4,0.2
				c0.3,0,0.5,0.1,0.7,0.2c0.2,0.2,0.4,0.3,0.6,0.4C295,375.2,295.1,375.4,295.2,375.7z"/>
			<path class="st6" d="M344,403c-0.1,0.1-0.2,0-0.3-0.1c-0.2-0.2-0.3-0.5-0.4-0.8c-0.2-0.4-0.4-0.8-0.8-1c-0.1,0-0.1-0.1-0.1-0.2
				c-0.2-1-0.6-1.8-1.1-2.7c-0.4-0.7-0.7-1.5-0.8-2.3c0-0.1,0-0.2-0.1-0.2c-0.9-1.2-1.3-2.5-1.8-3.9c-0.4-1.1-0.8-2.1-1.4-3
				c-0.1-0.2-0.1-0.4-0.1-0.5c0-0.3-0.1-0.5-0.2-0.7c-1.2-1.9-2-4-2.7-6.2c0-0.1,0-0.2,0.1-0.2c0.9-0.5,1.9-0.9,2.9-1.4
				c0.2-0.1,0.2,0,0.2,0.1c0.3,0.6,0.6,1.2,0.8,1.9c0.5,1.5,1.1,2.9,1.9,4.2c0.2,0.4,0.3,0.9,0.4,1.3c0.6,2,1.4,4,2.1,5.9
				c0.6,1.5,1.2,3.1,1.7,4.7c0.2,0.6,0.5,1.2,0.8,1.8c0.4,0.8,0.6,1.7,0.7,2.6c0,0.1,0,0.2-0.1,0.2C345.3,402.8,344.7,403,344,403z"
				/>
			<path class="st6" d="M323.4,411.8c-0.4,0-0.4,0-0.6-0.5c-1.1-3.3-2.5-6.5-3.9-9.7c-1.5-3.2-3-6.5-4.3-9.8
				c-0.2-0.4-0.3-0.8-0.5-1.2c-0.1-0.1,0-0.2,0.1-0.2c1-0.3,2-0.6,3-1c0.2-0.1,0.3-0.1,0.4,0.2c2.5,7.2,5,14.4,7.7,21.5
				c0.1,0.2,0,0.3-0.2,0.3c-0.4,0.1-0.8,0.3-1.3,0.3C323.7,411.7,323.5,411.7,323.4,411.8z"/>
			<path class="st6" d="M278.5,381.1c-0.9,0.1-1.8,0.1-2.6,0c-1.4-0.1-2.8-0.4-4.1-0.7c-0.9-0.2-1.7-0.7-2.4-1.2
				c-0.4-0.4-0.9-0.7-1.5-0.8c-0.4-0.1-0.7,0-1,0.1c-0.1,0-0.1,0.1-0.1,0.2c0.1,0.7,0.2,1.4,0.6,2.1c0.3,0.4,0.6,0.7,1.1,0.8
				c0.1,0,0.2,0,0.2-0.1c0.1-0.3,0.2-0.5,0.3-0.8c0.1-0.3,0.1-0.6-0.2-0.9c0.2-0.1,0.3,0,0.5,0c0.4,0.2,0.8,0.6,1.2,0.8
				c0.1,0.1,0,0.2,0,0.2c-0.2,0.6-0.1,1.2,0.3,1.8c0.1,0.1,0.2,0.2,0.3,0.3c-0.4,0-0.8-0.1-1.2-0.2c-1.3-0.5-2.4-1.3-3.4-2.2
				c-0.3-0.3-0.6-0.5-0.9-0.8c-0.1-0.1-0.1-0.1-0.1-0.2c0.1-0.6,0-1.2,0-1.8c0-0.6,0.2-1,0.7-1.3c1.3-0.7,2.6-1.1,4-0.6
				c0.3,0.1,0.5,0.2,0.8,0.2c0.1,0,0.2,0,0.2,0c0.5-0.2,0.9,0,1.4,0.1c0.4,0.1,0.9,0.2,1.3,0.2c0.2,0,0.4,0,0.5-0.1
				c0.2-0.1,0.4-0.1,0.6,0c1.2,0.3,2.5,0.4,3.8,0.2c0.3-0.1,0.6,0,0.8,0.3c0.3,0.4,0.3,0.4,0.8,0.1c0.1-0.1,0.3-0.2,0.4-0.3
				c0.3-0.2,0.5-0.2,0.7,0c0,0,0.1,0.1,0.1,0.1c0.2,0.3,0.4,0.4,0.8,0.4c0.4-0.1,0.7,0.1,1.1,0.3c0.1,0.1,0.2,0.1,0.4,0.1
				c0.8-0.1,1.6,0,2.4,0.2c1.1,0.2,2.3,0.3,3.4,0.2c0.5-0.1,1,0,1.5,0.2c0.3,0.1,0.7,0.1,1.1,0.2c1.3,0.1,2.6-0.1,3.9-0.2
				c0.8,0,1.6,0,2.3,0.4c0.3,0.2,0.5,0.4,0.7,0.6c-0.1,0.1-0.1,0-0.2,0c-2.5,0-5,0-7.4,0c-2.1,0-4.1-0.1-6.2-0.3
				c-1.4-0.1-2.8-0.4-4.2-0.8c-0.4-0.1-0.9-0.1-1.3-0.1c-0.5,0-1-0.1-1.5-0.2c-1-0.1-1.9,0-2.9,0.1c-1.2,0.1-2.3,0.2-3.5,0
				c-0.2,0-0.4,0-0.5,0.1c-0.3,0.3-0.6,0.2-1,0.2c-0.1,0-0.3-0.1-0.4,0c-0.2,0.2-0.4,0.3-0.4,0.6c0,0.1,0,0.1,0,0.2
				c0,0.1,0,0.2,0.2,0.2c0.2,0,0.3,0,0.3,0.2c0,0.1,0.1,0.1,0.1,0.2c0.1,0.2,0.2,0.5,0.5,0.5c0.3,0.1,0.7,0.1,1-0.1
				c0.3-0.1,0.6-0.2,0.8-0.3c0.2-0.1,0.4-0.1,0.4,0.2c0,0.2,0.2,0.3,0.4,0.3c0.6,0,1.1-0.1,1.6-0.3c0.3-0.1,0.7-0.2,1-0.3
				c0.1,0,0.2-0.1,0.3,0c0.1,0.1,0,0.2-0.1,0.2c-0.1,0.2,0,0.3,0.1,0.4C277.2,380.3,277.8,380.7,278.5,381.1z"/>
			<path class="st6" d="M285.3,401.2c-1.2,1.1-2.5,2.1-3.6,3.3c-0.7,0.8-1.4,1.6-1.9,2.6c-0.1,0.2-0.2,0.3-0.4,0.3
				c-0.7,0.1-1.2-0.2-1.8-0.4c-0.8-0.3-1.5-0.7-2.3-1c-1.7-0.5-3.4-0.8-5.1-1c-0.1,0-0.2,0-0.4-0.1c0.3-0.2,0.6-0.4,0.9-0.5
				c0.6-0.2,1.2-0.4,1.7-0.7c0.2-0.1,0.4-0.3,0.6-0.5c0.2-0.3,0.5-0.4,0.8-0.4c0.8,0,1.6,0,2.4,0c0.2,0,0.5-0.1,0.7-0.1
				c0.1,0,0.2,0,0.1,0.1c-0.1,0.4,0.1,0.8,0.3,1.2c0.1,0.2,0.4,0.2,0.6,0.3c0.2,0,0.3,0,0.5,0c0.7-0.1,0.9-0.2,0.8-0.9
				c0-0.3-0.1-0.7-0.2-1c0-0.1-0.1-0.2,0.1-0.2c0.5,0,1-0.3,1.4-0.5c0.6-0.3,1.1-0.6,1.8-0.8c0.5-0.1,0.9,0,1.3,0.2
				c0.1,0.1,0.3,0.1,0.5,0.1C284.5,401.2,284.9,401.2,285.3,401.2z"/>
			<path class="st6" d="M335.5,388.9c-1.1,0.7-2.2,1.2-3.3,1.6c-1.7,0.7-3.3,1.6-5,2.4c-0.7,0.3-1.4,0.5-2.1,0.8
				c-0.7,0.3-1.4,0.8-2.1,1.2c-0.4,0.2-0.8,0.4-1.3,0.5c-0.2,0-0.3,0-0.3-0.2c-0.2-0.5-0.4-1.1-0.6-1.7c0-0.2,0-0.2,0.2-0.3
				c1.9-0.8,3.7-1.6,5.6-2.5c2.5-1.1,5-2.3,7.6-3.4c0.1,0,0.1-0.1,0.2-0.1c0.3-0.1,0.4,0,0.4,0.3
				C334.9,388.1,335.1,388.5,335.5,388.9z"/>
			<path class="st6" d="M305.2,381.9c-1.1,0.2-2.2,0-3.3-0.2c-1.2-0.2-2.5-0.4-3.8-0.4c-0.3,0-0.6,0.1-0.9,0.2c-1,0.4-2,0.5-3.1,0.6
				c-1.8,0.2-3.7,0.2-5.5,0.2c-1.1,0-2.2,0-3.3-0.2c-0.8-0.1-1.5-0.3-2.3-0.5c-0.3,0-0.6,0-0.9,0.1c-0.8,0.2-1.6,0.1-2.2-0.4
				c-0.8-0.7-1.7-1.1-2.7-1.7c-0.2-0.1-0.3-0.3-0.5-0.5c0.5-0.1,0.9,0,1.3,0c0.9,0.2,1.7,0.5,2.4,0.8c0.7,0.3,1.4,0.4,2.1,0.4
				c1.3,0.1,2.6,0.2,3.9,0.4c2.6,0.3,5.1,0.5,7.7,0.3c1-0.1,2-0.2,2.9-0.5c0.4-0.1,0.9-0.1,1.3-0.2c2.1-0.1,4.1,0.2,6,1
				C304.7,381.7,305,381.8,305.2,381.9z"/>
			<path class="st6" d="M284.8,383.7c1.2,0,2.3-0.1,3.5-0.1c0.5,0,1.1,0,1.6,0.2c0.1,0,0.2,0,0.3,0.1c1,0.1,2,0.1,3.1,0
				c0.1,0,0.2,0,0.3-0.1c0.5-0.3,1.1-0.3,1.7-0.2c0.8,0,1.7,0,2.5,0c0.5,0,1-0.2,1.5-0.2c0.3,0,0.6,0,0.9,0.1
				c0.3,0.2,0.7,0.2,1.1,0.2c0.8,0,1.5,0,2.3,0.1c0.2,0,0.5,0,0.7,0.1c0.6,0.3,1.1,0.2,1.7,0.1c1.2-0.1,2.4-0.4,3.6-0.5
				c0.2,0,0.4,0,0.6,0c-0.2,0.3-0.5,0.5-0.8,0.7c-0.3,0.2-0.7,0.4-1,0.7c-0.4,0.3-0.6,0.7-0.7,1.2c0,0.2-0.1,0.3-0.3,0.3
				c-1.4,0-2.7-0.3-4-0.7c-1.4-0.4-2.8-0.9-4.2-1.2c-0.8-0.2-1.6-0.2-2.3,0.1c-0.7,0.3-1.4,0.4-2.1,0.4c-1.4,0.1-2.7,0-4.1,0
				c-1.2,0-2.5-0.3-3.7-0.6C286.2,384,285.5,383.9,284.8,383.7C284.8,383.7,284.8,383.7,284.8,383.7
				C284.8,383.7,284.8,383.7,284.8,383.7z"/>
			<path class="st6" d="M271.2,330.5c-0.1,0.4-0.2,0.7-0.4,0.9c-0.3,0.7-0.6,1.5-0.5,2.3c0,0.3,0.1,0.5,0.2,0.8
				c-0.5-0.1-1-0.1-1.5-0.2c-0.7-0.1-1.5-0.2-2.2-0.3c-0.1,0-0.2-0.1-0.2-0.2c0-0.1-0.1-0.2-0.1-0.4c-0.2-0.5-0.5-1-0.6-1.5
				c-0.3,0.2-0.3,0.4-0.3,0.7c0,0.4,0.2,0.8,0.4,1.1c0,0.1,0.2,0.1,0.1,0.2c-0.1,0.1-0.2,0.1-0.3,0.1c-0.1,0-0.2-0.1-0.3-0.1
				c-0.1,0-0.2-0.1-0.4,0c0.1-0.5-0.1-1-0.3-1.4c-0.1-0.3-0.2-0.7-0.1-1.1c-0.4,0.1-0.6,0.3-0.5,0.7c0.1,0.5,0.3,1,0.6,1.5
				c0.1,0.2,0.1,0.2-0.1,0.3c-0.4,0.1-0.7-0.1-0.9-0.5c-0.3-0.5-0.3-1.1-0.4-1.7c0-0.1,0-0.3,0-0.4c0-0.1,0-0.1,0-0.2
				c-0.1,0-0.1,0-0.2,0.1c-0.2,0.2-0.2,0.5-0.2,0.8c0,0.5,0.1,1,0.4,1.5c0.1,0.1,0,0.2-0.1,0.2c-0.3,0.1-0.5,0.1-0.7-0.2
				c-0.3-0.3-0.5-0.8-0.7-1.2c-0.1-0.1,0-0.3,0.1-0.4c0.1-0.1,0.2-0.3,0.3-0.4c0-0.1,0-0.2-0.1-0.2c-0.4-0.1-0.7,0.1-0.8,0.6
				c-0.1,0.6,0,1.1,0.5,1.5c0,0,0.1,0,0.1,0.1c0,0.1-0.1,0.1-0.1,0.1c-0.1,0-0.2,0-0.3-0.1c-0.6-0.2-0.7-0.7-0.7-1.2
				c-0.1-1.3,0.7-2,1.9-2.1c1.3-0.2,2.7,0,4,0.2C268.2,330.4,269.7,330.7,271.2,330.5z"/>
			<path class="st6" d="M239.6,334.5c-1.5,0.4-2.8-0.1-3.6-1.4c-0.9-1.5-1.2-3.1-0.9-4.8c0.1-1,0.5-1.9,1-2.7
				c0.5-0.8,1.3-1.4,2.1-1.8c0.4-0.2,0.8-0.4,1.2-0.5c0.7-0.2,1.5-0.2,2.1,0.2c0.6,0.3,1.2,0.7,1.9,1c-0.7,0.1-1.4,0-2-0.1
				c-0.6-0.1-1.2-0.2-1.8,0c-0.1,0-0.3,0.1-0.4,0.2c-0.6,0.6-1.3,1.1-2,1.6c-0.3,0.3-0.6,0.6-0.7,1c-0.1,0.2-0.1,0.4,0,0.6
				c0.1,0.1,0.1,0.2-0.1,0.2c-0.1,0.1-0.2,0.2-0.2,0.3c0,0.5-0.1,0.9-0.1,1.4c-0.1,1,0.1,2,0.7,2.9c0.6,0.9,1.4,1.4,2.4,1.7
				c0.1,0,0.1,0,0.2,0C239.5,334.5,239.5,334.5,239.6,334.5z"/>
			<path class="st6" d="M269.4,387.6c-0.3-0.3-0.4-0.6-0.8-0.8c-0.1,0-0.1-0.1-0.1-0.2c0-1.1-0.4-2-0.9-2.9
				c-0.4-0.6-0.8-1.2-1.1-1.9c0-0.1-0.1-0.1-0.1-0.2c0-0.1-0.1-0.2,0-0.3c0.1-0.1,0.2,0,0.3,0.1c0.2,0.1,0.3,0.2,0.5,0.4
				c0.4,0.4,0.8,0.8,1.4,0.9c0.2,0,0,0.1,0,0.2c-0.2,1.5,0.2,2.8,1.2,3.9c0.3,0.3,0.6,0.5,1,0.3c0.4-0.2,0.6-0.5,0.5-1
				c-0.2-0.8-0.7-1.5-1.2-2.1c-0.1-0.2-0.3-0.3-0.4-0.5c0.3-0.1,0.5,0,0.7,0.1c0.8,0.2,1.6,0.5,2.4,0.3c-0.1,0.2-0.1,0.4-0.1,0.5
				c0,0.1,0,0.1-0.1,0.2c-0.1,0-0.1,0-0.2-0.1c-0.1-0.2-0.3-0.3-0.5-0.5c-0.1-0.1-0.3-0.1-0.4,0c-0.1,0.1-0.1,0.2-0.1,0.3
				c0.1,1.1,0.3,2.1,1,3c0.3,0.4,0.7,0.6,1.1,0.8c0.3,0.1,0.4,0,0.4-0.2c0.1-0.4,0-0.8-0.1-1.1c-0.1-0.4-0.3-0.7-0.5-1.1
				c1.1,0.5,2.1,1.9,1.6,3.3c-0.1,0.2-0.1,0.2-0.3,0.1c-1.6-0.7-3.2-1.2-4.9-1.8C269.5,387.2,269.5,387.2,269.4,387.6z"/>
			<path class="st6" d="M272.1,389c0.3-0.2,0.6-0.2,0.8-0.1c0.4,0.1,0.7,0.4,1.2,0.3c0.1,0,0.1,0.1,0.1,0.1c0.6,1.7,1.7,3.1,2.8,4.5
				c0.4,0.6,0.8,1.1,1.2,1.7c0.1,0.1,0.2,0.3,0.2,0.5c0.6,1.4,1.2,2.8,1.9,4.2c0.1,0.2,0.1,0.3-0.1,0.4c-0.7,0.3-1.4,0.4-2.2,0.4
				c-0.1,0-0.2,0-0.3-0.1c0-0.1,0-0.2,0.1-0.3c0.4-0.3,0.5-0.7,0.3-1.2c-0.1-0.4-0.1-0.9,0-1.4c0-0.1,0-0.2-0.1-0.3
				c-0.6-0.8-0.9-1.7-1.1-2.6c-0.1-0.6-0.3-1.1-0.7-1.6c-0.7-0.8-1.2-1.7-1.9-2.5C273.8,390.3,273,389.5,272.1,389z"/>
			<path class="st6" d="M269.4,387.9c0.2-0.1,0.5-0.1,0.7,0c0.4,0.2,0.7,0.5,1.1,0.5c0.1,0,0.1,0.1,0.1,0.2
				c-0.1,0.5,0.2,0.8,0.5,1.2c0.3,0.2,0.4,0.5,0.5,0.8c0.8,2.4,1.6,4.9,2.4,7.3c0.2,0.7,0.6,1.3,0.9,2c0.2,0.4,0.3,0.9,0.2,1.3
				c0,0.1,0,0.2-0.2,0.2c-0.6,0-0.8-0.1-0.9-0.7c-0.1-0.3-0.2-0.7-0.4-1c-0.1-0.2-0.1-0.5-0.2-0.8c-0.4-2.4-1.2-4.7-2.3-6.8
				c-0.7-1.4-1.6-2.8-2.5-4.1C269.5,388,269.5,388,269.4,387.9z"/>
			<path class="st6" d="M246.6,325.1c0-0.7,0.4-1.2,0.8-1.7c0.3-0.3,0.7-0.6,0.9-1c0.1-0.1,0.2-0.1,0.3-0.1c0.4-0.1,0.8-0.2,1.1-0.6
				c0.1-0.1,0.2-0.1,0.3-0.1c1.5-0.1,2.8,0.4,3.9,1.5c-0.4,0-0.7-0.1-1.1-0.1c-0.7-0.1-1.4-0.3-2.1-0.2c-0.5,0-0.9,0.2-1.2,0.5
				c-0.2,0.2-0.4,0.5-0.7,0.7c0,0-0.1,0.1-0.1,0.1c0,0.3-0.1,0.5-0.2,0.7c0,0.1,0,0.2,0,0.3c0.2,0.2,0,0.2-0.2,0.3
				c-0.2,0.1-0.4,0-0.6-0.1C247.3,325.2,247,325.1,246.6,325.1z"/>
			<path class="st6" d="M250.7,323.6c0.1,0.2,0,0.3,0,0.5c-0.1,0.2-0.2,0.4-0.3,0.6c-0.1,0.2-0.1,0.5,0,0.7c0.3-0.1,0.4-0.3,0.5-0.6
				c0.1-0.2,0.3-0.4,0.4-0.7c0.3-0.4,0.7-0.6,1.2-0.5c-0.1,0.3-0.3,0.5-0.5,0.8c-0.2,0.3-0.3,0.5-0.2,0.9c0,0.1,0.1,0.2,0.2,0.1
				c0.2-0.1,0.3-0.3,0.4-0.5c0.1-0.2,0.3-0.4,0.4-0.6c0.3-0.4,0.6-0.6,1.1-0.5c0.5,0,1,0,1.5,0c0.6,0,0.6,0.1,0.3,0.6
				c-0.2,0.4-0.5,0.8-1,0.9c-0.2,0.1-0.4,0-0.7-0.1c-0.1,0-0.1-0.1-0.1-0.2c0-0.2,0.2-0.3,0.4-0.4c0.2-0.1,0.3-0.2,0.5-0.3
				c0.1-0.2,0.1-0.2-0.1-0.3c-0.4-0.1-0.8,0.1-1.1,0.5c-0.2,0.4-0.4,0.8-0.6,1.2c0,0.1-0.1,0.2-0.2,0.2c-0.9-0.1-1.8-0.1-2.7-0.3
				c-0.1,0-0.2,0-0.2-0.1C250,324.8,250.1,324.1,250.7,323.6z"/>
			<path class="st6" d="M281.7,396.9c-0.5,0-0.7-0.2-0.9-0.5c-0.5-0.8-1.1-1.7-1.6-2.5c-0.3-0.5-0.7-1.1-1-1.6
				c-0.5-0.8-1-1.5-1.5-2.1c-0.3-0.3-0.4-0.6-0.5-1c0-0.2,0-0.4,0.1-0.6c0.5,0.7,1.1,1.1,1.7,1.7c0.5,0.5,0.8,1,1,1.6
				c0.4,1,0.7,2,1.3,3c0.4,0.6,0.8,1.2,1.2,1.9C281.6,396.7,281.7,396.8,281.7,396.9z"/>
			<path class="st6" d="M262.5,329.2c-0.8,0.1-1.5,0.2-2.2,0.5c-1,0.5-1.4,1.5-0.9,2.5c0.2,0.4,0.5,0.8,0.9,1.1
				c0.1,0.1,0.3,0.2,0.4,0.4c-1.3,0.3-2.2-0.3-2.4-1.5c-0.2-1.2,0.3-2.3,1.2-3c0.7-0.5,1.5-0.7,2.3-0.3
				C262.1,328.9,262.3,329.1,262.5,329.2C262.6,329.1,262.6,329.2,262.5,329.2z"/>
			<path class="st0" d="M260.5,411.6c0.5,0,0.9-0.1,1.4-0.1c2.3-0.1,4.5-0.1,6.8,0.1c1,0.1,2,0.3,3,0.3c1,0.1,1.9,0.1,2.8-0.4
				c0,0,0,0,0.1,0c-0.2,0.2-0.4,0.4-0.7,0.5c-0.4,0.3-0.8,0.3-1.2,0.3c-0.8-0.1-1.6-0.1-2.5-0.1c-1.5-0.1-3-0.2-4.5-0.3
				c-1.7-0.1-3.4-0.2-5.1-0.2C260.6,411.6,260.5,411.6,260.5,411.6C260.5,411.6,260.5,411.6,260.5,411.6z"/>
			<path class="st6" d="M288,405.1c0,0.1,0,0.2-0.1,0.2c-1.7,0.5-3.2,1.2-4.9,1.7c-0.3,0.1-0.5,0.2-0.7,0.4
				c-0.2,0.2-0.4,0.3-0.6,0.3c-0.2,0-0.2-0.1-0.2-0.3c0.1-0.2,0.2-0.3,0.4-0.4c1.3-0.5,2.4-1.3,3.6-1.8c0.5-0.2,1.1-0.3,1.6-0.6
				c0.1-0.1,0.3-0.1,0.4-0.2c0.2-0.2,0.3-0.1,0.4,0C287.9,404.6,287.9,404.9,288,405.1z"/>
			<path class="st0" d="M279.3,372.1c-3.8-0.1-7.7-0.5-11.6-0.5c0.4-0.2,0.8-0.2,1.2-0.3c0.7-0.1,1.4-0.2,2.1-0.3
				c0.8,0,1.6,0,2.4,0.2c0.1,0,0.3,0.1,0.4,0.2c0.4,0.2,0.9,0.3,1.4,0.3c1,0.1,2,0,2.9,0.2C278.5,371.8,278.9,371.9,279.3,372.1z"/>
			<path class="st6" d="M285.9,398.2c-0.6,0.7-1.2,1.4-2.1,1.8c-0.2,0.1-0.3,0-0.4-0.1c-0.4-0.4-0.7-0.9-1-1.4
				c-0.1-0.1,0-0.1,0.1-0.2c0.2-0.1,0.5-0.3,0.7-0.4c0.1,0,0.2-0.1,0.2-0.1c0.1-0.2,0.3-0.2,0.5-0.1
				C284.5,398,285.1,398.3,285.9,398.2z"/>
			<path class="st6" d="M273.2,383.3c-0.6-0.2-1.2-0.1-1.8-0.3c0.4-0.3,0.5-0.6,0.5-1c0-0.3,0-0.5,0-0.8c0-0.1,0-0.2,0.2-0.2
				c0.6,0,1.2,0.3,1.8,0.5c0.3,0.1,0.7,0.2,1,0.3c0,0.2-0.3,0.3-0.4,0.5c-0.4,0.3-0.4,0.3-0.6-0.1c-0.2-0.3-0.3-0.4-0.5-0.1
				c-0.2,0.2-0.2,0.5-0.3,0.8C273.2,383.1,273.2,383.2,273.2,383.3z"/>
			<path class="st0" d="M263.6,409.2c2.2-0.9,4.5-1,6.9-0.4C268.2,409.2,265.9,409.1,263.6,409.2z"/>
			<path class="st7" d="M263.5,406.9c0.5-0.4,0.9-0.4,1.4-0.5c0.6-0.1,1.1-0.1,1.7-0.2c0.3-0.1,0.7-0.2,0.9-0.4
				c0.1-0.1,0.1-0.1,0.2-0.1c0.4,0,0.8,0,1.3,0c-0.2,0.2-0.4,0.2-0.6,0.3c-0.9,0.3-1.8,0.5-2.7,0.6c-0.7,0.1-1.4,0.2-2.1,0.3
				C263.6,406.9,263.6,406.9,263.5,406.9z"/>
			<path class="st8" d="M269.9,369.1c-1.2,0.1-2.4,0.3-3.7,0.5c0-0.5,0.6-0.8,1.1-0.8c0.8-0.1,1.7,0.1,2.5,0.2c0.1,0,0.2,0,0.3,0
				C270.1,369.2,270,369,269.9,369.1z"/>
			<path class="st0" d="M274.7,341.1c0.6,0,0.6,0,0.4,0.6c0,0.1-0.1,0.2,0,0.3c0,0.2-0.1,0.2-0.3,0.2c-0.2,0-0.4-0.1-0.6-0.2
				c-0.3-0.1-0.3-0.2-0.2-0.4c0-0.1,0.1-0.2,0.1-0.3c0-0.1,0.1-0.2,0.2-0.2C274.4,341.1,274.6,341.1,274.7,341.1z"/>
			<path class="st7" d="M285.3,372.7c-1.5,0.1-3-0.2-4.6-0.4c0.5-0.1,0.8-0.1,1.2-0.1c0.4,0,0.8,0.1,1.1,0.1
				c0.4,0.1,0.8,0.1,1.1,0.2C284.6,372.5,284.9,372.6,285.3,372.7z"/>
			<path class="st9" d="M288.2,400.4c0,0.6-0.5,1.1-1.4,1.3C286.8,401.1,287.4,400.6,288.2,400.4z"/>
			<path class="st10" d="M275.8,341.9c0-0.1,0-0.3,0-0.4c0-0.1,0-0.3,0.2-0.3c0.2,0,0.4,0,0.6,0.2c0.2,0.2-0.1,0.8-0.3,0.9
				C275.9,342.4,275.8,342.3,275.8,341.9z"/>
			<path class="st11" d="M284.7,403.9c0.4-0.6,1-0.8,1.7-0.8C286.3,403.5,285.6,403.9,284.7,403.9z"/>
			<path class="st12" d="M259.9,411.6c-0.5,0-0.9,0-1.4,0C258.7,411.1,259.4,411.1,259.9,411.6z"/>
			<path class="st11" d="M291.8,373.6c0.2-0.4,0.6-0.5,0.9-0.3c0,0,0.1,0.1,0.1,0.1c0,0.1-0.1,0.1-0.2,0.1
				C292.4,373.7,292.1,373.6,291.8,373.6z"/>
			<path class="st13" d="M253.4,326.8c0.2-0.4,0.4-0.8,0.9-0.9C254.2,326.3,253.9,326.6,253.4,326.8z"/>
			<path class="st8" d="M337.6,378.5c0,0.4-0.1,0.4-0.3,0.3c-0.1,0-0.2-0.1-0.2-0.2c0-0.2,0-0.3,0.1-0.4c0.1-0.1,0.2-0.1,0.3,0
				C337.7,378.3,337.6,378.4,337.6,378.5z"/>
			<path class="st14" d="M273.7,384c0.4,0.2,0.6,0.5,0.8,0.9C273.9,384.8,273.7,384.5,273.7,384z"/>
			<path class="st15" d="M248.8,325.6c0.1-0.2,0.2-0.2,0.3-0.3c0.1-0.1,0.2-0.2,0.2-0.4c0.1,0,0.2,0.1,0.2,0.2
				c0.1,0.3,0.1,0.4-0.3,0.4C249.1,325.6,249,325.6,248.8,325.6z"/>
			<path class="st16" d="M281.9,370.4c0.5,0,1,0.2,1.6,0.3C282.9,371,282.4,370.6,281.9,370.4z"/>
			<path class="st17" d="M273.2,341.6c-0.1,0-0.2,0-0.2-0.2c0-0.3,0.1-0.4,0.4-0.4c0.1,0,0.2,0,0.2,0.2
				C273.6,341.5,273.5,341.6,273.2,341.6z"/>
			<path class="st18" d="M278.6,402.8c-0.1,0.1,0.1,0.3-0.1,0.3c-0.2,0-0.3-0.1-0.3-0.5c0-0.2,0-0.2,0.2-0.2
				C278.6,402.5,278.6,402.5,278.6,402.8z"/>
			<path class="st14" d="M278.6,388.7c0,0.1,0,0.1,0,0.1c0,0-0.1,0-0.1,0c-0.1-0.2-0.3-0.3-0.4-0.5c0,0-0.1-0.1-0.1-0.2
				c0.1-0.1,0.1,0,0.2,0C278.3,388.3,278.5,388.5,278.6,388.7z"/>
			<path class="st19" d="M276.6,385.5c0.3-0.1,0.4,0,0.5,0.2c0.1,0.1,0.1,0.2,0,0.3c-0.1,0.1-0.2,0-0.3-0.1
				C276.8,385.7,276.8,385.6,276.6,385.5z"/>
			<path class="st20" d="M288.8,334.8c-0.1,0.2,0,0.4-0.3,0.4c-0.2,0-0.1-0.2-0.1-0.3C288.5,334.7,288.7,334.9,288.8,334.8z"/>
			<path class="st12" d="M281.4,370.4c-0.2,0.1-0.6,0.1-0.7,0c0,0-0.1,0,0-0.1c0-0.1,0.1-0.1,0.2-0.1
				C281,370.3,281.2,370.3,281.4,370.4z"/>
			<path class="st21" d="M250,333.4c-0.3-0.1-0.3-0.3-0.3-0.5C250.1,333,250,333.2,250,333.4z"/>
			<path class="st22" d="M286.1,372.7c0.1,0,0.1,0.1,0.1,0.2c0,0.1-0.1,0.1-0.1,0.1c-0.1,0-0.1,0-0.1-0.1
				C285.9,372.7,285.9,372.6,286.1,372.7z"/>
			<path class="st23" d="M336.2,388.5c0,0.1-0.1,0.1-0.1,0.1c-0.1,0-0.1,0-0.1-0.1c0-0.1,0.1-0.1,0.2-0.1
				C336.2,388.3,336.2,388.4,336.2,388.5z"/>
			<path class="st24" d="M269.9,369.1c0.1-0.1,0.2,0,0.3-0.1c0.1,0,0.1,0,0.2,0C270.2,369.1,270.1,369.1,269.9,369.1z"/>
			<path class="st25" d="M260.5,411.6C260.5,411.6,260.5,411.6,260.5,411.6c-0.1,0.1-0.2,0.1-0.4,0.1c0,0,0,0,0,0
				C260.2,411.6,260.4,411.6,260.5,411.6z"/>
			<path class="st26" d="M284.8,383.7C284.8,383.7,284.8,383.7,284.8,383.7c-0.1,0.1-0.1,0-0.2,0
				C284.7,383.6,284.8,383.6,284.8,383.7z"/>
			<path class="st27" d="M262.5,329.2C262.5,329.2,262.5,329.1,262.5,329.2c0.1-0.1,0.1-0.1,0.1,0
				C262.7,329.2,262.6,329.2,262.5,329.2z"/>
			<path class="st28" d="M264.5,320c0.3-0.1,0.5,0.1,0.7,0.3c0.4,0.4,0.8,0.8,1.1,1.2c0.5,0.6,1,1,1.6,1.4c0.6,0.4,1.3,0.7,1.8,1.3
				c0.5,0.6,0.6,1.3,0.4,2c0,0.1-0.1,0.3-0.2,0.4c-0.1,0.1-0.3,0.2-0.4,0.1c-0.1,0-0.1-0.2-0.1-0.3c0-0.8-0.3-1.4-0.9-1.9
				c-0.6-0.6-1.3-1-2-1.5c-0.7-0.5-1.2-1.1-1.5-1.9c0-0.1-0.1-0.1-0.2-0.2c-0.8-0.2-1.7-0.1-2.4,0.3c-0.8,0.4-1.6,0.9-2.4,1.2
				c-0.4,0.2-0.8,0.3-1.2,0.3c-0.2,0-0.2-0.1-0.2-0.2c0.1-0.3,0.2-0.5,0.4-0.7c0.1-0.1,0.2-0.1,0.3-0.2c1.1-0.5,2.2-1.1,3.3-1.5
				C263.4,320.1,263.9,320,264.5,320z"/>
			<path class="st29" d="M261.4,319.3c0.3-0.3,0.6-0.4,0.9-0.5c0.7-0.2,1.4-0.2,2.1,0c0.6,0.1,0.9,0.5,1,0.9c0,0,0,0.1,0,0.1
				c-0.6-0.2-1.3-0.2-2-0.3C262.7,319.5,262.1,319.5,261.4,319.3z"/>
			<path class="st30" d="M263.7,321.9c0.1,0,0.3,0,0.4,0c0.3,0,0.2,0.1,0.1,0.3c-0.1,0.2-0.3,0.2-0.4,0.2c-0.6,0-1.1,0.1-1.7,0.3
				c-0.4,0.1-0.7,0.3-1,0.6c-0.1,0.1-0.3,0.3-0.5,0.4c-0.1,0.1-0.3,0.2-0.5,0.1c-0.2,0-0.2-0.1-0.1-0.2c0.7-0.8,1.6-1.4,2.7-1.6
				C263.1,321.9,263.4,321.9,263.7,321.9z"/>
			<path class="st30" d="M263.6,326.8c0.2-0.5,0.6-0.7,1-0.9c0.7-0.3,1.4-0.5,2.2-0.4c0.1,0,0.1,0,0.2,0c0,0.1,0,0.1,0,0.2
				c-0.1,0.1-0.1,0.1-0.2,0.1c-0.5,0-0.9,0.2-1.3,0.4c-0.5,0.3-1.1,0.6-1.7,0.6C263.7,326.8,263.7,326.8,263.6,326.8z"/>
			<path class="st31" d="M261.8,325c0.2-0.6,0.6-0.9,1.1-1.1c0.5-0.2,1-0.3,1.6-0.2c0.2,0,0.2,0.1,0.1,0.3c0,0.1-0.1,0.2-0.3,0.2
				c-0.1,0-0.3,0.1-0.4,0.1c-0.4,0-0.8,0.1-1.1,0.4C262.6,324.9,262.3,325,261.8,325z"/>
			<path class="st32" d="M273.7,336.6c0.7-0.1,1.5,0.4,2,1.1c0.5,0.7,1.1,1,1.8,1.3c0.6,0.2,1.2,0.5,1.8,0.9
				c0.6,0.4,0.8,1.1,0.6,1.7c0,0.1-0.1,0.1-0.2,0.1c-0.2-0.1-0.4-0.2-0.5-0.5c-0.2-0.9-0.9-1.2-1.7-1.5c-1-0.4-2-0.8-2.8-1.6
				c-0.2-0.2-0.4-0.4-0.6-0.7c0-0.1-0.1-0.1-0.2-0.1c-0.6,0-1.2,0-1.8,0.2c-0.1,0-0.2,0.1-0.2,0.1c-0.2,0.2-0.2,0-0.3-0.1
				c-0.1-0.3,0.1-0.4,0.3-0.6C272.4,336.7,272.9,336.6,273.7,336.6z"/>
			<path class="st28" d="M273.5,329.6c0.1-0.9,0.6-1.5,1.5-1.6c0.9-0.2,1.7,0.1,2.2,0.8c0.1,0.1,0.1,0.2,0.1,0.3
				c-0.1,0.3-0.1,0.6-0.2,0.9c-0.1,0.2-0.1,0.4-0.3,0.6c-0.1,0.1-0.2,0.2-0.4,0.1c-0.2-0.1-0.3-0.2-0.3-0.5c0-0.4-0.1-0.6-0.5-0.8
				c-0.6-0.2-1.2-0.1-1.8,0.1C273.6,329.5,273.5,329.5,273.5,329.6z"/>
			<path class="st29" d="M275.9,333c0-0.2-0.1-0.4-0.1-0.6c0-0.3-0.2-0.4-0.5-0.5c-0.2,0-0.5-0.1-0.7-0.1c-0.2,0-0.2-0.1-0.3-0.3
				c0-0.2,0.1-0.2,0.2-0.3c1-0.2,1.8,0.4,2,1.4c0.1,0.6,0.1,1.2,0,1.8c0,0.1,0,0.2-0.1,0.3c-0.4,0.4-0.9,0.7-1.5,0.8
				c-0.3,0-0.5,0-0.7-0.2c-0.1-0.2-0.1-0.3,0.1-0.4c0.1-0.1,0.3-0.1,0.4-0.1c0.5,0,0.7-0.3,0.9-0.7
				C275.9,333.6,275.9,333.3,275.9,333z"/>
			<path class="st29" d="M284.3,339.8c-0.1,0-0.3,0-0.4-0.1c-0.3-0.1-0.3-0.2-0.1-0.4c0.2-0.1,0.3-0.2,0.5-0.2
				c0.7-0.2,0.7-0.6,0.2-1c0,0-0.1-0.1-0.1-0.1c-0.4-0.3-0.4-0.5,0-0.9c0.3-0.2,0.6-0.4,1-0.4c0.1,0,0.3,0,0.4,0.1
				c0.1,0,0.2,0.1,0.2,0.2c0,0.1-0.1,0.2-0.3,0.2c-0.2,0-0.3,0-0.5,0.1c-0.2,0-0.2,0.1-0.1,0.3c0.1,0.2,0.3,0.3,0.4,0.5
				c0.3,0.4,0.3,0.7,0,1.1C285.3,339.5,284.8,339.7,284.3,339.8z"/>
			<path class="st29" d="M273.8,333.7c-0.3,0.1-0.4-0.1-0.4-0.3c0-0.2,0-0.3-0.1-0.5c0-0.3,0.1-0.4,0.4-0.5c0.2-0.1,0.4,0,0.5,0.3
				c0.1,0.3,0.1,0.6,0,0.9C274.1,333.8,273.9,333.7,273.8,333.7z"/>
			<path class="st29" d="M242.7,333c0,0.2-0.1,0.2-0.2,0.1c-0.4-0.1-0.7-0.3-0.9-0.7c-0.5-0.9-0.6-1.8-0.4-2.8
				c0-0.1,0.1-0.2,0.2-0.1c0.1,0.1,0.3,0.1,0.3,0.3c0,0.6,0.1,1.2,0.2,1.7c0.1,0.3,0.1,0.5,0.2,0.8c0,0.1,0.2,0.2,0.3,0.3
				C242.6,332.7,242.7,332.8,242.7,333z"/>
			<path class="st30" d="M241,333.3c-0.4-0.1-0.7-0.4-0.9-0.8c-0.3-0.5-0.4-1.1-0.5-1.7c0-0.3-0.1-0.6-0.1-0.9
				c0-0.1-0.1-0.3,0.1-0.3c0.4-0.1,0.4,0,0.5,0.3c0,0.3,0,0.7,0.1,1.1c0,0.4,0.2,0.7,0.4,1.1c0.1,0.2,0.3,0.5,0.4,0.8
				C241,332.9,241,333.1,241,333.3z"/>
			<path class="st31" d="M244.7,333.3c-0.4,0-0.7-0.3-0.9-0.6c-0.5-0.8-0.8-1.6-0.8-2.5c0-0.1,0-0.2,0.1-0.2c0.1,0,0.3-0.1,0.3,0.1
				c0.1,0.3,0.2,0.6,0.3,0.9c0.3,0.7,0.6,1.4,0.9,2.1C244.7,333.2,244.7,333.2,244.7,333.3z"/>
			<path class="st33" d="M245.8,331.7c0-0.6,0.3-1.1,0.6-1.2c0.2-0.1,0.3,0,0.3,0.2c0,0.2-0.1,0.4-0.1,0.5c-0.1,0.3-0.1,0.7-0.1,1.1
				c0,0.3,0.2,0.4,0.4,0.5c0.2,0.1,0.3,0.3,0.3,0.5c0,0.1,0,0.1-0.1,0.1c-0.3,0-0.6-0.2-0.8-0.4C246,332.6,245.9,332.1,245.8,331.7z
				"/>
			<path class="st31" d="M245.7,333.4c-0.4-0.1-0.6-0.5-0.7-0.9c-0.1-0.5-0.2-1-0.3-1.4c0-0.1,0-0.1-0.1-0.2c-0.2-0.3,0-0.5,0.2-0.8
				c0.1-0.1,0.1-0.1,0.2,0c0.1,0.1,0.2,0,0.2,0.2c-0.1,0.8,0.2,1.5,0.4,2.2C245.8,332.8,245.8,333.1,245.7,333.4z"/>
			<path class="st31" d="M249,333.6c-0.3,0-0.6-0.2-0.8-0.4c-0.6-0.7-0.7-1.6-0.5-2.4c0-0.1,0-0.3,0.2-0.3c0.2,0,0.2,0.2,0.2,0.3
				C248.4,331.7,248.6,332.6,249,333.6z"/>
			<path class="st31" d="M239.2,332.2c-0.6-1-0.9-2-0.7-3c0,0,0-0.1,0-0.1c0.1-0.1,0-0.3,0.2-0.3c0.2,0,0.3,0.3,0.3,0.5
				c-0.1,0.5,0,0.9,0.1,1.4c0.1,0.4,0.3,0.9,0.1,1.3C239.3,332,239.2,332.1,239.2,332.2z"/>
			<path class="st32" d="M278.5,404.5c0.2,0,0.4,0,0.6,0.1c0.3,0,0.5,0.2,0.5,0.5c0.1,0.5,0.2,1-0.1,1.5c-0.1,0.2-0.2,0.3-0.5,0.3
				c-0.3,0-0.6,0-0.8-0.1c-0.5-0.1-0.9-0.6-0.9-1.2c0-0.2,0-0.4-0.1-0.6c0-0.2,0.1-0.3,0.3-0.4c0.1,0,0.3-0.1,0.4-0.1
				C278.2,404.5,278.3,404.5,278.5,404.5z"/>
			<path class="st34" d="M267.1,332.1c0.2,0.2,0.4,0.4,0.5,0.6c0.2,0.4,0.3,0.7,0.3,1.2c0,0.2,0,0.2-0.2,0.1
				c-0.3-0.1-0.4-0.2-0.6-0.4C266.9,333.1,266.9,332.6,267.1,332.1z"/>
			<path class="st35" d="M270,334.1c-0.6-0.1-0.8-0.5-0.9-1.2c0-0.1,0-0.1,0-0.2c0-0.1-0.1-0.2,0-0.2c0.1,0,0.3-0.1,0.4,0.1
				C269.8,333.1,269.9,333.6,270,334.1z"/>
			<path class="st36" d="M268.6,332.9c0,0.2,0,0.4,0.1,0.6c0,0.1,0.1,0.2,0.1,0.3c0,0.1,0.1,0.3,0,0.4c-0.1,0.1-0.3,0-0.4-0.1
				c-0.3-0.3-0.4-0.7-0.3-1.1c0-0.2,0.2-0.3,0.4-0.2C268.7,332.6,268.5,332.8,268.6,332.9z"/>
			<path class="st37" d="M278.5,405.2c0.3,0,0.5,0.2,0.5,0.4c0,0.1,0,0.3-0.2,0.3c-0.3,0-0.4-0.2-0.5-0.5
				C278.3,405.2,278.4,405.2,278.5,405.2z"/>
		</g>
	</g>
</g>
</svg>
