<?xml version="1.0" encoding="utf-8"?>
<!-- Generator: Adobe Illustrator 21.1.0, SVG Export Plug-In . SVG Version: 6.00 Build 0)  -->
<svg version="1.1" id="Layer_1" xmlns="http://www.w3.org/2000/svg" xmlns:xlink="http://www.w3.org/1999/xlink" x="0px" y="0px"
	 viewBox="0 0 612 792" style="enable-background:new 0 0 612 792;" xml:space="preserve">
<style type="text/css">
	.st0{fill:#FFFFFF;}
</style>
<g>
	<g>
		<g>
			<path d="M234.6,344.7c0.1,0,0.3,0,0.4,0c0.8,0.2,1.6,0.7,2.3,1.1c0.3,0.2,0.7,0.3,1,0.5c1.2,0.5,2.3,1,3.5,1.5c0,0,0.1,0,0.1,0
				c0.7,0.3,1.4,0.7,2.1,0.9c1.8,0.6,3.5,1.2,5,2.4c0,0,0.1,0.1,0.1,0.1c1.5,0.8,3.1,1.6,4.6,2.3c0.3,0.1,0.6,0.3,0.9,0.3
				c0.8,0.2,1.6,0.5,2.4,0.9c0.9,0.5,1.8,1,2.7,1.4c1,0.5,2.1,0.9,3.1,1.4c1.1,0.5,2.3,0.8,3.3,1.6c0,0,0,0,0,0
				c1.1,0.5,2.1,1,3.2,1.5c0.3,0.1,0.5,0.3,0.7,0.5c0.5,0.3,1.1,0.7,1.6,1c0.6,0.4,1.3,0.6,1.9,1c0.4,0.2,0.6,0.5,0.6,0.9
				c0,0.7-0.1,1.3-0.4,1.9c-0.2,0.4-0.7,0.5-1,0.8c0,0-0.1,0.1-0.1,0.1c-0.6,0.3-1.2,0.5-1.9,0.8c-0.5,0.2-1,0.5-1.5,0.7
				c-1.7,0.8-3.5,1.6-5.3,2.4c-1.3,0.6-2.6,1.2-3.9,1.9c-0.8,0.5-1.7,0.8-2.6,1.2c-2.1,1-4.3,2.1-6.4,3.1c-0.4,0.2-0.6,0.5-0.7,0.9
				c-0.1,0.4-0.4,0.8-0.7,1.1c-0.3,0.3-0.6,0.7-0.9,1c-0.5,0.7-1.3,1-2.1,1.2c-0.4,0.1-0.8,0.3-1.2,0.4c-0.3,0.1-0.6,0.4-0.9,0.5
				c-0.8,0.4-1.6,0.8-2.4,1.2c-0.3,0.2-0.6,0.4-0.9,0.6c-0.3,0.4-0.2,0.9,0.3,1c0.4,0.1,0.7,0.2,1.1,0.3c1.9,0.4,3.9,0.8,5.8,1.6
				c2.9,1.2,5.4,2.8,7.7,4.9c0.5,0.4,0.9,0.9,1.4,1.3c0.3,0.3,0.7,0.6,1,1c0.6,0.7,1.1,1.4,1.7,2.2c0.3,0.4,0.6,0.9,0.9,1.4
				c0.6,1.1,1.1,2.3,1.4,3.6c0.2,0.6,0.3,0.7,0.9,0.5c0.4-0.1,0.7-0.3,1.1-0.4c0.8-0.4,1.6-0.7,2.4-1.1c0.5-0.2,0.9-0.5,1.4-0.8
				c1.2-0.5,2.4-1,3.6-1.5c0.9-0.4,1.8-0.6,2.8-0.6c2.2,0,4,0.9,5.8,2c0,0,0,0,0,0c0,0.1,0.1,0.2,0.1,0.2c0,0.1-0.1,0.1-0.2,0.1
				c-0.2,0-0.3,0-0.5,0c-0.8-0.3-1.5-0.5-2.3-0.8c-0.7-0.3-1.4-0.6-2.2-0.5c-1.8,0.1-3.5,0.6-5,1.8c-0.3,0.2-0.5,0.5-0.8,0.6
				c-0.7,0.3-1.1,0.9-1.6,1.5c-0.1,0.1-0.1,0.3-0.1,0.4c0.1,0.1,0.3,0.2,0.4,0.2c0.2,0,0.5-0.1,0.7-0.3c1.5-0.7,2.9-1.4,4.4-2.2
				c0.2-0.1,0.4-0.2,0.6-0.2c1.8-0.4,3.6-0.4,5.4,0.3c0.6,0.2,1,0.7,1.5,1c1,0.6,1.8,1.5,2.3,2.6c0,0.1,0.1,0.1,0.1,0.2
				c0.6,0.8,1,1.6,1.1,2.6c0.1,0.8,0.4,1.6,0.3,2.4c-0.1,1.1-0.2,2.3-0.3,3.4c-0.1,0.7-0.2,1.5-0.5,2.1c-1.1,2.5-2.8,4.4-5.3,5.5
				c-1.3,0.6-2.7,1-4.1,1.5c-0.7,0.2-1.4,0.5-2.1,0.8c0.1,0.6,0.2,1.3,0.3,1.9c0.2,1.5,0.5,2.9,0.7,4.4c0.1,0.9,0.1,1.8,0.2,2.7
				c0.1,1.1,0.2,2.1,0.2,3.2c0,1.6,0.2,3.2,0.3,4.9c0.1,1.2,0.2,2.5,0.2,3.7c0,4.1-0.1,8.2-0.2,12.3c0,0.7-0.1,1.5-0.5,2.1
				c-0.3,0.5-0.4,0.5-0.7,0c-0.4-0.7-0.6-1.5-0.8-2.3c-0.3-1.4-0.7-2.8-1-4.2c-0.3-1.1-0.5-2.2-0.8-3.3c-0.1-0.2-0.1-0.4-0.2-0.6
				c-0.1-0.1-0.2-0.2-0.4-0.3c-0.1,0-0.2,0.2-0.3,0.3c-0.1,0.1-0.1,0.2-0.1,0.3c-0.5,1.3-0.9,2.6-1.4,3.9c-0.6,1.5-1.2,3-1.8,4.4
				c-0.5,1-0.9,1.2-2,1.1c-0.3,0-0.4-0.2-0.4-0.4c0-0.3,0-0.6,0-0.9c0.1-0.8,0.2-1.6,0.3-2.4c0.2-1.4,0.3-2.7,0.5-4.1
				c0.2-2,0.4-3.9,0.5-5.9c0.1-1.4,0.1-2.8,0.2-4.2c0.1-2.2,0.1-4.3,0-6.5c-0.1-1.7-0.2-3.4-0.3-5.2c0-0.4-0.1-0.7-0.1-1.1
				c0-0.3,0-0.6-0.4-0.6c-0.3-0.1-0.4,0.3-0.6,0.5c-0.8,1.6-1.6,3.2-2.7,4.6c-0.8,1-1.5,2-2.4,2.8c-1.5,1.3-3.2,2.3-4.9,3.3
				c-0.3,0.2-0.7,0.3-1,0.4c-0.4,0.1-0.6,0.4-0.6,0.8c0,0.2,0,0.5,0,0.7c0.2,0.9,0.4,1.8,0.5,2.7c0.2,1.1,0.4,2.3,0.4,3.4
				c0.1,1.7,0,3.3,0,5c0,1.1-0.2,2.1-0.7,3.1c-0.1,0.1-0.1,0.2-0.1,0.3c-0.1,0.4-0.2,0.7-0.3,1.1c-0.5,1.2-1.4,2.1-2.2,3.1
				c-0.1,0.1-0.2,0.2-0.3,0.3c-0.8,0.4-1.3,1.2-1.8,1.9c-0.3,0.5-0.3,0.8,0.1,1.2c0.2,0.3,0.6,0.4,0.9,0.7c1.4,1.1,2.8,2.3,3.6,4
				c0,0.1,0.1,0.2,0.1,0.2c0.4,0.4,0.4,0.8,0.3,1.2c-0.1,0.4-0.4,0.8-0.5,1.3c-0.4,1.2-1.1,2.2-2.1,2.9c-0.6,0.5-1.2,1-1.9,1.2
				c-0.5,0.2-0.8,0.5-1,0.9c-0.3,0.5-0.2,0.7,0.2,1c0.5,0.3,1,0.6,1.6,0.7c1.1,0.2,2,0.8,2.9,1.6c0.1,0,0.1,0.1,0.1,0.2
				c0.1,0.6,0.2,1.2-0.2,1.7c-0.2,0.3-0.4,0.7-0.7,1c-0.2,0.2-0.3,0.5-0.5,0.7c-0.6,0.8-1.4,1.4-2.3,1.8c-1,0.5-1.8,1.3-2.5,2.1
				c-0.2,0.2-0.1,0.4,0.2,0.4c0.2,0,0.4,0.1,0.6,0.1c2.3-0.1,4.5,0.2,6.7,0.6c0.9,0.2,1.7,0.5,2.1,1.4c0.1,0.2,0.3,0.3,0.5,0.3
				c0.6,0.1,1.2,0.1,1.8,0.1c1.2,0,2.4,0.2,3.5,0.7c0.5,0.3,1,0.6,1.3,1.1c0.2,0.3,0.4,0.6,0.6,1c0.5,1,0.3,2.1-0.4,2.9
				c-0.5,0.5-1,0.9-1.7,1.1c-1.2,0.4-2.4,1.1-3.7,1.3c-0.9,0.1-1.8,0.4-2.7,0.6c-1.5,0.3-2.9,0.6-4.4,0.6c-1.3,0-2.7,0-4,0
				c-1.5,0-3.1,0-4.6-0.3c-2.2-0.4-4.2-1-6-2.4c-0.3-0.2-0.6-0.5-0.9-0.7c-0.2-0.1-0.4-0.3-0.7-0.4c-0.4-0.1-0.7,0-0.7,0.5
				c0,0.5,0,1-0.1,1.4c-0.1,1.4-0.4,1.8-1.8,2c-1.8,0.3-3.6,0.2-5.4,0.1c-0.7,0-0.9-0.4-0.8-1c0.1-0.6-0.1-0.8-0.7-0.8
				c-0.1,0-0.2,0-0.3,0c-0.7,0.1-1.3,0.2-1.9,0.3c-1.1,0.3-2.2,0.5-3.4,0.6c-0.7,0-1.4,0.1-2.1,0.3c-1.4,0.4-2.8,0.7-4.3,0.7
				c-0.9,0-1.8,0.1-2.7,0.2c-1.2,0.1-2.4,0.4-3.6,0.5c-1.5,0.2-3.1,0.3-4.6,0.4c-1.7,0.1-3.4,0.1-5.1,0.2c-1.7,0.1-3.4,0.1-5.1,0.2
				c-1.3,0.1-2.7,0.1-4,0.2c-0.6,0-0.9-0.2-1.1-0.8c-0.1-0.3-0.3-0.6-0.5-0.9c-0.2-0.3-0.3-0.6-0.2-0.9c0.2-0.6,0.6-1.2,1.2-1.5
				c0.8-0.4,1.6-0.7,2.4-0.6c2.1,0.1,4.1,0.2,6.2,0.3c1,0,2.1,0.1,3.1,0.1c0.1,0,0.2-0.1,0.3-0.2c-0.1-0.1-0.1-0.2-0.2-0.3
				c-0.3-0.1-0.6-0.3-0.9-0.3c-1.4-0.4-2.8-1-4-1.9c-0.3-0.2-0.5-0.4-0.4-0.8c0.1-0.5,0.2-1,0.4-1.5c0.1-0.4,0.3-0.7,0.4-1.1
				c0-0.4,0.2-0.8,0.5-1c0.5-0.4,1.1-0.9,1.6-1.3c0.2-0.2,0.5-0.4,0.8-0.5c1.8-0.5,3.6-0.8,5.4-0.4c1.4,0.3,2.9,0.6,4.3,0.9
				c0.2,0,0.4,0,0.5-0.1c1-0.4,1.9-1.1,2.7-1.8c0.3-0.2,0.5-0.6,0.5-1c-0.1-0.5-0.4-0.7-0.9-0.8c-0.4-0.1-0.7-0.1-1.1-0.1
				c-0.8,0-1.5,0.1-2.3,0.1c-1.1,0.1-1.9-0.3-2.6-1.2c-0.3-0.4-0.5-0.9-0.3-1.4c0.3-1.1,1-2.1,1.8-2.9c1.3-1.5,2.8-2.7,4.5-3.8
				c0.3-0.2,0.7-0.5,0.8-0.8c0.3-0.9,0.3-1.9-0.5-2.6c-0.5-0.4-1.1-0.8-1.7-1.1c-0.8-0.4-1.5-0.9-2.2-1.4c-2.1-1.8-3.1-4-2.9-6.8
				c0-0.6,0.1-1.3,0.1-1.9c0.1-1.1,0.3-2.3,0.5-3.4c0.1-0.5,0.3-0.9,0.4-1.3c0.1-0.5-0.2-0.7-0.6-0.6c-0.2,0.1-0.4,0.2-0.5,0.3
				c-0.5,0.3-1.1,0.4-1.7,0.1c-0.4-0.2-0.7-0.5-1.1-0.8c-0.3-0.2-0.5-0.3-0.8,0c-0.2,0.1-0.3,0.3-0.5,0.4c-0.8,0.7-1.7,1.2-2.8,1.1
				c-0.8-0.1-1.3-0.5-1.2-1.4c0-0.3,0.1-0.6,0.1-0.8c0-0.3-0.1-0.4-0.4-0.3c-0.5,0.2-0.9,0.5-1.4,0.7c-0.3,0.1-0.6,0.3-0.8,0.2
				c-0.4,0-0.8-0.1-1.1-0.3c-0.7-0.3-0.9-1-0.6-1.7c0.2-0.4,0.5-0.7,0.7-1.1c0.2-0.3,0.5-0.6,0.7-0.9c0.2-0.4,0.2-0.5-0.2-0.7
				c-0.4-0.3-0.9-0.5-1.3-0.8c-0.8-0.6-1.2-1.5-1.6-2.4c0-0.1,0-0.2,0-0.3c0.3-0.4,0.3-0.9,0.4-1.4c0.3-1.8,1.4-3,2.7-4.2
				c0.6-0.5,1.2-1,1.8-1.6c0.4-0.4,0.3-0.8-0.2-1.1c-0.3-0.1-0.6-0.2-0.9-0.3c-0.5-0.2-1.1-0.3-1.6-0.5c-0.7-0.3-1-0.8-0.9-1.6
				c0.2-1.6,0.8-2.9,2.1-3.8c0.4-0.3,0.8-0.5,1.3-0.7c0.3-0.2,0.5-0.3,0.8-0.4c0.2-0.1,0.4-0.3,0.4-0.6c0-0.3-0.2-0.5-0.5-0.6
				c-0.4-0.1-0.7-0.2-1.1-0.3c-1.1-0.2-1.8-0.8-2.2-1.9c0-0.1-0.1-0.1-0.2-0.2c-0.1-0.2-0.2-0.3-0.2-0.5c0.1-0.8,0.2-1.5,0.4-2.3
				c0.2-0.7,0.3-1.5,1-2c0.4-0.3,0.7-0.6,1.1-0.8c0.7-0.3,1.2-0.9,1.7-1.4c0.3-0.2,0.3-0.5,0.3-0.8c-0.1-0.4-0.2-0.8-0.3-1.2
				c-0.3-0.9-0.4-1.8-0.5-2.7c-0.1-3.1-0.1-6.1,0.4-9.2c0.1-0.7,0.2-1.4,0.3-2.1c0.2-0.8,0.5-1.5,0.7-2.2c0.4-1.1,0.8-2.1,1.2-3.2
				c0.2-0.5,0.5-1,0.8-1.4c0.3-0.6,0.7-1.2,0.9-1.9c0.1-0.4,0.3-0.6,0.5-0.9c0.2-0.2,0.3-0.4,0.4-0.6c0.2-0.2,0.3-0.4,0.5-0.6
				c0.2-0.3,0.4-0.5,0.6-0.8c0.2-0.3,0.4-0.5,0.7-0.8c0.2-0.2,0.5-0.4,0.7-0.6c1.1-1.2,2.4-2,3.7-2.8c0.7-0.4,1.5-0.7,2.2-1.1
				c0.1-0.1,0.2-0.1,0.3-0.2c0.3-0.2,0.2-0.5-0.1-0.7c-0.2-0.1-0.5-0.1-0.8-0.2c-1.5-0.2-2.8-0.8-3.9-1.9c-0.4-0.4-0.9-0.7-1.5-0.8
				c-0.8-0.1-1.6-0.5-2.3-0.8c-2.9-1.1-5.7-2.4-8.6-3.4c-1.7-0.6-3.3-1.6-5.1-2.2c-0.3-0.1-0.6-0.3-0.9-0.4
				c-0.6-0.2-1.2-0.2-1.8,0.1c-0.1,0-0.2,0.2-0.2,0.3c0,1.5,0,3.1,0.1,4.6c0,0.6,0.2,1.1,0.6,1.6c0.2,0.3,0.4,0.6,0.5,1
				c0.3,0.8,0.2,1.6,0.2,2.4c0,0.3,0,0.6,0.2,0.8c0.4,0.6,0.4,1.1,0,1.6c-0.6,0.7-0.5,1.4-0.3,2.2c0.2,0.5,0.3,1,0.7,1.5
				c0.3,0.3,0.4,0.8,0.6,1.2c0,0.1,0.1,0.2,0.2,0.3c0.1,0.2,0.3,0.3,0.4,0.5c1.1,1.5,1.7,3.2,1.8,5c0.2,2.8-0.2,5.5-1,8.1
				c-0.1,0.4-0.3,0.8-0.5,1.1c-0.1,0.1-0.4,0.2-0.5,0.2c-0.1,0-0.3-0.2-0.3-0.4c-0.1-0.2-0.2-0.5-0.2-0.7c0-0.1-0.1-0.3,0-0.4
				c0.3-0.7,0.2-1.3,0.1-2c-0.1-1.1-0.3-2.3-0.5-3.4c-0.1-0.4-0.2-0.8-0.3-1.2c0-0.1-0.3-0.2-0.4-0.2c0,0-0.1,0.2-0.1,0.3
				c0,0.1,0,0.1,0,0.2c0.2,1.3,0.4,2.6,0.5,3.9c0.1,0.8,0.2,1.6,0.3,2.3c0,0.2,0.1,0.4-0.2,0.5c-0.3,0.1-0.3-0.1-0.4-0.3
				c-0.1-0.2-0.2-0.4-0.4-0.6c-0.3,0.4-0.5,0.4-0.7,0c-0.1-0.1-0.2-0.3-0.3-0.5c-0.1-0.1-0.2-0.3-0.2-0.4c0,0-0.1,0-0.1,0
				c0,0.1,0,0.3,0,0.4c0,0.4,0.1,0.8,0.1,1.3c0,0.1-0.1,0.2-0.2,0.3c-0.1,0-0.3,0-0.3-0.1c-0.3-0.4-0.6-0.3-1-0.1
				c-0.2,0.1-0.4,0.1-0.6-0.1c-0.1-0.1-0.2-0.2-0.2-0.3c-0.7-0.9-0.9-2.1-1.2-3.2c-0.5-1.5-0.7-3-1-4.5c-0.2-1.1-0.4-2.2-0.6-3.3
				c0-0.6,0-1.2,0-1.9c0-0.1,0.1-0.3,0.1-0.4c0-1.5,0.3-2.9,1-4.2c0.3-0.6,0.3-1.1-0.2-1.6c0,0-0.1-0.1-0.1-0.1
				c-0.2-0.2-0.2-0.3-0.1-0.5c0.1-0.4,0.3-0.8,0.4-1.2c0.1-1,0.4-1.9,1-2.7c0.4-0.5,0.8-1,1.2-1.5c0.1-0.1,0.1-0.3,0.1-0.4
				c0-2.3,0-4.5-0.1-6.8c0-0.4-0.1-0.9-0.2-1.3c-0.1-0.6,0-1.2,0.5-1.6c0.3-0.3,0.7-0.5,1-0.6c1.1-0.5,2.2-1,3.2-1.4
				c0.3-0.1,0.5-0.3,0.7-0.4c0.6-0.1,1.1-0.3,1.6-0.7c0.4-0.2,0.8-0.4,1.1-0.6c1.2-0.5,2.3-1.2,3.6-1.5c0.1,0,0.1-0.1,0.2-0.1
				c1.5-0.7,2.9-1.7,4.5-2.3c0.2-0.1,0.3-0.2,0.5-0.3c0.5-0.3,1.1-0.6,1.6-0.8c0.5-0.2,0.9-0.4,1.4-0.8c0.4-0.3,0.8-0.5,1.2-0.8
				c0.7-0.4,1.5-0.4,2.1-0.8c0.7-0.4,1.5-0.7,2.2-1.2c0.5-0.3,1-0.6,1.6-0.8c0.5-0.2,1-0.4,1.4-0.7c0.7-0.5,1.3-0.9,2.2-1.1
				c1.1-0.3,2-0.9,3-1.3c0.2-0.1,0.4-0.2,0.7-0.3c0.3-0.2,0.7-0.3,1-0.5c0.4-0.2,0.7-0.5,1.1-0.6c0.8-0.3,1.4-0.9,2.2-1
				c0,0,0.1,0,0.1,0c0.4-0.2,0.9-0.4,1.3-0.6c0.6-0.2,1.2-0.4,1.8-0.7c0.5-0.2,0.9-0.5,1.3-0.7c0.7-0.4,1.4-0.7,2-1
				c1.2-0.6,2.4-1.1,3.6-1.7c0.1,0,0.2-0.1,0.3-0.1c0.6-0.3,1.2-0.6,1.7-0.9C233,345.2,233.8,344.9,234.6,344.7z M232,375.6
				c0,0.6-0.7,1.3-1.3,1.1c-0.5-0.1-1-0.5-1.2-1c-0.2-0.4-0.4-0.9-0.5-1.3c-0.3-0.6-0.1-1,0.5-1.3c0.2-0.1,0.3-0.1,0.5-0.2
				c0.8-0.2,1.5-0.4,2.3-0.7c0.6-0.2,1.2-0.5,1.7-0.8c0.4-0.2,0.7-0.5,0.9-0.9c0.5-0.8,0.2-1.8-0.8-1.9c-0.4-0.1-0.8-0.1-1.2,0
				c-1.4,0.4-2.6,1.1-3.7,2c-0.5,0.5-1,0.9-1.5,1.3c-0.1,0.1-0.2,0.1-0.3,0.1c-0.1,0-0.1-0.2-0.1-0.3c0-0.7,0-0.7-0.7-0.7
				c0,0-0.1,0-0.1,0c-2.2,0.4-4.3,0.9-6.4,1.6c-0.9,0.3-1.8,0.7-2.8,1.1c-0.2,0.1-0.5,0.1-0.7,0.2c-0.9,0.5-1.8,0.9-2.7,1.4
				c-0.1,0.1-0.2,0.2-0.2,0.3c0.1,1.1,0.2,2.1,0.3,3.2c0.2,1.1,0.4,2.3,0.6,3.4c0.1,0.5,0.2,1,0.4,1.5c0.3,0.7,0.7,1.3,1,1.9
				c0.4,0.8,1,1.5,1.8,1.9c1.6,1,3.3,1.7,5.2,1.8c0.7,0.1,1.4,0.3,2.1,0c1-0.3,1.8-0.2,2.7,0.4c0.8,0.5,1.7,0.4,2.5-0.2
				c0.2-0.2,0.5-0.4,0.7-0.6c0.3-0.3,0.6-0.4,1-0.4c0.4,0,0.9,0,1.3-0.1c1.8-0.3,3.4-1.2,4.8-2.3c0.1-0.1,0.3-0.3,0.4-0.4
				c0.2-0.3,0.5-0.7,0.7-1c0.8-1.2,1.5-2.4,1.8-3.9c0.1-1,0.3-1.9,0.4-2.9c0-0.2,0-0.5-0.2-0.6c-0.3-0.2-0.3-0.5-0.2-0.8
				c0.2-0.7,0.2-1.4-0.1-2.2c-0.3-0.6-0.6-1.2-0.8-1.8c-0.2-0.6-0.6-0.7-1.1-0.9c-0.5-0.2-1.1-0.2-1.6-0.5c-0.6-0.3-1.2-0.3-1.9-0.1
				c-1.2,0.4-2.3,1.2-3.3,1.9c-0.2,0.1-0.3,0.5-0.3,0.7C231.9,374.5,231.9,374.9,232,375.6z M246.9,418.8c0,2.1,0.5,4.1,1.6,6
				c0.5,0.9,0.8,1,1.8,0.8c1.6-0.4,3.2-0.7,4.9-1.1c1.6-0.4,3.1-0.9,4.7-1.2c2.2-0.5,4.3-1,6.5-1.6c1.1-0.3,2.2-0.5,3.2-0.8
				c0.2-0.1,0.4-0.2,0.5-0.4c-0.1-0.1-0.3-0.3-0.4-0.4c-0.7-0.5-1.4-1-2.1-1.6c-1.4-1.2-2.2-2.7-2.8-4.3c-1-2.6-0.9-5.2,0.1-7.8
				c0.4-1.1,0.9-2.2,1.5-3.1c0.1-0.2,0.2-0.4,0.4-0.6c0.1-0.2,0.1-0.3,0.2-0.5c0.1-0.2,0-0.3-0.3-0.2c-0.2,0.1-0.4,0.1-0.5,0.2
				c-1.8,0.9-3.6,1.8-5.4,2.8c-1.4,0.7-2.7,1.6-4.1,2.2c-2.4,1.1-4.6,2.5-6.9,3.9c-0.8,0.5-1.3,1.2-1.6,2
				C247.3,415,246.9,416.9,246.9,418.8z M235.9,366.1c0.5-0.2,1-0.1,1.4,0c1.4,0.3,2.8,0.6,4.2,1.1c0.2,0.1,0.3,0.1,0.5,0.1
				c0.1,0,0.2,0,0.3-0.1c0-0.1,0-0.2-0.1-0.2c-0.2-0.1-0.3-0.3-0.5-0.4c-0.6-0.3-1.2-0.6-1.9-0.8c-0.9-0.3-1.8-0.7-2.8-0.8
				c-0.3,0-0.5-0.1-0.8-0.2c-0.1,0-0.1-0.2-0.2-0.3c0.1,0,0.2-0.1,0.3-0.1c0.4,0,0.7,0.1,1,0.1c1.2,0.1,2.3,0.3,3.4,0.8
				c0.2,0.1,0.3,0.1,0.5,0.2c0.1,0,0.2,0,0.3,0c0-0.1,0-0.2,0-0.3c-0.2-0.4-0.6-0.6-1-0.7c-0.7-0.2-1.5-0.5-2.2-0.7
				c-0.5-0.2-1-0.4-1.5-0.6c-1.2-0.3-2.3-0.5-3.5-0.8c-0.3-0.1-0.5-0.2-0.5-0.5c0-0.1-0.1-0.2-0.2-0.2c-0.1,0.1-0.2,0.1-0.2,0.2
				c0,0.3-0.2,0.3-0.4,0.3c-0.5,0-0.9,0-1.4,0c-0.9,0-1.7-0.1-2.6-0.1c-0.7,0-1.5,0.1-2.2,0.2c-1.7,0.3-3.5,0.6-5.2,0.9
				c-0.9,0.2-1.9,0.4-2.8,0.8c-1.4,0.6-2.8,1.4-4.2,2.1c-1.3,0.7-2,2-2.2,3.4c-0.1,0.7,0,1.4,0,2.1c0.1,1,0.1,1.9,0.3,2.9
				c0.1,0.7,0.3,0.8,0.9,0.5c0.2-0.1,0.3-0.2,0.5-0.3c0.8-0.4,1.7-0.8,2.5-1.3c1.1-0.6,2.3-0.7,3.4-1.4c0,0,0.1,0,0.1,0
				c1.3-0.3,2.4-0.8,3.7-1.1c1.2-0.3,2.5-0.6,3.8-0.7c0.5,0,1.1-0.1,1.6-0.1c0.9-0.1,1.7-0.6,2.4-1.1c0.1-0.1,0.2-0.2,0.4-0.2
				c0.4-0.2,0.9-0.2,1.3-0.5c0.6-0.3,1.3-0.4,2-0.4c0.7,0,1.2,0.3,1.4,1c0,0.1,0,0.1,0.1,0.1c0.1,0.1,0.2,0.2,0.4,0.3
				c0.3,0.1,0.7,0.1,1,0.1c0.8,0,1.7,0.1,2.4,0.5c0.2,0.1,0.4,0.1,0.7,0.2c0.5,0.2,1,0.4,1.6,0.6c0.2,0.1,0.4,0.2,0.6,0.3
				c0.1,0,0.3,0,0.4,0.1c0-0.4-0.2-0.5-0.4-0.6c-1.3-0.9-2.6-1.6-4.2-1.9c-0.4-0.1-0.9-0.2-1.3-0.3c-0.2,0-0.3-0.2-0.4-0.3
				c0.2-0.1,0.3-0.1,0.5-0.2c0.1,0,0.1,0,0.2,0c0.7,0.1,1.4,0.2,2.2,0.4c1,0.2,2,0.5,2.9,1c0.1,0.1,0.3,0.1,0.4,0.1
				c0.1,0,0.2,0,0.3-0.1c0-0.1,0-0.2-0.1-0.3c0-0.1-0.1-0.1-0.2-0.1c-1.3-0.7-2.7-1.5-4.2-1.8c-0.7-0.2-1.3-0.4-2-0.6
				C236.3,366.3,236.1,366.2,235.9,366.1z M229,493.4C229,493.4,229,493.4,229,493.4c0.7-0.1,1.5,0,2.2-0.1c0.9,0,1.4-0.4,1.6-1.1
				c0.4-1.5,0.2-3-0.3-4.4c-0.1-0.2-0.3-0.4-0.5-0.4c-0.5-0.1-1-0.1-1.5,0.1c-0.6,0.3-1.3,0.5-2,0.8c-2.4,0.9-5,1.2-7.6,1.3
				c-1.8,0.1-3.6,0.2-5.3-0.3c-0.6-0.2-1.2-0.2-1.8-0.3c-1.9-0.5-3.8-1.1-5.7-1.6c-1.1-0.3-2.2-0.6-3.4-0.9c-0.5-0.1-1-0.2-1.5-0.4
				c-0.9-0.2-1.7-0.5-2.6-0.3c-0.9,0.1-1.7,0.4-2.5,0.7c-0.4,0.1-0.8,0.3-1.1,0.6c-0.8,0.8-0.7,2.2,0.3,2.7c0.7,0.4,1.3,0.7,2.1,1
				c0.6,0.2,1.2,0.3,1.8,0.5c1.5,0.4,3.1,0.7,4.6,1c1.4,0.3,2.8,0.5,4.2,0.6c1.7,0.1,3.4,0.2,5.1,0.2c3.4,0.1,6.9,0.1,10.3,0.1
				C226.6,493.3,227.8,493.4,229,493.4z M265.8,452.3c0.1,0,0.1,0,0.2,0c0.2-0.3,0.4-0.6,0.5-0.9c0.9-2.1,1.6-4.3,2.1-6.6
				c0.2-0.7,0.4-1.4,0.8-2c0.2-0.3,0.4-0.3,0.5,0c0.1,0.2,0.2,0.4,0.2,0.6c0.1,0.2,0.1,0.4,0.1,0.6c0.2,0.8,0.5,1.6,0.7,2.4
				c0.2,0.6,0.2,1.2,0.4,1.8c0.1,0.5,0.3,0.9,0.4,1.3c0.2,0.8,0.3,1.6,0.5,2.3c0,0.2,0.1,0.4,0.2,0.6c0,0.1,0.2,0.2,0.2,0.3
				c0.1-0.1,0.2-0.2,0.3-0.3c0.1-0.1,0.1-0.2,0.1-0.4c0.1-0.4,0.1-0.8,0.1-1.2c-0.1-4.7,0.1-9.3-0.3-14c-0.2-2.9-0.2-5.7-0.6-8.6
				c-0.2-1.6-0.5-3.3-0.8-4.9c-0.1-0.4-0.2-0.6-0.6-0.4c-1.5,0.4-3,0.8-4.4,1.3c-0.7,0.2-0.8,0.5-0.6,1.2c0.5,1.5,0.6,3,0.7,4.6
				c0.3,2.8,0.4,5.7,0.2,8.5c-0.1,2-0.2,4-0.3,6c0,0.7,0,1.4-0.2,2.1c-0.3,1.7-0.4,3.3-0.5,5C265.8,452,265.8,452.1,265.8,452.3z
				 M235.9,390.5c0-0.7-0.1-0.8-0.6-0.8c-0.1,0-0.2,0-0.3,0c-0.9,0.1-1.7,0.2-2.6,0.3c-0.6,0.1-1.2,0.2-1.6,0.8
				c-0.3,0.4-0.7,0.6-1.2,0.6c-0.6-0.1-1.2-0.1-1.7-0.3c-1-0.4-2-0.5-3-0.5c-0.9,0-1.8-0.1-2.7-0.1c-0.3,0-0.5-0.1-0.7-0.1
				c-0.3,0-0.5,0.2-0.4,0.5c0.1,0.3,0.3,0.6,0.5,0.9c0.3,0.5,0.7,0.9,1.1,1.4c1.1,1.4,1.8,2.9,2.6,4.4c0.1,0.2,0.1,0.3,0.2,0.5
				c0.1,0.3,0.2,0.6,0.3,0.8c1.2,1.8,1.9,3.8,2.7,5.8c0.4,1,1,2,1.5,3c0.2,0.4,0.5,0.4,0.7,0c0.3-0.5,0.5-1.1,0.7-1.7
				c0.5-1.4,0.9-2.8,1.4-4.2c0.2-0.5,0.4-1,0.6-1.6c0.8-2.9,1.6-5.9,2.4-8.8C235.8,391.1,235.9,390.7,235.9,390.5z M245.9,494.1
				c1.7-0.2,3.5-0.3,5.2-0.5c1.4-0.2,2.7-0.2,4.1-0.7c1-0.4,2.1-0.6,3.2-1c0.3-0.1,0.7-0.2,0.9-0.3c0.5-0.3,1.1-0.7,1.6-1.1
				c0.2-0.2,0.4-0.4,0.5-0.6c0.1-0.2,0.1-0.5-0.1-0.7c-0.6-0.6-1.2-1.1-2.2-1c-0.1,0-0.1,0-0.2,0c-1-0.1-1.9-0.3-2.9-0.3
				c-1.1,0-2.3,0.1-3.4,0.3c-1.7,0.2-3.4,0.5-5.1,1.3c-1.7,0.8-3.5,1.4-5.4,1.8c-1.3,0.3-2.6,0.5-3.9,0.8c-0.2,0-0.4,0.2-0.6,0.3
				c0.2,0.2,0.3,0.4,0.5,0.5c1,0.4,2,0.8,3,1C242.6,494,244.2,494,245.9,494.1z M283.8,409.2c0-0.4,0-0.8-0.1-1.3
				c-0.3-1.5-0.6-2.9-1.7-4.1c-0.2-0.2-0.4-0.5-0.6-0.8c-0.9-1.1-2.2-1.6-3.5-1.9c-0.7-0.2-1.5-0.4-2.2-0.3
				c-1.2,0.2-2.3,0.7-3.3,1.5c-0.6,0.5-1.2,1-1.6,1.7c-0.1,0.2-0.2,0.4,0,0.6c0.2,0.2,0.4,0.1,0.6,0.1c0.8-0.3,1.6-0.7,2.4-0.9
				c0.7-0.2,1.3-0.5,2-0.6c1.1-0.2,2.1,0.2,3.1,0.6c1.2,0.5,2,1.4,2.6,2.5c0.1,0.1,0.1,0.2,0.1,0.3c0.4,1.6,0.5,3.2,0.2,4.9
				c-0.4,2.1-1.3,3.8-2.8,5.3c-0.4,0.4-0.8,0.7-1.3,0.8c-0.3,0.1-0.5,0.1-0.8,0.3c-1,0.5-2.1,0.8-3.3,1c-0.5,0.1-1,0.2-1.5,0.3
				c-0.2,0-0.3,0.3-0.4,0.4c0,0.2,0.2,0.3,0.4,0.3c1.4,0.2,2.7,0.2,4.1-0.2c1.1-0.4,2.3-0.5,3.3-1.3c0.6-0.4,1.1-0.9,1.6-1.5
				c0.7-0.8,1.2-1.6,1.6-2.6C283.6,412.8,283.7,411,283.8,409.2z M276.5,404.1c-1.1,0-1.7,0.2-2.2,0.7c-0.4,0.4-0.7,0.8-1.1,1.3
				c-0.2,0.2-0.3,0.4-0.3,0.7c-0.1,0.4,0.1,0.6,0.5,0.5c0.3-0.1,0.6-0.2,0.9-0.3c0.5-0.2,0.9-0.4,1.4-0.6c1.5-0.5,2.8,0,3.4,1.5
				c0.5,1.2,0.6,2.4,0.3,3.6c-0.2,1-0.6,1.8-1.3,2.5c-0.6,0.7-1.5,0.8-2.2,1.2c-0.1,0-0.1,0-0.2,0c-0.7,0.1-1.3,0.3-1.8,0.7
				c-0.4,0.2-0.3,0.5,0,0.7c0.6,0.2,1.3,0.3,1.9,0.4c0.2,0,0.3,0,0.5,0c1.9-0.5,3.2-1.7,4-3.4c0.5-1.1,0.8-2.4,0.8-3.6
				c0-0.6,0.2-1.1,0.1-1.7c-0.3-1.2-0.7-2.3-1.6-3.1C278.6,404.5,277.4,404.2,276.5,404.1z M210.5,383.3c0.4,0,0.9,0,1.3-0.1
				c0.3,0,0.6-0.2,0.9-0.3c0.4-0.2,0.6-0.5,0.6-0.9c0-0.6,0-1.2-0.1-1.8c-0.1-0.6-0.5-1.1-1.2-1.1c-0.6,0-1.3,0-1.9,0.1
				c-0.9,0.1-1.6,0.5-2.1,1.2c-0.1,0.1-0.4,0.3-0.4,0.3c-0.2-0.2,0-0.4,0.1-0.6c0.5-1,1.4-1.6,2.4-1.9c0.7-0.2,1.4-0.3,2.1-0.4
				c0.2,0,0.4-0.1,0.4-0.4c0-0.3-0.2-0.4-0.4-0.5c-0.8-0.3-1.7-0.5-2.5,0c-0.9,0.4-1.8,0.8-2.6,1.4c-0.6,0.4-1.1,1-1.6,1.6
				c-0.4,0.5-0.3,1.3,0.2,1.7c0.6,0.6,1.2,1,2,1.2C208.6,383,209.5,383.2,210.5,383.3z M265.4,410c0.1,0.7,0.1,1.3,0.2,1.9
				c0.4,1.8,1.2,3.4,2.2,4.9c0.4,0.6,0.9,1,1.6,1.3c0.1,0,0.2,0.1,0.3,0c0.4-0.1,0.7-0.2,1.1-0.4c0.6-0.3,0.6-0.4,0.1-0.9
				c-0.3-0.3-0.7-0.6-1-0.9c-1.9-2.3-2.5-5-2.1-8c0.2-1.5,0.9-2.7,1.7-3.9c0.1-0.2,0.4-0.5,0.2-0.7c-0.2-0.2-0.5-0.1-0.8,0.1
				c-0.5,0.3-1,0.5-1.4,0.8c-0.4,0.2-0.8,0.5-1,0.9c-0.3,0.6-0.6,1.3-0.7,2C265.6,408.2,265.6,409.2,265.4,410z M213.6,406.4
				c-0.1,0-0.1,0-0.2,0c-0.1,0.1-0.1,0.3-0.2,0.4c-0.2,1.9-0.4,3.8-0.6,5.7c-0.2,2.9-0.3,5.8-0.5,8.8c-0.1,2.8-0.2,5.7-0.3,8.5
				c-0.1,2.8,0,5.7-0.1,8.5c0,1.8-0.1,3.6-0.1,5.3c0,0.1,0.1,0.3,0.2,0.3c0.1,0,0.3,0,0.3-0.1c0.1-0.1,0.2-0.3,0.2-0.4
				c0.1-0.3,0.1-0.7,0.1-1c0-1.7,0.1-3.5,0.1-5.2c0-3.4,0.2-6.9,0.3-10.3c0.1-2.7,0.2-5.4,0.3-8c0.1-2.3,0.2-4.6,0.2-6.9
				c0.1-1.6,0.1-3.3,0.1-4.9C213.7,406.9,213.7,406.7,213.6,406.4z M245.7,375.2C245.7,375.2,245.7,375.2,245.7,375.2
				c-1.1,0.1-1.8,0.3-2.5,0.9c-0.6,0.5-0.7,1-0.4,1.7c0.2,0.4,0.5,0.5,0.9,0.3c0.1-0.1,0.2-0.1,0.3-0.2c0.6-0.5,1.3-0.9,2.1-1.2
				c0.3-0.1,0.6-0.1,0.9-0.1c0.3,0,0.4,0.2,0.1,0.4c-0.2,0.2-0.5,0.3-0.8,0.5c-0.2,0.1-0.5,0.2-0.8,0.3c-0.7,0.5-1.5,0.9-2.2,1.4
				c-0.2,0.1-0.4,0.3-0.5,0.5c-0.3,0.7-0.5,1.3-0.7,2c-0.1,0.5,0.3,0.7,0.7,0.5c0.3-0.1,0.6-0.4,0.8-0.6c0.3-0.4,0.8-0.6,1.3-0.7
				c0.5-0.1,0.9-0.3,1.2-0.6c0.2-0.2,0.5-0.4,0.7-0.5c0.5-0.3,1.1-0.5,1.5-0.8c0.9-0.6,1-1.3,0.5-2.3c-0.3-0.5-0.6-1-1.2-1.1
				C247.2,375.5,246.4,375.3,245.7,375.2z M271.4,415.5c0.6-0.2,1.1-0.3,1.7-0.5c0.3-0.1,0.4-0.4,0.2-0.7c-0.4-0.6-0.7-1.1-1.1-1.7
				c-0.5-0.7-0.9-1.5-0.9-2.4c-0.1-1.1-0.1-2.2,0.4-3.2c0.2-0.4,0.3-0.7,0.4-1.1c0.1-0.3,0-0.4-0.3-0.4c-1.2,0.1-2.1,0.8-2.4,2
				c-0.3,1.1-0.3,2.3-0.2,3.5c0.1,0.7,0.1,1.5,0.4,2.1c0.3,0.7,0.7,1.3,1.1,2C270.8,415.3,271,415.5,271.4,415.5z M278.4,410.4
				c0-1.6-0.3-2.3-1.5-3c-0.5-0.3-0.8-0.3-1.3,0.1c-0.3,0.2-0.5,0.5-0.7,0.8c-0.4,0.4-0.5,1-0.4,1.5c0.1,0.4,0.3,0.8,0.4,1.2
				c0.1,0.2,0.2,0.3,0.2,0.5c0.2,0.5,0.1,0.7-0.3,1c-0.2,0.1-0.3,0.2-0.5,0.4c-0.2,0.2-0.2,0.3,0,0.5c0.4,0.5,1.5,0.7,2,0.3
				c0.3-0.2,0.7-0.5,1-0.7c0.5-0.4,0.8-0.9,0.9-1.5C278.3,411,278.4,410.6,278.4,410.4z M222.4,494.3c-0.2-0.3-0.4-0.4-0.9-0.5
				c-0.7-0.1-1.4,0-2.1,0.1c-1.9,0.1-3.9,0.2-5.8,0.3c-1.6,0-3.2,0-4.8-0.3c-0.7-0.1-1.5-0.1-2.2-0.3c-1.8-0.4-3.6-0.8-5.3-1.2
				c-1.5-0.3-3-0.8-4.3-1.6c-0.3-0.2-0.7-0.3-1.1-0.5c-0.1,0-0.3-0.1-0.3,0c-0.1,0.1-0.1,0.2,0,0.4c0,0.1,0.1,0.3,0.3,0.3
				c0.2,0.1,0.4,0.2,0.6,0.3c2.3,1,4.7,1.8,7.2,2.4c1.9,0.4,3.9,0.7,5.8,0.8c1.1,0.1,2.2,0.2,3.3,0.2c1.8,0,3.6,0,5.4,0
				c1.1,0,2.2-0.1,3.3-0.2C221.7,494.6,222,494.4,222.4,494.3z M236.9,493C236.8,493,236.8,493,236.9,493c0,0.2,0,0.3,0.1,0.4
				c0.1,0.1,0.3,0.2,0.5,0.4c1.4,1,3,1.2,4.6,1.4c1.2,0.1,2.3,0.1,3.5,0.2c1.2,0.1,2.5,0.1,3.7,0c0.6,0,1.1-0.2,1.7-0.2
				c1.3,0,2.5-0.2,3.8-0.4c1.3-0.3,2.6-0.5,3.8-1c0.9-0.4,1.8-0.7,2.7-1.1c0.4-0.2,0.6-0.5,0.9-0.8c0.1-0.2,0.2-0.4,0-0.6
				c-0.2-0.2-0.4,0-0.6,0.1c0,0,0,0,0,0c-0.4,0.3-0.9,0.7-1.3,1c-0.1,0-0.1,0-0.2,0.1c-0.2,0.1-0.5,0.1-0.7,0.2
				c-0.5,0.2-1,0.4-1.5,0.6c-0.3,0.1-0.6,0.1-0.8,0.2c-0.2,0-0.4,0.1-0.5,0.1c-0.3,0.1-0.6,0.2-0.9,0.3c-1.1,0.2-2.2,0.4-3.3,0.6
				c-0.4,0.1-0.9,0.2-1.3,0.2c-1.7,0.1-3.4,0.2-5,0.3c-1,0-2.1,0.1-3.1-0.3c-0.1,0-0.1,0-0.2,0c-0.5-0.1-1-0.1-1.4-0.2
				c-1.2-0.4-2.4-0.8-3.5-1.2C237.2,493,237,493,236.9,493z M212.2,478.7c0.5-0.2,1-0.3,1.5-0.5c1.6-0.7,3.1-1.5,4.6-2.3
				c1.1-0.6,2.1-1.2,3.2-1.7c1.5-0.8,3-1.6,4.3-2.6c0.1-0.1,0.3-0.2,0.4-0.3c0.1-0.1,0.1-0.2,0.2-0.4c-0.1,0-0.3-0.1-0.4-0.1
				c-0.5,0.2-1.1,0.3-1.5,0.5c-0.9,0.5-1.7,1-2.6,1.5c-1.3,0.7-2.6,1.5-3.9,2.2c-0.5,0.3-1,0.6-1.5,0.9c-0.5,0.3-1.1,0.5-1.6,0.7
				c-0.9,0.4-1.9,0.9-2.8,1.3c-0.1,0.1-0.2,0.3-0.3,0.4C211.9,478.5,212,478.6,212.2,478.7z M202.4,452.3c0.3-0.1,0.6-0.2,0.8-0.4
				c0.3-0.2,0.5-0.4,0.7-0.6c0.8-0.9,1.7-1.9,2.5-2.8c0.1-0.1,0.2-0.3,0.2-0.4c0-0.2,0.1-0.4,0-0.5c-0.1-0.1-0.3-0.1-0.5,0
				c-1,0.3-2,0.7-2.9,1c-0.3,0.1-0.5,0.4-0.7,0.6c-0.4,0.6-0.8,1.3-1.2,1.9c-0.3,0.5-0.2,0.7,0.3,1
				C201.9,452.2,202.2,452.2,202.4,452.3z M229.3,482.8c0.3,0.4,0.6,0.4,0.9,0.5c0.4,0,0.8,0.1,1.1,0.1c1.1,0.1,2.3,0.2,3.4,0.3
				c0.8,0.1,1.6,0.1,2.4,0.2c1.5,0.1,2.9,0.3,4.4,0.4c0.3,0,0.5-0.1,0.8-0.1c0,0,0-0.1,0-0.1c-0.4-0.2-0.7-0.4-1.1-0.5
				c-1.1-0.2-2.2-0.3-3.4-0.4c-1.4-0.1-2.7-0.3-4.1-0.4c-1.3-0.1-2.6-0.1-3.9-0.2C229.8,482.6,229.6,482.7,229.3,482.8z
				 M197.1,452.7c0.2-0.1,0.5-0.1,0.7-0.3c0.7-0.6,1.4-1.1,2.1-1.7c0.4-0.3,0.7-0.7,1-1.1c0.2-0.3,0.2-0.5-0.2-0.6
				c-0.3-0.1-0.7-0.1-1-0.1c-0.6,0-1.1,0.4-1.5,0.9c-0.4,0.3-0.7,0.7-1.1,1c-0.4,0.3-0.6,0.7-0.7,1.2
				C196.3,452.4,196.6,452.7,197.1,452.7z M254.4,355.4C254.4,355.4,254.4,355.4,254.4,355.4c0.1,0.2,0.2,0.3,0.3,0.3
				c0.7,0.3,1.4,0.6,2.1,1c0.6,0.3,1.2,0.7,1.9,0.8c1,0.3,1.8,1,2.7,1.4c0.3,0.1,0.5,0.3,0.8,0.4c2.1,1,4.3,1.8,6.3,2.9
				c0,0,0,0,0.1,0c0.1,0,0.2,0,0.3,0c0-0.1,0-0.2,0-0.3c-0.1-0.1-0.3-0.3-0.4-0.4c-1.2-0.6-2.3-1.2-3.5-1.8
				c-0.2-0.1-0.5-0.2-0.7-0.3c-0.4-0.2-0.7-0.4-1.1-0.6c-0.7-0.3-1.4-0.5-2.1-0.7c-1.2-0.4-2.1-1.1-3.2-1.7c-1-0.6-2-1-3.1-1.1
				C254.6,355.4,254.5,355.4,254.4,355.4z M228.6,495.9c0.8-0.1,1.7-0.1,2.5-0.2c0.3,0,0.5-0.1,0.8-0.2c0.3-0.2,0.5-0.8,0.3-1.1
				c-0.1-0.2-0.3-0.3-0.8-0.1c-0.5,0.1-1.1,0.2-1.6,0.3c-0.9,0.1-1.8,0.1-2.7,0.2c-0.4,0-0.6,0.2-0.5,0.7c0.1,0.3,0.3,0.5,0.6,0.5
				C227.6,495.8,228.1,495.8,228.6,495.9z M192.9,451.1c0,0,0.1,0,0.2,0c0.9-0.4,1.7-0.9,2.4-1.7c0.2-0.3,0.1-0.6-0.2-0.7
				c-0.3-0.1-0.7-0.1-1-0.2c-0.3-0.1-0.5,0-0.8,0.2c-0.5,0.4-0.9,0.8-1.1,1.4c-0.1,0.2-0.1,0.4-0.1,0.6
				C192.3,450.9,192.5,451.1,192.9,451.1z M243.3,373.8C243.3,373.7,243.4,373.7,243.3,373.8c0.1-0.2,0.1-0.4,0-0.5
				c-0.1-0.2-0.2-0.3-0.4-0.4c-1-0.9-2.2-1.6-3.4-2.3c-0.9-0.5-1.9-0.8-3-1c-0.1,0-0.4,0.1-0.4,0.2c0,0.1,0,0.3,0.1,0.5
				c0.1,0.1,0.3,0.1,0.4,0.2c0.6,0.2,1.1,0.4,1.7,0.5c1.1,0.3,2.2,0.8,3.1,1.5c0.5,0.4,1.1,0.8,1.6,1.2
				C243.1,373.7,243.2,373.7,243.3,373.8z M252.9,354.6C252.9,354.6,252.9,354.5,252.9,354.6c0-0.2-0.1-0.2-0.2-0.3
				c-0.6-0.6-1.4-0.9-2.1-1.1c-0.9-0.3-1.7-0.8-2.6-1.3c-0.9-0.5-1.8-0.9-2.7-1.4c-0.3-0.1-0.6-0.2-0.9-0.3
				c-0.3-0.1-0.5-0.2-0.8-0.3c-0.4-0.2-0.8-0.4-1.1-0.6c-0.1,0-0.2,0-0.3,0c0.1,0.1,0.1,0.3,0.2,0.3c0.6,0.3,1.2,0.6,1.8,0.9
				c0.6,0.3,1.2,0.6,1.8,0.8c0.2,0.1,0.5,0.3,0.8,0.3c0.6,0.1,1.1,0.4,1.7,0.7c0.9,0.4,1.8,0.9,2.7,1.4c0.4,0.2,0.8,0.4,1.2,0.5
				C252.4,354.5,252.7,354.6,252.9,354.6z M272.3,409.2C272.3,409.2,272.2,409.2,272.3,409.2c0.1,0.7,0.2,1.4,0.4,2
				c0.1,0.2,0.2,0.4,0.3,0.5c0.3,0.3,0.6,0.2,0.8-0.1c0-0.1,0-0.2,0-0.4c0-0.5-0.1-0.9-0.1-1.4c0-0.5,0-1-0.1-1.5
				c0-0.5-0.3-0.6-0.7-0.4C272.4,408.2,272.2,408.6,272.3,409.2z M180.8,398.5c0,0-0.1,0-0.1,0c0,0.3,0,0.6,0,0.8
				c0.3,1.2,0.6,2.4,0.9,3.6c0.1,0.5,0.3,1,0.5,1.4c0,0.1,0.2,0.1,0.3,0.2c0.1-0.1,0.2-0.2,0.2-0.3c0-0.2,0-0.4-0.1-0.5
				c-0.5-1.6-1-3.1-1.5-4.7C181,398.8,180.9,398.7,180.8,398.5z M235.7,346.5c0,0,0,0.1,0,0.1c0.1,0.1,0.1,0.1,0.2,0.2
				c0.9,0.6,1.9,1.1,3,1.4c0.2,0,0.3,0,0.5,0c0,0,0-0.1,0-0.1c-0.3-0.3-0.6-0.5-1-0.6c-0.1,0-0.2,0-0.2-0.1
				c-0.6-0.3-1.2-0.6-1.8-0.9C236.2,346.6,235.9,346.6,235.7,346.5z M238.7,469.8c0.1,0,0.2,0,0.2,0c0.2,0,0.5-0.1,0.5-0.3
				c0-0.2-0.1-0.5-0.3-0.6c-0.2-0.2-0.4,0-0.6,0.2c-0.1,0.1-0.2,0.2-0.3,0.3c-0.1,0.2,0,0.4,0.2,0.4
				C238.6,469.8,238.7,469.8,238.7,469.8z M252.4,433.9c-0.1-0.3-0.2-0.5-0.4-0.8c-0.1-0.1-0.2-0.1-0.3-0.2
				c-0.1,0.1-0.2,0.3-0.2,0.4c0.1,0.3,0.2,0.5,0.3,0.7c0,0.1,0.2,0.2,0.3,0.1C252.2,434.2,252.3,434,252.4,433.9z M271.4,363.5
				C271.4,363.6,271.3,363.6,271.4,363.5c0,0.2,0.1,0.3,0.2,0.3c0.3,0.2,0.6,0.3,0.9,0.5c0.1,0,0.2,0,0.4,0c0-0.1-0.1-0.3-0.1-0.4
				C272.3,363.7,271.8,363.5,271.4,363.5z M209.2,446.7c-0.2-0.2-0.3-0.3-0.4-0.3c-0.2-0.1-0.7,0.3-0.7,0.5c0,0.2,0.2,0.5,0.3,0.5
				C208.6,447.2,208.9,447,209.2,446.7z M241.8,374.7c0.2,0.2,0.3,0.4,0.5,0.6c0,0,0.2-0.1,0.3-0.1c0.2-0.2,0-0.5-0.1-0.7
				c-0.1-0.1-0.2-0.2-0.3-0.1C242,374.4,242,374.5,241.8,374.7z M196.6,449.7c0.2,0.1,0.4,0.2,0.4,0.2c0.2-0.2,0.4-0.3,0.4-0.5
				c0.1-0.2-0.2-0.4-0.4-0.3C196.9,449.2,196.8,449.4,196.6,449.7z M179.9,392.5c0.2-0.2,0.4-0.8,0.2-1c0,0-0.2-0.1-0.2,0
				C179.6,391.6,179.7,392.2,179.9,392.5z M250.9,376c0.1-0.1,0.3-0.3,0.2-0.3c-0.1-0.1-0.2-0.3-0.3-0.3c-0.2-0.1-0.2,0.1-0.2,0.3
				C250.6,375.9,250.6,376,250.9,376z M236.6,362.6c0.2-0.1,0.3-0.2,0.4-0.3c-0.1-0.1-0.2-0.2-0.3-0.2c-0.1,0-0.2,0.2-0.3,0.3
				C236.3,362.3,236.5,362.4,236.6,362.6z M186.1,395.9c0.1,0.1,0.2,0.2,0.3,0.3c0.1-0.1,0.2-0.2,0.3-0.3c0-0.1-0.1-0.2-0.2-0.3
				C186.3,395.7,186.2,395.8,186.1,395.9z M185.8,393.9c0,0-0.1,0-0.1,0.1c0,0.1,0.1,0.3,0.1,0.4c0,0,0.1,0,0.1,0
				c0-0.1,0.1-0.2,0.1-0.2C186,394.1,185.9,394,185.8,393.9z"/>
			<path class="st0" d="M178.4,394.3c0.2,1.1,0.4,2.2,0.6,3.3c0.3,1.5,0.6,3,1,4.5c0.3,1.1,0.5,2.2,1.2,3.2c0.1,0.1,0.2,0.2,0.2,0.3
				c0.2,0.2,0.3,0.2,0.6,0.1c0.3-0.2,0.7-0.3,1,0.1c0,0.1,0.2,0.1,0.3,0.1c0.1,0,0.2-0.2,0.2-0.3c0-0.4-0.1-0.8-0.1-1.3
				c0-0.1,0-0.3,0-0.4c0,0,0.1,0,0.1,0c0.1,0.1,0.2,0.3,0.2,0.4c0.1,0.2,0.2,0.3,0.3,0.5c0.2,0.3,0.4,0.3,0.7,0
				c0.1,0.2,0.3,0.4,0.4,0.6c0.1,0.2,0.2,0.4,0.4,0.3c0.3-0.1,0.2-0.3,0.2-0.5c-0.1-0.8-0.2-1.6-0.3-2.3c-0.2-1.3-0.4-2.6-0.5-3.9
				c0-0.1,0-0.1,0-0.2c0-0.1,0.1-0.3,0.1-0.3c0.1,0,0.4,0.1,0.4,0.2c0.1,0.4,0.3,0.8,0.3,1.2c0.2,1.1,0.4,2.3,0.5,3.4
				c0.1,0.7,0.2,1.4-0.1,2c0,0.1,0,0.3,0,0.4c0.1,0.2,0.1,0.5,0.2,0.7c0.1,0.2,0.2,0.4,0.3,0.4c0.2,0,0.4-0.1,0.5-0.2
				c0.2-0.4,0.4-0.7,0.5-1.1c0.9-2.6,1.2-5.4,1-8.1c-0.1-1.8-0.6-3.5-1.8-5c-0.1-0.2-0.3-0.3-0.4-0.5c-0.1-0.1-0.1-0.2-0.2-0.3
				c-0.2-0.4-0.4-0.9-0.6-1.2c-0.4-0.4-0.5-0.9-0.7-1.5c-0.3-0.8-0.3-1.5,0.3-2.2c0.4-0.5,0.5-1,0-1.6c-0.2-0.2-0.2-0.5-0.2-0.8
				c0-0.8,0-1.6-0.2-2.4c-0.1-0.3-0.3-0.7-0.5-1c-0.4-0.5-0.6-1-0.6-1.6c0-1.5-0.1-3.1-0.1-4.6c0-0.1,0.1-0.2,0.2-0.3
				c0.6-0.3,1.2-0.4,1.8-0.1c0.3,0.1,0.6,0.3,0.9,0.4c1.7,0.7,3.3,1.6,5.1,2.2c2.9,1,5.7,2.3,8.6,3.4c0.8,0.3,1.5,0.7,2.3,0.8
				c0.6,0.1,1.1,0.4,1.5,0.8c1.1,1.1,2.4,1.7,3.9,1.9c0.3,0,0.5,0.1,0.8,0.2c0.3,0.1,0.4,0.4,0.1,0.7c-0.1,0.1-0.2,0.1-0.3,0.2
				c-0.7,0.4-1.5,0.7-2.2,1.1c-1.3,0.8-2.7,1.6-3.7,2.8c-0.2,0.2-0.5,0.4-0.7,0.6c-0.2,0.2-0.4,0.5-0.7,0.8
				c-0.2,0.3-0.4,0.5-0.6,0.8c-0.2,0.2-0.3,0.4-0.5,0.6c-0.1,0.2-0.3,0.4-0.4,0.6c-0.2,0.3-0.4,0.6-0.5,0.9
				c-0.2,0.7-0.6,1.3-0.9,1.9c-0.3,0.5-0.6,0.9-0.8,1.4c-0.4,1-0.8,2.1-1.2,3.2c-0.3,0.7-0.5,1.5-0.7,2.2c-0.2,0.7-0.2,1.4-0.3,2.1
				c-0.5,3-0.4,6.1-0.4,9.2c0,0.9,0.2,1.8,0.5,2.7c0.1,0.4,0.2,0.8,0.3,1.2c0.1,0.3,0,0.6-0.3,0.8c-0.5,0.5-1,1-1.7,1.4
				c-0.4,0.2-0.7,0.6-1.1,0.8c-0.7,0.5-0.8,1.3-1,2c-0.2,0.7-0.3,1.5-0.4,2.3c0,0.2,0.1,0.3,0.2,0.5c0,0.1,0.1,0.1,0.2,0.2
				c0.4,1,1.1,1.7,2.2,1.9c0.4,0.1,0.7,0.2,1.1,0.3c0.3,0.1,0.4,0.3,0.5,0.6c0,0.3-0.1,0.5-0.4,0.6c-0.3,0.2-0.5,0.3-0.8,0.4
				c-0.4,0.2-0.9,0.5-1.3,0.7c-1.3,0.9-2,2.2-2.1,3.8c-0.1,0.8,0.2,1.3,0.9,1.6c0.5,0.2,1.1,0.3,1.6,0.5c0.3,0.1,0.6,0.1,0.9,0.3
				c0.5,0.2,0.5,0.7,0.2,1.1c-0.6,0.6-1.2,1.1-1.8,1.6c-1.3,1.1-2.4,2.4-2.7,4.2c-0.1,0.5-0.1,1-0.4,1.4c0,0.1,0,0.2,0,0.3
				c0.5,0.8,0.8,1.7,1.6,2.4c0.4,0.3,0.8,0.6,1.3,0.8c0.4,0.2,0.4,0.4,0.2,0.7c-0.2,0.3-0.5,0.6-0.7,0.9c-0.3,0.4-0.6,0.7-0.7,1.1
				c-0.3,0.7-0.1,1.3,0.6,1.7c0.3,0.2,0.7,0.3,1.1,0.3c0.3,0,0.6-0.1,0.8-0.2c0.5-0.2,0.9-0.5,1.4-0.7c0.3-0.1,0.4,0,0.4,0.3
				c0,0.3-0.1,0.6-0.1,0.8c0,0.8,0.4,1.3,1.2,1.4c1.1,0.1,2-0.4,2.8-1.1c0.1-0.1,0.3-0.3,0.5-0.4c0.3-0.2,0.5-0.2,0.8,0
				c0.4,0.3,0.7,0.6,1.1,0.8c0.6,0.3,1.1,0.1,1.7-0.1c0.2-0.1,0.4-0.2,0.5-0.3c0.4-0.1,0.7,0.1,0.6,0.6c-0.1,0.5-0.3,0.9-0.4,1.3
				c-0.2,1.1-0.4,2.3-0.5,3.4c-0.1,0.6-0.1,1.3-0.1,1.9c-0.2,2.8,0.8,5,2.9,6.8c0.7,0.6,1.4,1,2.2,1.4c0.6,0.3,1.2,0.7,1.7,1.1
				c0.8,0.7,0.8,1.7,0.5,2.6c-0.1,0.3-0.5,0.6-0.8,0.8c-1.6,1.1-3.2,2.4-4.5,3.8c-0.8,0.9-1.4,1.8-1.8,2.9c-0.2,0.5,0,1,0.3,1.4
				c0.7,0.9,1.5,1.3,2.6,1.2c0.8,0,1.5-0.1,2.3-0.1c0.4,0,0.7,0,1.1,0.1c0.5,0.1,0.8,0.3,0.9,0.8c0.1,0.4-0.1,0.8-0.5,1
				c-0.9,0.7-1.7,1.4-2.7,1.8c-0.2,0.1-0.4,0.1-0.5,0.1c-1.4-0.3-2.9-0.6-4.3-0.9c-1.8-0.4-3.6-0.2-5.4,0.4
				c-0.3,0.1-0.5,0.3-0.8,0.5c-0.5,0.4-1.1,0.9-1.6,1.3c-0.3,0.3-0.4,0.6-0.5,1c0,0.4-0.2,0.7-0.4,1.1c-0.1,0.5-0.3,1-0.4,1.5
				c-0.1,0.3,0.1,0.6,0.4,0.8c1.2,0.9,2.5,1.5,4,1.9c0.3,0.1,0.6,0.2,0.9,0.3c0.1,0,0.1,0.2,0.2,0.3c-0.1,0.1-0.2,0.2-0.3,0.2
				c-1,0-2.1,0-3.1-0.1c-2.1-0.1-4.1-0.2-6.2-0.3c-0.9,0-1.7,0.2-2.4,0.6c-0.6,0.3-1,0.9-1.2,1.5c-0.1,0.3,0,0.6,0.2,0.9
				c0.2,0.3,0.3,0.6,0.5,0.9c0.2,0.6,0.5,0.8,1.1,0.8c1.3-0.1,2.7-0.1,4-0.2c1.7-0.1,3.4-0.1,5.1-0.2c1.7-0.1,3.4-0.1,5.1-0.2
				c1.5-0.1,3.1-0.2,4.6-0.4c1.2-0.1,2.4-0.4,3.6-0.5c0.9-0.1,1.8-0.2,2.7-0.2c1.5,0,2.9-0.3,4.3-0.7c0.7-0.2,1.4-0.3,2.1-0.3
				c1.2,0,2.3-0.2,3.4-0.6c0.6-0.2,1.3-0.2,1.9-0.3c0.1,0,0.2,0,0.3,0c0.6,0,0.8,0.2,0.7,0.8c-0.1,0.7,0.1,1,0.8,1
				c1.8,0.1,3.6,0.1,5.4-0.1c1.4-0.2,1.7-0.6,1.8-2c0-0.5,0-1,0.1-1.4c0-0.5,0.3-0.6,0.7-0.5c0.2,0.1,0.5,0.2,0.7,0.4
				c0.3,0.2,0.6,0.4,0.9,0.7c1.8,1.4,3.9,2,6,2.4c1.5,0.3,3.1,0.2,4.6,0.3c1.3,0,2.7,0,4,0c1.5,0,2.9-0.3,4.4-0.6
				c0.9-0.2,1.8-0.5,2.7-0.6c1.3-0.2,2.4-0.9,3.7-1.3c0.7-0.2,1.2-0.6,1.7-1.1c0.8-0.8,0.9-1.9,0.4-2.9c-0.2-0.3-0.4-0.7-0.6-1
				c-0.3-0.5-0.8-0.8-1.3-1.1c-1.1-0.5-2.3-0.7-3.5-0.7c-0.6,0-1.2-0.1-1.8-0.1c-0.2,0-0.5-0.2-0.5-0.3c-0.4-0.9-1.3-1.2-2.1-1.4
				c-2.2-0.4-4.5-0.6-6.7-0.6c-0.2,0-0.4,0-0.6-0.1c-0.3-0.1-0.4-0.2-0.2-0.4c0.7-0.8,1.4-1.7,2.5-2.1c0.9-0.4,1.7-1,2.3-1.8
				c0.2-0.2,0.3-0.5,0.5-0.7c0.2-0.3,0.4-0.7,0.7-1c0.4-0.5,0.4-1.1,0.2-1.7c0-0.1-0.1-0.1-0.1-0.2c-0.8-0.7-1.7-1.4-2.9-1.6
				c-0.6-0.1-1.1-0.4-1.6-0.7c-0.4-0.3-0.5-0.5-0.2-1c0.2-0.4,0.5-0.7,1-0.9c0.7-0.2,1.3-0.7,1.9-1.2c1-0.8,1.8-1.7,2.1-2.9
				c0.1-0.4,0.4-0.8,0.5-1.3c0.1-0.4,0.1-0.9-0.3-1.2c-0.1-0.1-0.1-0.1-0.1-0.2c-0.8-1.7-2.2-2.8-3.6-4c-0.3-0.2-0.6-0.4-0.9-0.7
				c-0.4-0.4-0.4-0.8-0.1-1.2c0.5-0.7,1-1.4,1.8-1.9c0.1-0.1,0.2-0.2,0.3-0.3c0.8-1,1.6-1.9,2.2-3.1c0.2-0.3,0.2-0.7,0.3-1.1
				c0-0.1,0.1-0.2,0.1-0.3c0.5-0.9,0.7-2,0.7-3.1c0-1.7,0.1-3.4,0-5c0-1.1-0.3-2.3-0.4-3.4c-0.1-0.9-0.4-1.8-0.5-2.7
				c0-0.2,0-0.5,0-0.7c0-0.4,0.2-0.6,0.6-0.8c0.3-0.1,0.7-0.2,1-0.4c1.7-1,3.4-1.9,4.9-3.3c0.9-0.8,1.7-1.8,2.4-2.8
				c1.1-1.4,2-3,2.7-4.6c0.1-0.2,0.2-0.6,0.6-0.5c0.3,0.1,0.3,0.4,0.4,0.6c0.1,0.4,0.1,0.7,0.1,1.1c0.1,1.7,0.2,3.4,0.3,5.2
				c0.1,2.2,0.2,4.3,0,6.5c-0.1,1.4-0.1,2.8-0.2,4.2c-0.1,2-0.3,3.9-0.5,5.9c-0.1,1.4-0.3,2.7-0.5,4.1c-0.1,0.8-0.2,1.6-0.3,2.4
				c0,0.3,0,0.6,0,0.9c0,0.2,0.1,0.4,0.4,0.4c1.1,0.1,1.5,0,2-1.1c0.6-1.5,1.2-2.9,1.8-4.4c0.5-1.3,1-2.6,1.4-3.9
				c0-0.1,0.1-0.2,0.1-0.3c0.1-0.1,0.2-0.3,0.3-0.3c0.1,0,0.3,0.2,0.4,0.3c0.1,0.2,0.1,0.4,0.2,0.6c0.3,1.1,0.5,2.2,0.8,3.3
				c0.3,1.4,0.7,2.8,1,4.2c0.2,0.8,0.4,1.6,0.8,2.3c0.3,0.5,0.4,0.5,0.7,0c0.4-0.7,0.5-1.4,0.5-2.1c0.1-4.1,0.2-8.2,0.2-12.3
				c0-1.2-0.1-2.5-0.2-3.7c-0.1-1.6-0.3-3.2-0.3-4.9c0-1.1-0.1-2.1-0.2-3.2c-0.1-0.9-0.1-1.8-0.2-2.7c-0.2-1.5-0.5-2.9-0.7-4.4
				c-0.1-0.6-0.2-1.2-0.3-1.9c0.7-0.3,1.4-0.5,2.1-0.8c1.4-0.5,2.8-0.9,4.1-1.5c2.5-1.1,4.2-3,5.3-5.5c0.3-0.7,0.4-1.4,0.5-2.1
				c0.2-1.1,0.2-2.2,0.3-3.4c0.1-0.8-0.2-1.6-0.3-2.4c-0.1-1-0.6-1.8-1.1-2.6c0-0.1-0.1-0.1-0.1-0.2c-0.5-1.1-1.2-2-2.3-2.6
				c-0.5-0.3-0.9-0.7-1.5-1c-1.8-0.7-3.5-0.8-5.4-0.3c-0.2,0-0.4,0.1-0.6,0.2c-1.5,0.7-2.9,1.4-4.4,2.2c-0.2,0.1-0.5,0.2-0.7,0.3
				c-0.1,0-0.3,0-0.4-0.2c-0.1-0.1,0-0.3,0.1-0.4c0.4-0.6,0.9-1.1,1.6-1.5c0.3-0.2,0.6-0.4,0.8-0.6c1.4-1.2,3.1-1.7,5-1.8
				c0.8,0,1.5,0.3,2.2,0.5c0.8,0.3,1.5,0.6,2.3,0.8c0.1,0,0.3,0,0.5,0c0.1,0,0.2-0.1,0.2-0.1c0-0.1-0.1-0.2-0.1-0.2c0,0,0,0,0,0
				c-1.8-1.1-3.6-2-5.8-2c-1,0-1.9,0.2-2.8,0.6c-1.2,0.5-2.4,1-3.6,1.5c-0.5,0.2-0.9,0.5-1.4,0.8c-0.8,0.4-1.6,0.7-2.4,1.1
				c-0.3,0.2-0.7,0.3-1.1,0.4c-0.6,0.2-0.8,0.1-0.9-0.5c-0.3-1.3-0.8-2.5-1.4-3.6c-0.3-0.5-0.6-0.9-0.9-1.4
				c-0.5-0.7-1.1-1.5-1.7-2.2c-0.3-0.4-0.7-0.7-1-1c-0.5-0.4-0.9-0.9-1.4-1.3c-2.2-2.2-4.8-3.8-7.7-4.9c-1.8-0.7-3.8-1.2-5.8-1.6
				c-0.4-0.1-0.7-0.2-1.1-0.3c-0.5-0.1-0.6-0.7-0.3-1c0.2-0.2,0.5-0.4,0.9-0.6c0.8-0.4,1.6-0.8,2.4-1.2c0.3-0.2,0.6-0.4,0.9-0.5
				c0.4-0.2,0.8-0.3,1.2-0.4c0.8-0.2,1.6-0.5,2.1-1.2c0.3-0.4,0.6-0.7,0.9-1c0.3-0.3,0.6-0.7,0.7-1.1c0.1-0.4,0.3-0.7,0.7-0.9
				c2.1-1,4.3-2.1,6.4-3.1c0.9-0.4,1.8-0.7,2.6-1.2c1.2-0.8,2.6-1.3,3.9-1.9c1.7-0.8,3.5-1.6,5.3-2.4c0.5-0.2,1-0.5,1.5-0.7
				c0.6-0.3,1.2-0.5,1.9-0.8c0,0,0.1,0,0.1-0.1c0.4-0.2,0.8-0.3,1-0.8c0.3-0.6,0.4-1.3,0.4-1.9c0-0.4-0.2-0.7-0.6-0.9
				c-0.6-0.3-1.3-0.6-1.9-1c-0.6-0.3-1.1-0.7-1.6-1c-0.2-0.2-0.5-0.4-0.7-0.5c-1.1-0.5-2.1-1-3.2-1.5c0,0,0,0,0,0
				c-1-0.7-2.2-1-3.3-1.6c-1-0.5-2.1-0.9-3.1-1.4c-0.9-0.4-1.8-0.9-2.7-1.4c-0.7-0.4-1.5-0.7-2.4-0.9c-0.3-0.1-0.6-0.2-0.9-0.3
				c-1.5-0.8-3.1-1.5-4.6-2.3c0,0-0.1,0-0.1-0.1c-1.4-1.2-3.2-1.8-5-2.4c-0.7-0.2-1.4-0.6-2.1-0.9c0,0-0.1,0-0.1,0
				c-1.2-0.5-2.3-1-3.5-1.5c-0.3-0.2-0.7-0.3-1-0.5c-0.7-0.4-1.5-0.9-2.3-1.1c16.7,0,33.4,0,50.1,0c0,51.2,0,102.5,0,153.7
				c-35.6,0-71.1,0-106.7,0C178.4,463.7,178.4,429,178.4,394.3z"/>
			<path class="st0" d="M234.6,344.7c-0.8,0.2-1.6,0.5-2.3,1c-0.6,0.3-1.2,0.6-1.7,0.9c-0.1,0-0.2,0.1-0.3,0.1
				c-1.2,0.6-2.4,1.1-3.6,1.7c-0.7,0.3-1.4,0.7-2,1c-0.5,0.2-0.9,0.5-1.3,0.7c-0.6,0.3-1.2,0.4-1.8,0.7c-0.5,0.2-0.9,0.4-1.3,0.6
				c0,0-0.1,0-0.1,0c-0.8,0.1-1.4,0.7-2.2,1c-0.4,0.2-0.7,0.4-1.1,0.6c-0.3,0.2-0.6,0.3-1,0.5c-0.2,0.1-0.4,0.2-0.7,0.3
				c-1,0.5-2,1-3,1.3c-0.8,0.2-1.5,0.6-2.2,1.1c-0.4,0.3-0.9,0.5-1.4,0.7c-0.5,0.2-1.1,0.4-1.6,0.8c-0.7,0.5-1.5,0.7-2.2,1.2
				c-0.7,0.4-1.5,0.5-2.1,0.8c-0.4,0.2-0.8,0.5-1.2,0.8c-0.4,0.3-0.9,0.6-1.4,0.8c-0.6,0.2-1.1,0.5-1.6,0.8
				c-0.2,0.1-0.3,0.2-0.5,0.3c-1.6,0.6-3,1.6-4.5,2.3c-0.1,0-0.1,0.1-0.2,0.1c-1.3,0.4-2.4,1-3.6,1.5c-0.4,0.2-0.8,0.4-1.1,0.6
				c-0.5,0.3-1,0.6-1.6,0.7c-0.3,0-0.5,0.2-0.7,0.4c-1.1,0.5-2.2,0.9-3.2,1.4c-0.4,0.2-0.7,0.4-1,0.6c-0.5,0.4-0.6,1-0.5,1.6
				c0.1,0.4,0.2,0.9,0.2,1.3c0,2.3,0.1,4.5,0.1,6.8c0,0.1-0.1,0.3-0.1,0.4c-0.4,0.5-0.8,1-1.2,1.5c-0.6,0.8-0.9,1.7-1,2.7
				c0,0.4-0.2,0.8-0.4,1.2c-0.1,0.2-0.1,0.4,0.1,0.5c0,0,0.1,0.1,0.1,0.1c0.5,0.5,0.5,1,0.2,1.6c-0.7,1.3-1.1,2.7-1,4.2
				c0,0.1,0,0.3-0.1,0.4c0-15.9,0-31.8,0-47.7C197.1,344.7,215.9,344.7,234.6,344.7z"/>
			<path class="st0" d="M232,375.6c0-0.6-0.1-1.1-0.1-1.6c0-0.2,0.1-0.6,0.3-0.7c1-0.8,2-1.6,3.3-1.9c0.6-0.2,1.2-0.1,1.9,0.1
				c0.5,0.2,1.1,0.3,1.6,0.5c0.5,0.1,0.9,0.3,1.1,0.9c0.2,0.6,0.5,1.2,0.8,1.8c0.3,0.7,0.4,1.4,0.1,2.2c-0.1,0.3-0.1,0.6,0.2,0.8
				c0.1,0.1,0.2,0.4,0.2,0.6c-0.1,1-0.3,1.9-0.4,2.9c-0.2,1.5-1,2.7-1.8,3.9c-0.2,0.3-0.5,0.7-0.7,1c-0.1,0.1-0.2,0.3-0.4,0.4
				c-1.4,1.1-3,2-4.8,2.3c-0.4,0.1-0.8,0.1-1.3,0.1c-0.4,0-0.7,0.1-1,0.4c-0.2,0.2-0.5,0.4-0.7,0.6c-0.8,0.6-1.7,0.7-2.5,0.2
				c-0.9-0.6-1.7-0.7-2.7-0.4c-0.7,0.2-1.4,0-2.1,0c-1.9-0.2-3.6-0.8-5.2-1.8c-0.8-0.5-1.4-1.1-1.8-1.9c-0.3-0.6-0.7-1.3-1-1.9
				c-0.2-0.5-0.3-1-0.4-1.5c-0.2-1.1-0.5-2.3-0.6-3.4c-0.2-1.1-0.2-2.1-0.3-3.2c0-0.1,0.1-0.3,0.2-0.3c0.9-0.5,1.8-1,2.7-1.4
				c0.2-0.1,0.4-0.1,0.7-0.2c0.9-0.4,1.8-0.7,2.8-1.1c2.1-0.8,4.2-1.3,6.4-1.6c0,0,0.1,0,0.1,0c0.7-0.1,0.7-0.1,0.7,0.7
				c0,0.1,0,0.3,0.1,0.3c0.1,0,0.2,0,0.3-0.1c0.5-0.4,1-0.9,1.5-1.3c1.1-1,2.3-1.6,3.7-2c0.4-0.1,0.8-0.1,1.2,0
				c0.9,0.2,1.3,1.2,0.8,1.9c-0.2,0.3-0.6,0.6-0.9,0.9c-0.5,0.3-1.1,0.6-1.7,0.8c-0.7,0.3-1.5,0.5-2.3,0.7c-0.2,0.1-0.3,0.1-0.5,0.2
				c-0.6,0.3-0.7,0.6-0.5,1.3c0.2,0.4,0.3,0.9,0.5,1.3c0.3,0.5,0.7,0.9,1.2,1C231.3,376.9,232,376.2,232,375.6z M225.8,380
				c0,0,0-0.1-0.1-0.1c-0.1,0-0.3,0-0.4,0.1c-1,0.7-1.9,1.5-2.4,2.6c-0.6,1.3,0.2,2.5,0.9,3.1c0.1,0.1,0.2,0.1,0.4,0.2
				c0.2,0.1,0.5,0,0.6-0.2c0.2-0.2,0.2-0.4,0.1-0.6c-0.1-0.2-0.3-0.5-0.4-0.7c-0.4-0.5-0.5-1.1-0.2-1.7c0.3-0.7,0.7-1.3,1-1.9
				C225.4,380.5,225.6,380.3,225.8,380z M234.5,382.2c0-0.7-0.1-1.3-0.5-1.9c-0.2-0.3-0.4-0.5-0.7-0.7c-0.1-0.1-0.4,0-0.5-0.1
				c0,0.2,0,0.4,0,0.5c0.1,0.5,0.3,0.9,0.5,1.3c0.2,0.5,0.4,1.1,0.1,1.7c-0.2,0.5-0.5,0.9-0.8,1.4c-0.1,0.2-0.3,0.4-0.1,0.6
				c0.2,0.2,0.4,0,0.5-0.1C234,384.2,234.4,383.3,234.5,382.2z M225.9,383.3c0.4,0,0.7-0.1,1-0.1c1-0.1,1.9-0.3,2.9-0.1
				c0.5,0.1,1,0.1,1.5,0.1c0.1,0,0.2-0.1,0.2-0.1c0-0.1,0-0.2-0.1-0.3c-0.2-0.1-0.3-0.3-0.5-0.3c-1-0.4-2-0.5-3.1-0.3
				C227,382.2,226.3,382.4,225.9,383.3z"/>
			<path class="st0" d="M246.9,418.8c0-2,0.4-3.9,1.1-5.7c0.3-0.8,0.8-1.6,1.6-2c2.3-1.3,4.5-2.8,6.9-3.9c1.4-0.7,2.7-1.5,4.1-2.2
				c1.8-0.9,3.6-1.8,5.4-2.8c0.2-0.1,0.3-0.2,0.5-0.2c0.2-0.1,0.3,0,0.3,0.2c0,0.2-0.1,0.3-0.2,0.5c-0.1,0.2-0.2,0.4-0.4,0.6
				c-0.7,1-1.1,2-1.5,3.1c-1,2.6-1.1,5.2-0.1,7.8c0.6,1.6,1.5,3.2,2.8,4.3c0.7,0.6,1.4,1,2.1,1.6c0.2,0.1,0.3,0.3,0.4,0.4
				c-0.2,0.1-0.3,0.3-0.5,0.4c-1.1,0.3-2.1,0.5-3.2,0.8c-2.2,0.5-4.3,1.1-6.5,1.6c-1.6,0.3-3.1,0.8-4.7,1.2
				c-1.6,0.4-3.2,0.7-4.9,1.1c-1,0.2-1.3,0-1.8-0.8C247.4,423,246.9,421,246.9,418.8z"/>
			<path class="st0" d="M235.9,366.1c0.2,0.1,0.3,0.2,0.5,0.3c0.7,0.2,1.3,0.4,2,0.6c1.5,0.4,2.8,1.1,4.2,1.8c0.1,0,0.1,0.1,0.2,0.1
				c0.1,0.1,0.1,0.2,0.1,0.3c-0.1,0-0.2,0.1-0.3,0.1c-0.1,0-0.3-0.1-0.4-0.1c-0.9-0.5-1.9-0.8-2.9-1c-0.7-0.2-1.4-0.3-2.2-0.4
				c-0.1,0-0.1,0-0.2,0c-0.2,0-0.3,0.1-0.5,0.2c0.1,0.1,0.3,0.2,0.4,0.3c0.4,0.1,0.8,0.2,1.3,0.3c1.6,0.3,2.9,1.1,4.2,1.9
				c0.2,0.1,0.4,0.2,0.4,0.6c-0.2,0-0.3,0-0.4-0.1c-0.2-0.1-0.4-0.2-0.6-0.3c-0.5-0.2-1-0.4-1.6-0.6c-0.2-0.1-0.5-0.1-0.7-0.2
				c-0.8-0.4-1.6-0.5-2.4-0.5c-0.3,0-0.7,0-1-0.1c-0.1,0-0.3-0.2-0.4-0.3c0,0,0-0.1-0.1-0.1c-0.2-0.7-0.7-1-1.4-1
				c-0.7,0-1.3,0-2,0.4c-0.4,0.2-0.8,0.3-1.3,0.5c-0.1,0.1-0.3,0.1-0.4,0.2c-0.7,0.5-1.5,1-2.4,1.1c-0.5,0.1-1.1,0.1-1.6,0.1
				c-1.3,0.1-2.5,0.4-3.8,0.7c-1.3,0.3-2.4,0.9-3.7,1.1c0,0-0.1,0-0.1,0c-1,0.7-2.3,0.8-3.4,1.4c-0.8,0.5-1.7,0.9-2.5,1.3
				c-0.2,0.1-0.3,0.2-0.5,0.3c-0.6,0.4-0.9,0.3-0.9-0.5c-0.1-1-0.2-1.9-0.3-2.9c0-0.7-0.1-1.4,0-2.1c0.3-1.4,0.9-2.7,2.2-3.4
				c1.4-0.8,2.8-1.5,4.2-2.1c0.9-0.4,1.8-0.6,2.8-0.8c1.7-0.4,3.5-0.6,5.2-0.9c0.7-0.1,1.5-0.2,2.2-0.2c0.9,0,1.7,0.1,2.6,0.1
				c0.5,0,0.9,0,1.4,0c0.2,0,0.4,0,0.4-0.3c0-0.1,0.1-0.2,0.2-0.2c0.1,0.1,0.2,0.2,0.2,0.2c0,0.4,0.2,0.5,0.5,0.5
				c1.2,0.2,2.3,0.5,3.5,0.8c0.5,0.1,1,0.4,1.5,0.6c0.7,0.3,1.5,0.5,2.2,0.7c0.4,0.1,0.8,0.3,1,0.7c0,0.1,0,0.2,0,0.3
				c0,0-0.2,0-0.3,0c-0.2,0-0.3-0.1-0.5-0.2c-1.1-0.5-2.3-0.7-3.4-0.8c-0.3,0-0.7-0.1-1-0.1c-0.1,0-0.2,0.1-0.3,0.1
				c0.1,0.1,0.1,0.2,0.2,0.3c0.2,0.1,0.5,0.2,0.8,0.2c1,0,1.9,0.4,2.8,0.8c0.6,0.2,1.3,0.5,1.9,0.8c0.2,0.1,0.4,0.2,0.5,0.4
				c0.1,0.1,0.1,0.2,0.1,0.2c-0.1,0-0.2,0.1-0.3,0.1c-0.2,0-0.3-0.1-0.5-0.1c-1.4-0.5-2.8-0.8-4.2-1.1
				C236.9,366,236.5,365.9,235.9,366.1z"/>
			<path class="st0" d="M229,493.4c-1.2-0.1-2.4-0.2-3.7-0.2c-3.4-0.1-6.9-0.1-10.3-0.1c-1.7,0-3.4-0.1-5.1-0.2
				c-1.4-0.1-2.8-0.3-4.2-0.6c-1.6-0.3-3.1-0.7-4.6-1c-0.6-0.1-1.2-0.2-1.8-0.5c-0.7-0.3-1.4-0.6-2.1-1c-1-0.6-1.2-2-0.3-2.7
				c0.3-0.3,0.7-0.5,1.1-0.6c0.8-0.3,1.7-0.5,2.5-0.7c0.9-0.1,1.8,0.1,2.6,0.3c0.5,0.1,1,0.2,1.5,0.4c1.1,0.3,2.2,0.6,3.4,0.9
				c1.9,0.5,3.8,1.1,5.7,1.6c0.6,0.2,1.2,0.2,1.8,0.3c1.8,0.5,3.6,0.4,5.3,0.3c2.6-0.1,5.1-0.4,7.6-1.3c0.7-0.2,1.3-0.5,2-0.8
				c0.5-0.2,1-0.2,1.5-0.1c0.2,0,0.4,0.2,0.5,0.4c0.5,1.4,0.7,2.9,0.3,4.4c-0.2,0.7-0.7,1.1-1.6,1.1
				C230.5,493.4,229.7,493.4,229,493.4C229,493.4,229,493.4,229,493.4z"/>
			<path class="st0" d="M265.8,452.3c0-0.2,0-0.4,0-0.6c0.2-1.7,0.2-3.4,0.5-5c0.1-0.7,0.1-1.4,0.2-2.1c0.1-2,0.1-4,0.3-6
				c0.2-2.8,0.1-5.7-0.2-8.5c-0.1-1.5-0.2-3.1-0.7-4.6c-0.2-0.7-0.1-1,0.6-1.2c1.5-0.5,2.9-0.9,4.4-1.3c0.4-0.1,0.6,0,0.6,0.4
				c0.3,1.6,0.5,3.3,0.8,4.9c0.4,2.8,0.4,5.7,0.6,8.6c0.4,4.7,0.2,9.3,0.3,14c0,0.4-0.1,0.8-0.1,1.2c0,0.1-0.1,0.3-0.1,0.4
				c-0.1,0.1-0.2,0.2-0.3,0.3c-0.1-0.1-0.2-0.2-0.2-0.3c-0.1-0.2-0.1-0.4-0.2-0.6c-0.2-0.8-0.3-1.6-0.5-2.3
				c-0.1-0.5-0.3-0.9-0.4-1.3c-0.1-0.6-0.2-1.2-0.4-1.8c-0.2-0.8-0.5-1.6-0.7-2.4c-0.1-0.2-0.1-0.4-0.1-0.6
				c-0.1-0.2-0.1-0.4-0.2-0.6c-0.2-0.3-0.4-0.3-0.5,0c-0.4,0.6-0.7,1.3-0.8,2c-0.5,2.2-1.2,4.4-2.1,6.6c-0.1,0.3-0.3,0.6-0.5,0.9
				C265.9,452.4,265.9,452.3,265.8,452.3z"/>
			<path class="st0" d="M235.9,390.5c-0.1,0.2-0.2,0.6-0.3,1c-0.8,2.9-1.6,5.9-2.4,8.8c-0.1,0.5-0.4,1-0.6,1.6
				c-0.5,1.4-0.9,2.8-1.4,4.2c-0.2,0.6-0.4,1.1-0.7,1.7c-0.2,0.4-0.5,0.4-0.7,0c-0.5-1-1.1-2-1.5-3c-0.8-2-1.5-4-2.7-5.8
				c-0.2-0.2-0.2-0.6-0.3-0.8c-0.1-0.2-0.1-0.3-0.2-0.5c-0.8-1.5-1.6-3.1-2.6-4.4c-0.4-0.5-0.7-0.9-1.1-1.4
				c-0.2-0.3-0.4-0.6-0.5-0.9c-0.1-0.3,0-0.5,0.4-0.5c0.3,0,0.5,0.1,0.7,0.1c0.9,0.1,1.8,0.1,2.7,0.1c1,0,2,0.1,3,0.5
				c0.5,0.2,1.1,0.2,1.7,0.3c0.5,0.1,0.9-0.2,1.2-0.6c0.4-0.6,1-0.7,1.6-0.8c0.9-0.1,1.7-0.2,2.6-0.3c0.1,0,0.2,0,0.3,0
				C235.8,389.7,236,389.8,235.9,390.5z M233.5,394.9C233.4,394.9,233.4,394.9,233.5,394.9c-0.1-0.7-0.1-1.4-0.1-2.1
				c0-0.6-0.2-1.2-0.3-1.7c-0.2-0.7-0.5-0.7-1-0.3c-0.1,0.1-0.2,0.2-0.3,0.3c-0.7,0.5-1.3,1-2,1.5c-0.4,0.3-0.9,0.3-1.4,0.1
				c-0.8-0.5-1.7-0.9-2.5-1.3c-0.2-0.1-0.4-0.2-0.6,0c-0.2,0.1-0.3,0.4-0.2,0.6c0.1,0.3,0.1,0.6,0.2,0.9c0.5,1.1,0.7,2.2,0.9,3.3
				c0.1,0.4,0.1,0.9,0.3,1.3c0.1,0.5,0.4,0.5,0.8,0.2c0.2-0.2,0.3-0.4,0.5-0.6c0.4-0.6,0.9-1.3,1.3-1.9c0.4-0.5,1.1-0.6,1.6-0.1
				c0.7,0.6,1.4,1.3,1.8,2.1c0.2,0.3,0.4,0.4,0.7,0.2c0.2-0.1,0.3-0.4,0.4-0.6C233.4,396.1,233.4,395.5,233.5,394.9z"/>
			<path class="st0" d="M245.9,494.1c-1.6,0-3.3-0.1-4.9-0.5c-1-0.3-2-0.7-3-1c-0.2-0.1-0.4-0.3-0.5-0.5c0.2-0.1,0.4-0.2,0.6-0.3
				c1.3-0.3,2.6-0.5,3.9-0.8c1.9-0.4,3.6-1,5.4-1.8c1.6-0.7,3.3-1.1,5.1-1.3c1.1-0.1,2.3-0.2,3.4-0.3c1,0,1.9,0.2,2.9,0.3
				c0.1,0,0.1,0,0.2,0c0.9-0.1,1.5,0.5,2.2,1c0.2,0.2,0.2,0.5,0.1,0.7c-0.1,0.2-0.3,0.5-0.5,0.6c-0.5,0.4-1,0.8-1.6,1.1
				c-0.3,0.2-0.6,0.2-0.9,0.3c-1.1,0.3-2.1,0.6-3.2,1c-1.3,0.5-2.7,0.6-4.1,0.7C249.3,493.8,247.6,493.9,245.9,494.1z"/>
			<path class="st0" d="M283.8,409.2c-0.1,1.8-0.2,3.5-0.9,5.1c-0.4,0.9-0.9,1.8-1.6,2.6c-0.5,0.6-1,1-1.6,1.5
				c-1,0.8-2.2,0.9-3.3,1.3c-1.3,0.4-2.7,0.4-4.1,0.2c-0.2,0-0.4-0.1-0.4-0.3c0-0.2,0.2-0.4,0.4-0.4c0.5-0.1,1-0.2,1.5-0.3
				c1.1-0.2,2.2-0.4,3.3-1c0.2-0.1,0.5-0.2,0.8-0.3c0.5-0.1,0.9-0.5,1.3-0.8c1.5-1.5,2.4-3.3,2.8-5.3c0.3-1.7,0.2-3.3-0.2-4.9
				c0-0.1-0.1-0.2-0.1-0.3c-0.7-1-1.4-2-2.6-2.5c-1-0.4-2-0.8-3.1-0.6c-0.7,0.1-1.4,0.4-2,0.6c-0.8,0.3-1.6,0.6-2.4,0.9
				c-0.2,0.1-0.4,0.1-0.6-0.1c-0.2-0.2-0.1-0.4,0-0.6c0.4-0.7,1-1.2,1.6-1.7c1-0.8,2-1.3,3.3-1.5c0.8-0.1,1.5,0.1,2.2,0.3
				c1.3,0.3,2.6,0.9,3.5,1.9c0.2,0.2,0.4,0.5,0.6,0.8c1,1.2,1.4,2.6,1.7,4.1C283.8,408.4,283.8,408.9,283.8,409.2z"/>
			<path class="st0" d="M276.5,404.1c1,0,2.1,0.4,3.1,1.2c0.9,0.8,1.3,1.9,1.6,3.1c0.1,0.6,0,1.1-0.1,1.7c-0.1,1.3-0.3,2.5-0.8,3.6
				c-0.8,1.7-2.1,2.9-4,3.4c-0.2,0-0.3,0.1-0.5,0c-0.6-0.1-1.3-0.3-1.9-0.4c-0.4-0.1-0.4-0.4,0-0.7c0.5-0.4,1.1-0.6,1.8-0.7
				c0.1,0,0.2,0,0.2,0c0.7-0.5,1.6-0.6,2.2-1.2c0.6-0.7,1.1-1.6,1.3-2.5c0.3-1.2,0.2-2.5-0.3-3.6c-0.7-1.5-1.9-2-3.4-1.5
				c-0.5,0.2-0.9,0.4-1.4,0.6c-0.3,0.1-0.6,0.2-0.9,0.3c-0.4,0.1-0.6-0.1-0.5-0.5c0.1-0.2,0.2-0.5,0.3-0.7c0.3-0.4,0.7-0.9,1.1-1.3
				C274.8,404.3,275.3,404.1,276.5,404.1z"/>
			<path class="st0" d="M210.5,383.3c-1-0.1-1.9-0.2-2.9-0.5c-0.8-0.2-1.4-0.6-2-1.2c-0.5-0.5-0.6-1.2-0.2-1.7
				c0.5-0.6,1-1.2,1.6-1.6c0.8-0.5,1.7-0.9,2.6-1.4c0.8-0.4,1.7-0.2,2.5,0c0.2,0.1,0.4,0.2,0.4,0.5c0,0.3-0.2,0.3-0.4,0.4
				c-0.7,0.1-1.4,0.2-2.1,0.4c-1.1,0.3-1.9,0.9-2.4,1.9c-0.1,0.2-0.3,0.4-0.1,0.6c0,0,0.3-0.2,0.4-0.3c0.5-0.7,1.3-1.1,2.1-1.2
				c0.6-0.1,1.3-0.2,1.9-0.1c0.6,0,1.1,0.5,1.2,1.1c0.1,0.6,0.1,1.2,0.1,1.8c0,0.4-0.2,0.7-0.6,0.9c-0.3,0.1-0.6,0.3-0.9,0.3
				C211.4,383.2,210.9,383.2,210.5,383.3z"/>
			<path class="st0" d="M265.4,410c0.1-0.9,0.2-1.8,0.4-2.8c0.1-0.7,0.4-1.3,0.7-2c0.2-0.4,0.6-0.7,1-0.9c0.5-0.3,1-0.5,1.4-0.8
				c0.3-0.1,0.6-0.3,0.8-0.1c0.2,0.3,0,0.5-0.2,0.7c-0.8,1.2-1.5,2.5-1.7,3.9c-0.4,2.9,0.2,5.6,2.1,8c0.3,0.3,0.6,0.6,1,0.9
				c0.5,0.4,0.5,0.6-0.1,0.9c-0.4,0.2-0.7,0.3-1.1,0.4c-0.1,0-0.2,0-0.3,0c-0.6-0.3-1.2-0.7-1.6-1.3c-1-1.5-1.8-3.1-2.2-4.9
				C265.5,411.3,265.5,410.7,265.4,410z"/>
			<path class="st0" d="M213.6,406.4c0,0.2,0.1,0.4,0.1,0.6c0,1.6-0.1,3.3-0.1,4.9c-0.1,2.3-0.1,4.6-0.2,6.9c-0.1,2.7-0.2,5.4-0.3,8
				c-0.2,3.4-0.3,6.9-0.3,10.3c0,1.7-0.1,3.5-0.1,5.2c0,0.3-0.1,0.7-0.1,1c0,0.1-0.1,0.3-0.2,0.4c-0.1,0.1-0.3,0.2-0.3,0.1
				c-0.1-0.1-0.2-0.2-0.2-0.3c0-1.8,0.1-3.6,0.1-5.3c0-2.8,0-5.7,0.1-8.5c0.1-2.8,0.1-5.7,0.3-8.5c0.1-2.9,0.3-5.8,0.5-8.8
				c0.1-1.9,0.4-3.8,0.6-5.7c0-0.1,0.1-0.3,0.2-0.4C213.5,406.4,213.6,406.4,213.6,406.4z"/>
			<path class="st0" d="M245.7,375.2c0.7,0.1,1.5,0.3,2.2,0.4c0.6,0.1,1,0.6,1.2,1.1c0.5,1,0.4,1.6-0.5,2.3c-0.5,0.3-1,0.5-1.5,0.8
				c-0.3,0.1-0.5,0.3-0.7,0.5c-0.3,0.3-0.7,0.5-1.2,0.6c-0.5,0.1-0.9,0.3-1.3,0.7c-0.2,0.3-0.5,0.5-0.8,0.6
				c-0.4,0.2-0.8-0.1-0.7-0.5c0.2-0.7,0.4-1.4,0.7-2c0.1-0.2,0.3-0.4,0.5-0.5c0.7-0.5,1.4-1,2.2-1.4c0.2-0.1,0.5-0.2,0.8-0.3
				c0.3-0.1,0.5-0.3,0.8-0.5c0.2-0.2,0.1-0.4-0.1-0.4c-0.3,0-0.6,0-0.9,0.1c-0.8,0.3-1.5,0.6-2.1,1.2c-0.1,0.1-0.2,0.2-0.3,0.2
				c-0.4,0.2-0.7,0.1-0.9-0.3c-0.3-0.7-0.2-1.2,0.4-1.7C243.9,375.5,244.6,375.2,245.7,375.2C245.7,375.2,245.7,375.2,245.7,375.2z"
				/>
			<path class="st0" d="M271.4,415.5c-0.3,0-0.6-0.2-0.7-0.5c-0.4-0.6-0.8-1.3-1.1-2c-0.3-0.7-0.4-1.4-0.4-2.1
				c-0.1-1.2-0.1-2.3,0.2-3.5c0.3-1.2,1.1-1.9,2.4-2c0.3,0,0.4,0.1,0.3,0.4c-0.1,0.4-0.2,0.8-0.4,1.1c-0.5,1-0.4,2.1-0.4,3.2
				c0.1,0.9,0.4,1.7,0.9,2.4c0.4,0.6,0.8,1.1,1.1,1.7c0.2,0.3,0.2,0.6-0.2,0.7C272.5,415.2,271.9,415.4,271.4,415.5z"/>
			<path class="st0" d="M278.4,410.4c0,0.2,0,0.6-0.1,1c-0.1,0.6-0.4,1.1-0.9,1.5c-0.3,0.2-0.7,0.5-1,0.7c-0.6,0.4-1.6,0.2-2-0.3
				c-0.2-0.2-0.1-0.4,0-0.5c0.2-0.1,0.3-0.3,0.5-0.4c0.4-0.3,0.5-0.5,0.3-1c-0.1-0.2-0.2-0.3-0.2-0.5c-0.2-0.4-0.3-0.8-0.4-1.2
				c-0.1-0.6,0-1.1,0.4-1.5c0.2-0.3,0.5-0.5,0.7-0.8c0.5-0.4,0.7-0.5,1.3-0.1C278.1,408.1,278.4,408.8,278.4,410.4z"/>
			<path class="st0" d="M222.4,494.3c-0.4,0.1-0.8,0.2-1.1,0.3c-1.1,0.1-2.2,0.2-3.3,0.2c-1.8,0-3.6,0-5.4,0c-1.1,0-2.2-0.2-3.3-0.2
				c-2-0.1-3.9-0.4-5.8-0.8c-2.5-0.6-4.9-1.4-7.2-2.4c-0.2-0.1-0.4-0.2-0.6-0.3c-0.1-0.1-0.2-0.2-0.3-0.3c0-0.1,0-0.3,0-0.4
				c0-0.1,0.2,0,0.3,0c0.4,0.1,0.8,0.3,1.1,0.5c1.3,0.8,2.8,1.3,4.3,1.6c1.8,0.4,3.5,0.8,5.3,1.2c0.7,0.1,1.5,0.2,2.2,0.3
				c1.6,0.3,3.2,0.3,4.8,0.3c1.9,0,3.9-0.1,5.8-0.3c0.7,0,1.4-0.2,2.1-0.1C222,493.9,222.2,494,222.4,494.3z"/>
			<path class="st0" d="M236.9,493c0.2,0,0.4,0.1,0.5,0.1c1.2,0.4,2.3,0.8,3.5,1.2c0.5,0.1,0.9,0.2,1.4,0.2c0.1,0,0.2,0,0.2,0
				c1,0.3,2.1,0.3,3.1,0.3c1.7-0.1,3.4-0.2,5-0.3c0.4,0,0.9-0.2,1.3-0.2c1.1-0.2,2.2-0.4,3.3-0.6c0.3-0.1,0.6-0.2,0.9-0.3
				c0.2-0.1,0.3-0.1,0.5-0.1c0.3-0.1,0.6-0.1,0.8-0.2c0.5-0.2,1-0.4,1.5-0.6c0.2-0.1,0.5-0.1,0.7-0.2c0.1,0,0.2,0,0.2-0.1
				c0.4-0.3,0.9-0.7,1.3-1c0,0,0,0,0,0c0.2-0.1,0.4-0.3,0.6-0.1c0.2,0.2,0.2,0.5,0,0.6c-0.3,0.3-0.5,0.7-0.9,0.8
				c-0.9,0.4-1.8,0.7-2.7,1.1c-1.2,0.5-2.5,0.8-3.8,1c-1.3,0.2-2.5,0.5-3.8,0.4c-0.6,0-1.1,0.1-1.7,0.2c-1.2,0.1-2.5,0.2-3.7,0
				c-1.2-0.1-2.3-0.1-3.5-0.2c-1.6-0.2-3.2-0.4-4.6-1.4c-0.2-0.1-0.3-0.2-0.5-0.4C236.9,493.3,236.8,493.1,236.9,493
				C236.8,493,236.8,493,236.9,493z"/>
			<path class="st0" d="M212.2,478.7c-0.2-0.1-0.3-0.2-0.4-0.3c0.1-0.1,0.2-0.4,0.3-0.4c0.9-0.5,1.9-0.9,2.8-1.3
				c0.5-0.3,1.1-0.5,1.6-0.7c0.5-0.3,1-0.6,1.5-0.9c1.3-0.7,2.6-1.4,3.9-2.2c0.9-0.5,1.7-1.1,2.6-1.5c0.5-0.3,1-0.4,1.5-0.5
				c0.1,0,0.3,0.1,0.4,0.1c-0.1,0.1-0.1,0.3-0.2,0.4c-0.1,0.1-0.3,0.2-0.4,0.3c-1.4,1-2.8,1.8-4.3,2.6c-1.1,0.5-2.1,1.2-3.2,1.7
				c-1.5,0.8-3.1,1.6-4.6,2.3C213.2,478.5,212.7,478.6,212.2,478.7z"/>
			<path class="st0" d="M202.4,452.3c-0.3-0.1-0.5-0.2-0.7-0.3c-0.5-0.3-0.5-0.5-0.3-1c0.4-0.6,0.7-1.3,1.2-1.9
				c0.2-0.3,0.4-0.5,0.7-0.6c1-0.4,1.9-0.7,2.9-1c0.1,0,0.4,0,0.5,0c0.1,0.1,0.1,0.3,0,0.5c0,0.2-0.1,0.3-0.2,0.4
				c-0.8,1-1.6,1.9-2.5,2.8c-0.2,0.2-0.5,0.5-0.7,0.6C203,452.1,202.7,452.2,202.4,452.3z"/>
			<path class="st0" d="M229.3,482.8c0.2-0.1,0.4-0.2,0.6-0.2c1.3,0,2.6,0.1,3.9,0.2c1.4,0.1,2.7,0.3,4.1,0.4
				c1.1,0.1,2.2,0.2,3.4,0.4c0.4,0.1,0.8,0.3,1.1,0.5c0,0,0,0.1,0,0.1c-0.3,0-0.6,0.1-0.8,0.1c-1.5-0.1-2.9-0.3-4.4-0.4
				c-0.8-0.1-1.6-0.1-2.4-0.2c-1.1-0.1-2.3-0.2-3.4-0.3c-0.4,0-0.8-0.1-1.1-0.1C229.9,483.2,229.6,483.1,229.3,482.8z"/>
			<path class="st0" d="M197.1,452.7c-0.5,0-0.8-0.4-0.7-0.8c0.1-0.5,0.3-0.9,0.7-1.2c0.4-0.3,0.7-0.7,1.1-1
				c0.4-0.4,0.9-0.8,1.5-0.9c0.3,0,0.7,0,1,0.1c0.4,0.1,0.5,0.3,0.2,0.6c-0.3,0.4-0.6,0.8-1,1.1c-0.7,0.6-1.4,1.2-2.1,1.7
				C197.6,452.6,197.3,452.7,197.1,452.7z"/>
			<path class="st0" d="M254.4,355.4c0.1,0,0.2,0,0.3,0c1.1,0.1,2.1,0.6,3.1,1.1c1,0.6,2,1.3,3.2,1.7c0.7,0.2,1.4,0.5,2.1,0.7
				c0.4,0.1,0.7,0.4,1.1,0.6c0.2,0.1,0.5,0.2,0.7,0.3c1.2,0.6,2.3,1.2,3.5,1.8c0.2,0.1,0.3,0.2,0.4,0.4c0.1,0.1,0.1,0.2,0,0.3
				c0,0.1-0.2,0-0.3,0c0,0,0,0-0.1,0c-2-1.1-4.2-1.9-6.3-2.9c-0.3-0.1-0.5-0.3-0.8-0.4c-0.9-0.4-1.7-1.1-2.7-1.4
				c-0.7-0.2-1.3-0.6-1.9-0.8c-0.7-0.3-1.4-0.6-2.1-1C254.6,355.7,254.5,355.6,254.4,355.4C254.4,355.4,254.4,355.4,254.4,355.4z"/>
			<path class="st0" d="M228.6,495.9c-0.5,0-1-0.1-1.5-0.1c-0.3,0-0.5-0.2-0.6-0.5c-0.1-0.4,0.1-0.6,0.5-0.7
				c0.9-0.1,1.8-0.1,2.7-0.2c0.5-0.1,1.1-0.1,1.6-0.3c0.5-0.1,0.7-0.1,0.8,0.1c0.2,0.4,0.1,1-0.3,1.1c-0.2,0.1-0.5,0.2-0.8,0.2
				C230.3,495.8,229.4,495.8,228.6,495.9z"/>
			<path class="st0" d="M192.9,451.1c-0.4,0-0.6-0.2-0.6-0.5c0-0.2,0-0.4,0.1-0.6c0.2-0.6,0.6-1,1.1-1.4c0.2-0.2,0.5-0.2,0.8-0.2
				c0.3,0.1,0.7,0.1,1,0.2c0.4,0.1,0.5,0.4,0.2,0.7c-0.6,0.8-1.4,1.4-2.4,1.7C193,451.1,192.9,451.1,192.9,451.1z"/>
			<path class="st0" d="M243.3,373.8c-0.1,0-0.2-0.1-0.2-0.1c-0.5-0.4-1.1-0.8-1.6-1.2c-0.9-0.8-1.9-1.2-3.1-1.5
				c-0.6-0.1-1.1-0.3-1.7-0.5c-0.1,0-0.3-0.1-0.4-0.2c-0.1-0.1-0.2-0.3-0.1-0.5c0-0.1,0.3-0.2,0.4-0.2c1,0.3,2,0.5,3,1
				c1.2,0.6,2.3,1.4,3.4,2.3c0.1,0.1,0.3,0.2,0.4,0.4C243.4,373.4,243.4,373.6,243.3,373.8C243.4,373.7,243.3,373.7,243.3,373.8z"/>
			<path class="st0" d="M252.9,354.6c-0.2,0-0.4,0-0.6-0.1c-0.4-0.2-0.8-0.3-1.2-0.5c-0.9-0.5-1.8-0.9-2.7-1.4
				c-0.5-0.3-1.1-0.6-1.7-0.7c-0.3,0-0.5-0.2-0.8-0.3c-0.6-0.3-1.2-0.6-1.8-0.8c-0.6-0.3-1.2-0.6-1.8-0.9c-0.1-0.1-0.1-0.2-0.2-0.3
				c0.1,0,0.2-0.1,0.3,0c0.4,0.2,0.8,0.4,1.1,0.6c0.3,0.1,0.5,0.2,0.8,0.3c0.3,0.1,0.6,0.1,0.9,0.3c0.9,0.4,1.8,0.9,2.7,1.4
				c0.8,0.5,1.6,1,2.6,1.3c0.8,0.2,1.5,0.5,2.1,1.1C252.8,354.4,252.8,354.4,252.9,354.6C252.9,354.5,252.9,354.6,252.9,354.6z"/>
			<path class="st0" d="M272.3,409.2c-0.1-0.6,0.1-1,0.6-1.2c0.4-0.2,0.7-0.1,0.7,0.4c0,0.5,0,1,0.1,1.5c0,0.5,0.1,0.9,0.1,1.4
				c0,0.1,0,0.3,0,0.4c-0.2,0.4-0.5,0.4-0.8,0.1c-0.1-0.1-0.3-0.3-0.3-0.5C272.5,410.5,272.4,409.9,272.3,409.2
				C272.2,409.2,272.3,409.2,272.3,409.2z"/>
			<path class="st0" d="M180.8,398.5c0.1,0.2,0.2,0.3,0.2,0.5c0.5,1.6,1,3.1,1.5,4.7c0.1,0.2,0.1,0.4,0.1,0.5c0,0.1-0.1,0.2-0.2,0.3
				c-0.1-0.1-0.2-0.1-0.3-0.2c-0.2-0.5-0.4-0.9-0.5-1.4c-0.3-1.2-0.6-2.4-0.9-3.6c-0.1-0.3,0-0.5,0-0.8
				C180.7,398.5,180.7,398.5,180.8,398.5z"/>
			<path class="st0" d="M235.7,346.5c0.2,0,0.5,0,0.7,0.1c0.6,0.3,1.2,0.6,1.8,0.9c0.1,0,0.2,0,0.2,0.1c0.4,0.1,0.7,0.3,1,0.6
				c0,0,0,0.1,0,0.1c-0.2,0-0.3,0-0.5,0c-1.1-0.3-2.1-0.8-3-1.4c-0.1,0-0.1-0.1-0.2-0.2C235.6,346.6,235.7,346.6,235.7,346.5z"/>
			<path class="st0" d="M238.7,469.8c0,0-0.1,0-0.2,0c-0.2-0.1-0.3-0.2-0.2-0.4c0.1-0.1,0.2-0.2,0.3-0.3c0.2-0.1,0.4-0.3,0.6-0.2
				c0.1,0.1,0.3,0.4,0.3,0.6c0,0.3-0.3,0.3-0.5,0.3C238.9,469.8,238.8,469.8,238.7,469.8z"/>
			<path class="st0" d="M252.4,433.9c-0.1,0.1-0.1,0.3-0.2,0.3c-0.1,0-0.3,0-0.3-0.1c-0.1-0.2-0.3-0.5-0.3-0.7
				c0-0.1,0.1-0.3,0.2-0.4c0.1,0.1,0.3,0.1,0.3,0.2C252.1,433.4,252.2,433.6,252.4,433.9z"/>
			<path class="st0" d="M271.4,363.5c0.5,0,0.9,0.1,1.3,0.4c0.1,0.1,0.1,0.3,0.1,0.4c-0.1,0-0.3,0.1-0.4,0c-0.3-0.1-0.6-0.3-0.9-0.5
				C271.5,363.8,271.4,363.7,271.4,363.5C271.3,363.6,271.4,363.6,271.4,363.5z"/>
			<path class="st0" d="M209.2,446.7c-0.3,0.2-0.6,0.4-0.8,0.6c-0.1,0.1-0.3-0.3-0.3-0.5c0-0.2,0.5-0.5,0.7-0.5
				C208.9,446.5,209,446.6,209.2,446.7z"/>
			<path class="st0" d="M241.8,374.7c0.1-0.2,0.2-0.3,0.3-0.3c0.1,0,0.3,0.1,0.3,0.1c0.1,0.2,0.3,0.4,0.1,0.7
				c-0.1,0.1-0.3,0.2-0.3,0.1C242.2,375.1,242,374.9,241.8,374.7z"/>
			<path class="st0" d="M196.6,449.7c0.2-0.3,0.3-0.5,0.5-0.6c0.1-0.1,0.4,0.1,0.4,0.3c-0.1,0.2-0.3,0.4-0.4,0.5
				C197,449.9,196.8,449.7,196.6,449.7z"/>
			<path class="st0" d="M179.9,392.5c-0.2-0.2-0.2-0.9,0-1.1c0,0,0.2,0,0.2,0C180.2,391.6,180.1,392.3,179.9,392.5z"/>
			<path class="st0" d="M250.9,376c-0.3,0-0.4-0.2-0.4-0.3c0-0.2,0-0.4,0.2-0.3c0.1,0,0.3,0.2,0.3,0.3
				C251.2,375.8,251,375.9,250.9,376z"/>
			<path class="st0" d="M236.6,362.6c-0.1-0.1-0.3-0.2-0.2-0.3c0.1-0.1,0.2-0.3,0.3-0.3c0.1,0,0.2,0.1,0.3,0.2
				C236.9,362.3,236.7,362.4,236.6,362.6z"/>
			<path class="st0" d="M186.1,395.9c0.1-0.1,0.2-0.2,0.3-0.3c0.1,0.1,0.2,0.2,0.2,0.3c0,0.1-0.2,0.2-0.3,0.3
				C186.3,396.1,186.2,396,186.1,395.9z"/>
			<path class="st0" d="M185.8,393.9c0.1,0.1,0.2,0.1,0.2,0.2c0,0.1-0.1,0.2-0.1,0.2c0,0-0.1,0-0.1,0c0-0.1-0.1-0.3-0.1-0.4
				C185.7,394,185.7,393.9,185.8,393.9z"/>
			<path d="M225.8,380c-0.2,0.3-0.4,0.5-0.6,0.8c-0.4,0.6-0.7,1.3-1,1.9c-0.3,0.6-0.1,1.1,0.2,1.7c0.2,0.2,0.3,0.5,0.4,0.7
				c0.1,0.2,0.1,0.4-0.1,0.6c-0.2,0.2-0.4,0.3-0.6,0.2c-0.1,0-0.3-0.1-0.4-0.2c-0.7-0.6-1.5-1.7-0.9-3.1c0.5-1.1,1.4-1.9,2.4-2.6
				c0.1-0.1,0.2,0,0.4-0.1C225.7,379.9,225.8,380,225.8,380z"/>
			<path d="M234.5,382.2c0,1.1-0.5,2.1-1.3,2.8c-0.1,0.1-0.3,0.3-0.5,0.1c-0.2-0.2-0.1-0.4,0.1-0.6c0.3-0.5,0.6-0.9,0.8-1.4
				c0.2-0.5,0-1.1-0.1-1.7c-0.1-0.5-0.3-0.9-0.5-1.3c-0.1-0.2,0-0.4,0-0.5c0.2,0,0.4,0,0.5,0.1c0.3,0.2,0.5,0.4,0.7,0.7
				C234.4,380.8,234.5,381.5,234.5,382.2z"/>
			<path d="M225.9,383.3c0.4-0.8,1.1-1.1,1.9-1.2c1.1-0.2,2.1-0.1,3.1,0.3c0.2,0.1,0.4,0.2,0.5,0.3c0.1,0.1,0.1,0.2,0.1,0.3
				c0,0.1-0.2,0.1-0.2,0.1c-0.5,0-1,0.1-1.5-0.1c-1-0.3-1.9,0-2.9,0.1C226.6,383.2,226.3,383.2,225.9,383.3z"/>
			<path d="M233.5,394.9c-0.1,0.6-0.1,1.2-0.2,1.8c0,0.2-0.2,0.4-0.4,0.6c-0.3,0.2-0.6,0.1-0.7-0.2c-0.4-0.8-1.1-1.5-1.8-2.1
				c-0.4-0.4-1.2-0.3-1.6,0.1c-0.5,0.6-0.9,1.3-1.3,1.9c-0.1,0.2-0.3,0.4-0.5,0.6c-0.3,0.3-0.6,0.3-0.8-0.2
				c-0.1-0.4-0.2-0.8-0.3-1.3c-0.2-1.1-0.4-2.3-0.9-3.3c-0.1-0.3-0.2-0.6-0.2-0.9c0-0.2,0-0.5,0.2-0.6c0.2-0.1,0.4-0.1,0.6,0
				c0.8,0.4,1.7,0.9,2.5,1.3c0.5,0.3,0.9,0.3,1.4-0.1c0.7-0.5,1.3-1,2-1.5c0.1-0.1,0.2-0.2,0.3-0.3c0.5-0.4,0.8-0.4,1,0.3
				c0.2,0.6,0.3,1.1,0.3,1.7C233.4,393.5,233.4,394.2,233.5,394.9C233.4,394.9,233.4,394.9,233.5,394.9z"/>
		</g>
	</g>
</g>
</svg>
